<svg width="139.675" xmlns="http://www.w3.org/2000/svg" height="139.623" id="screenshot-8a45f9ab-8bef-804e-8007-fefa8fb7433b" viewBox="0 0 139.675 139.623" xmlns:xlink="http://www.w3.org/1999/xlink" fill="none" version="1.1"><g id="shape-8a45f9ab-8bef-804e-8007-fefa8fb7433b" xml:space="preserve" rx="0" ry="0" style="fill: rgb(0, 0, 0);"><g id="shape-8a45f9ab-8bef-804e-8007-ff09efa3194c" rx="0" ry="0"><g id="shape-8a45f9ab-8bef-804e-8007-fefa8fb8553e"><g class="fills" id="fills-8a45f9ab-8bef-804e-8007-fefa8fb8553e"><path d="M116.24922943115234,129.4445037841797C109.12129974365234,128.8871612548828,102.4792709350586,126.718994140625,96.5074691772461,122.99980163574219C95.95049285888672,122.65274047851562,95.29305267333984,122.61640930175781,94.70452117919922,122.90052032470703C94.07601165771484,123.20380401611328,93.65093231201172,123.81694793701172,93.56795501708984,124.54051971435547L91.63134002685547,139.62326049804688L139.67474365234375,139.62326049804688L139.67474365234375,126.27608489990234C131.31494140625,128.94122314453125,123.44091033935547,130.0064239501953,116.24922943115234,129.4445037841797Z" style="fill: rgb(255, 255, 255); fill-opacity: 1;"/></g></g><g id="shape-8a45f9ab-8bef-804e-8007-fefa8fb8553f"><g class="fills" id="fills-8a45f9ab-8bef-804e-8007-fefa8fb8553f"><path d="M99.12499237060547,113.19756317138672L98.32210540771484,121.42589569091797C99.3434066772461,122.03817749023438,100.38521575927734,122.60296630859375,101.44603729248047,123.1208267211914L101.99181365966797,115.00235748291016C101.01805877685547,114.44587707519531,100.06072235107422,113.84732818603516,99.12499237060547,113.19756317138672Z" style="fill: rgb(255, 255, 255); fill-opacity: 1;"/></g></g><g id="shape-8a45f9ab-8bef-804e-8007-fefa8fb85540"><g class="fills" id="fills-8a45f9ab-8bef-804e-8007-fefa8fb85540"><path d="M104.20867156982422,116.17170715332031L103.67363739013672,124.12622833251953C104.9776840209961,124.66812896728516,106.30974578857422,125.13793182373047,107.66558074951172,125.54219818115234L108.23897552490234,117.84432983398438C106.86421966552734,117.36852264404297,105.52123260498047,116.80887603759766,104.20867156982422,116.17170715332031Z" style="fill: rgb(255, 255, 255); fill-opacity: 1;"/></g></g><g id="shape-8a45f9ab-8bef-804e-8007-fefa8fb882ae"><g class="fills" id="fills-8a45f9ab-8bef-804e-8007-fefa8fb882ae"><path d="M113.65117645263672,71.939453125C111.71712493896484,72.53113555908203,109.67781829833984,72.81695556640625,107.6882553100586,72.81695556640625C106.2459945678711,72.81695556640625,104.83065032958984,72.6650390625,103.49874114990234,72.37236022949219L104.76644134521484,76.81769561767578C105.0478744506836,77.80449676513672,105.87325286865234,78.4931640625,106.86910247802734,78.57213592529297C109.06414031982422,78.74581146240234,111.23229217529297,78.6336441040039,113.31221771240234,78.23796081542969C115.0808334350586,77.90119934082031,116.83434295654297,77.35013580322266,118.52355194091797,76.6002426147461C119.55315399169922,76.14302825927734,120.12041473388672,74.91732025146484,119.8430404663086,73.74883270263672L118.88448333740234,69.7094955444336C117.31685638427734,70.60102081298828,115.56539154052734,71.35379028320312,113.65117645263672,71.939453125Z" style="fill: rgb(255, 255, 255); fill-opacity: 1;"/></g></g><g id="shape-8a45f9ab-8bef-804e-8007-fefa8fb882af"><g class="fills" id="fills-8a45f9ab-8bef-804e-8007-fefa8fb882af"><path d="M6.816798686981201,25.397403717041016C4.171535015106201,26.410541534423828,2.245204448699951,28.302608489990234,1.0923113822937012,31.02212142944336C-0.4404034912586212,34.6374397277832,-0.20026066899299622,38.97148513793945,0.8298296928405762,41.38455581665039C2.528590679168701,45.36497116088867,6.624782085418701,47.756309509277344,9.960108757019043,46.71714401245117C12.113123893737793,46.046199798583984,12.291712760925293,44.21994400024414,12.225306510925293,43.2588996887207C8.804102897644043,41.81916427612305,7.570155620574951,38.40525436401367,7.516353130340576,38.2513313293457C7.307094097137451,37.655086517333984,7.621089458465576,37.001895904541016,8.217585563659668,36.792728424072266C8.813838005065918,36.58415603637695,9.464381217956543,36.89573287963867,9.675623893737793,37.48969650268555C9.693629264831543,37.53891372680664,10.778681755065918,40.4446907043457,13.603724479675293,41.32905960083008C15.842951774597168,42.0300407409668,18.69918441772461,41.28700637817383,20.02346420288086,40.85697555541992C19.96993637084961,39.0736198425293,20.01833724975586,37.32461166381836,20.18203353881836,35.65085220336914C20.361568450927734,33.81888198852539,20.682613372802734,32.03237533569336,21.12319564819336,30.320560455322266C19.450740814208984,28.68514633178711,13.043299674987793,23.014102935791016,6.816798686981201,25.397403717041016Z" style="fill: rgb(255, 255, 255); fill-opacity: 1;"/></g></g><g id="shape-8a45f9ab-8bef-804e-8007-fefa8fb882b0"><g class="fills" id="fills-8a45f9ab-8bef-804e-8007-fefa8fb882b0"><path d="M118.1830062866211,49.424339294433594C118.1566390991211,49.32791519165039,118.1434555053711,49.23036193847656,118.1426010131836,49.13421630859375C117.83892059326172,47.086795806884766,117.10933685302734,45.11635208129883,115.5597152709961,44.00448989868164C114.29546356201172,43.09724044799805,112.1035385131836,42.6323127746582,109.55474090576172,42.6323127746582C107.5520248413086,42.6323127746582,105.32884979248047,42.91926193237305,103.16133880615234,43.50466537475586C98.62206268310547,44.73037338256836,95.34004974365234,46.950042724609375,94.15670013427734,49.5948600769043C91.26006317138672,56.0684700012207,96.01085662841797,65.4166488647461,99.46105194091797,68.14559936523438C102.49382781982422,70.54437255859375,108.17964935302734,71.21989440917969,112.98140716552734,69.7509765625C118.10478973388672,68.18394470214844,121.9248275756836,65.37602233886719,123.73775482177734,61.84480667114258C125.79280853271484,57.84208679199219,125.6456527709961,52.569580078125,124.15410614013672,50.872657775878906C123.17839813232422,49.76252746582031,121.5400619506836,49.8251838684082,120.53453826904297,49.99858093261719C120.83513641357422,53.457122802734375,120.21883392333984,56.613224029541016,120.17076873779297,56.851558685302734C120.04573822021484,57.471282958984375,119.4443588256836,57.87297821044922,118.82210540771484,57.74708938598633C118.2027816772461,57.622352600097656,117.80175018310547,57.01922607421875,117.9259262084961,56.399776458740234C117.93798065185547,56.34227752685547,118.62117767333984,52.8282356262207,118.1830062866211,49.424339294433594Z" style="fill: rgb(255, 255, 255); fill-opacity: 1;"/></g></g><g id="shape-8a45f9ab-8bef-804e-8007-fefa8fb8d51d"><g class="fills" id="fills-8a45f9ab-8bef-804e-8007-fefa8fb8d51d"><path d="M29.677242279052734,29.808429718017578L24.65511703491211,29.417598724365234C24.130489349365234,29.376972198486328,23.64883041381836,29.733455657958984,23.49453353881836,30.285945892333984C22.99819564819336,32.06270980834961,22.65047836303711,33.94276809692383,22.46157455444336,35.87373733520508C22.28237533569336,37.703426361083984,22.240840911865234,39.6292610168457,22.33785629272461,41.59828567504883C22.367977142333984,42.20884323120117,22.815242767333984,42.7024040222168,23.378597259521484,42.746463775634766L28.451351165771484,43.141300201416016C28.752437591552734,43.16475296020508,29.04500961303711,43.05831527709961,29.27077865600586,42.84145736694336C29.52584457397461,42.59711837768555,29.664119720458984,42.24491500854492,29.650630950927734,41.87496566772461C29.582454681396484,40.00064468383789,29.635128021240234,38.158634185791016,29.80715560913086,36.40018844604492C29.97835922241211,34.65230941772461,30.27193832397461,32.93764114379883,30.67989730834961,31.30423355102539C30.769466400146484,30.945446014404297,30.698482513427734,30.569759368896484,30.484920501708984,30.27365493774414C30.370174407958984,30.114574432373047,30.11288070678711,29.842472076416016,29.677242279052734,29.808429718017578Z" style="fill: rgb(255, 255, 255); fill-opacity: 1;"/></g></g><g id="shape-8a45f9ab-8bef-804e-8007-fefa8fb8d51e"><g class="fills" id="fills-8a45f9ab-8bef-804e-8007-fefa8fb8d51e"><path d="M93.1989974975586,46.804405212402344C94.72600555419922,44.84852981567383,97.16661834716797,43.199947357177734,100.24962615966797,42.0417594909668C97.24999237060547,38.966609954833984,95.07378387451172,34.219722747802734,93.7224349975586,29.26510238647461C92.66942596435547,29.519451141357422,91.31990814208984,30.059925079345703,89.81267547607422,30.664478302001953C86.41094207763672,32.0289421081543,82.1776351928711,33.7270393371582,77.28923797607422,33.934757232666016C76.67443084716797,33.96078872680664,76.0604476928711,33.973079681396484,75.44795989990234,33.973079681396484C71.1926498413086,33.973079681396484,67.00377655029297,33.38540267944336,62.93600082397461,32.81490707397461C60.064815521240234,32.412044525146484,57.352840423583984,32.031803131103516,54.65261459350586,31.849842071533203C48.539669036865234,31.438709259033203,36.046016693115234,32.384578704833984,32.71920394897461,32.65324783325195C32.434139251708984,33.9376106262207,32.21895980834961,35.26717758178711,32.086483001708984,36.62308120727539C31.950435638427734,38.01156997680664,31.898433685302734,39.45931625366211,31.921260833740234,40.93449783325195C36.112178802490234,41.968807220458984,54.80428695678711,46.48366928100586,63.885860443115234,47.02243423461914C71.69380950927734,47.48593521118164,83.34148406982422,45.38729476928711,87.9857406616211,44.46371078491211C90.02306365966797,44.058284759521484,92.11165618896484,45.01362228393555,93.1989974975586,46.804405212402344Z" style="fill: rgb(255, 255, 255); fill-opacity: 1;"/></g></g><g id="shape-8a45f9ab-8bef-804e-8007-fefa8fb91c8c"><g class="fills" id="fills-8a45f9ab-8bef-804e-8007-fefa8fb91c8c"><path d="M129.078369140625,113.43274688720703C127.74571990966797,114.05160522460938,126.27794647216797,114.34371948242188,124.75615692138672,114.34371948242188C119.5508041381836,114.34371948242188,113.71184539794922,110.92496490478516,110.4623031616211,105.46735382080078C106.72371673583984,99.18802642822266,105.83928680419922,84.4883804321289,105.66918182373047,80.65303039550781C104.1948471069336,80.18495178222656,103.00475311279297,78.9884262084961,102.56450653076172,77.44513702392578L100.88780975341797,71.56551361083984C99.82564544677734,71.13090515136719,98.86077117919922,70.58900451660156,98.0399398803711,69.93981170654297C98.0390853881836,69.93923950195312,98.0382308959961,69.93838500976562,98.03771209716797,69.93781280517578C99.18059539794922,77.19679260253906,99.86922454833984,84.3221435546875,100.07866668701172,91.16712951660156C100.28081512451172,97.76203918457031,100.0443344116211,104.27998352050781,99.3846664428711,110.55701446533203C105.02574920654297,114.77461242675781,111.2096176147461,117.06666564941406,118.2711410522461,117.54647827148438C124.6946029663086,117.9825210571289,131.70477294921875,116.90815734863281,139.67474365234375,114.27249145507812L139.67474365234375,97.64786529541016C137.1358642578125,104.27568817138672,133.26382446289062,111.48918151855469,129.078369140625,113.43274688720703Z" style="fill: rgb(255, 255, 255); fill-opacity: 1;"/></g></g><g id="shape-8a45f9ab-8bef-804e-8007-fefa8fb96037"><g class="fills" id="fills-8a45f9ab-8bef-804e-8007-fefa8fb96037"><path d="M136.20849609375,38.439022064208984C135.14202880859375,37.88969039916992,134.05581665039062,37.81760025024414,132.90606689453125,37.7411994934082C132.07049560546875,37.68570327758789,131.20639038085938,37.628475189208984,130.34979248046875,37.37813186645508C127.96517181396484,36.68143081665039,125.3073959350586,33.97481155395508,125.17137908935547,30.81698226928711C125.12957000732422,29.850208282470703,125.32018280029297,28.35982894897461,125.56063079833984,26.472919464111328C126.06475067138672,22.523418426513672,126.82637786865234,16.55508041381836,125.7341537475586,11.85165786743164C124.9068832397461,8.288135528564453,121.87810516357422,-0.0000033545827591296984,111.64983367919922,-0.0000033545827591296984C104.2790756225586,-0.0000033545827591296984,95.91106414794922,3.7838406562805176,94.53020477294922,14.403507232666016C93.4508285522461,22.703372955322266,96.86898040771484,36.26686477661133,102.7474594116211,41.24665451049805C106.34703826904297,40.30278396606445,110.76949310302734,39.96256637573242,114.1156234741211,40.88300704956055C117.53099822998047,38.1840934753418,118.6776351928711,33.96737289428711,118.68904876708984,33.92329025268555C118.85018157958984,33.3127326965332,119.47606658935547,32.94680404663086,120.08629608154297,33.10673904418945C120.69719696044922,33.26639175415039,121.0634994506836,33.88924789428711,120.9049301147461,34.50038528442383C120.85457611083984,34.69381332397461,119.76985931396484,38.74344253540039,116.47277069091797,41.868106842041016C116.61763763427734,41.95651626586914,116.7595443725586,42.047489166259766,116.8950424194336,42.14448928833008C118.73592376708984,43.4654655456543,119.7119369506836,45.546932220458984,120.19542694091797,47.733707427978516C121.7000961303711,47.48506164550781,124.19283294677734,47.44758605957031,125.87435150146484,49.36111068725586C128.17642211914062,51.98019027709961,128.13015747070312,58.30158233642578,125.77474212646484,62.889129638671875C124.70177459716797,64.97946166992188,123.04756927490234,66.83948516845703,120.92534637451172,68.3939437866211L122.07076263427734,73.22038269042969C122.49434661865234,75.00458526611328,121.89327239990234,76.81254577636719,120.61162567138672,77.94383239746094C121.45796966552734,79.1337661743164,122.95516204833984,81.27790832519531,124.50789642333984,83.68326568603516C126.44225311279297,80.04934692382812,127.98931121826172,76.07952117919922,129.11178588867188,71.85248565673828C130.453125,66.80171203613281,131.2293701171875,61.24052810668945,131.41998291015625,55.32371139526367C131.44033813476562,54.69197082519531,131.95831298828125,54.19585418701172,132.60122680664062,54.21675491333008C133.233154296875,54.237056732177734,133.72897338867188,54.76578903198242,133.7086181640625,55.39752960205078C133.51226806640625,61.48774719238281,132.7105712890625,67.22145080566406,131.32489013671875,72.43987274169922C130.03897094726562,77.28119659423828,128.21115112304688,81.8006362915039,125.90010833740234,85.89434814453125C127.26628875732422,88.12431335449219,128.53054809570312,90.392333984375,129.2633056640625,92.19970703125C131.52047729492188,97.76862335205078,130.2705078125,103.79129791259766,130.21578979492188,104.04508209228516C130.10104370117188,104.58241271972656,129.62567138671875,104.95034790039062,129.09759521484375,104.95034790039062C129.018310546875,104.95034790039062,128.93753051757812,104.94204711914062,128.85690307617188,104.92488098144531C128.2386474609375,104.79269409179688,127.84444427490234,104.18413543701172,127.97692108154297,103.56613159179688C127.98845672607422,103.51205444335938,129.128173828125,97.96260070800781,127.1412582397461,93.05947875976562C125.4032211303711,88.77178955078125,120.25548553466797,81.39205932617188,118.59053802490234,79.05509185791016C117.0089340209961,79.6922607421875,115.3816146850586,80.17408752441406,113.74047088623047,80.48623657226562C112.15300750732422,80.78865051269531,110.52010345458984,80.94029998779297,108.8648910522461,80.94029998779297C108.5698471069336,80.94029998779297,108.27324676513672,80.93228912353516,107.97673797607422,80.92255401611328C108.1867904663086,85.10810852050781,109.11278533935547,98.72451782226562,112.43004608154297,104.29629516601562C116.37227630615234,110.91809844970703,123.86019134521484,113.33231353759766,128.11349487304688,111.3564224243164C132.37570190429688,109.37736511230469,137.41552734375,98.89790344238281,139.67495727539062,90.2618637084961L139.67495727539062,41.84720230102539C139.02700805664062,40.937374114990234,137.56893920898438,39.13972854614258,136.20849609375,38.439022064208984Z" style="fill: rgb(255, 255, 255); fill-opacity: 1;"/></g></g><g id="shape-8a45f9ab-8bef-804e-8007-fefa8fb96038"><g class="fills" id="fills-8a45f9ab-8bef-804e-8007-fefa8fb96038"><path d="M136.632080078125,124.80345916748047C137.63827514648438,124.51677703857422,138.652587890625,124.20604705810547,139.67474365234375,123.87016296386719L139.67474365234375,116.68414306640625C138.645751953125,117.01488494873047,137.6322021484375,117.31903076171875,136.632080078125,117.59883880615234L136.632080078125,124.80345916748047Z" style="fill: rgb(255, 255, 255); fill-opacity: 1;"/></g></g><g id="shape-8a45f9ab-8bef-804e-8007-fefa8fb9af9f"><g class="fills" id="fills-8a45f9ab-8bef-804e-8007-fefa8fb9af9f"><path d="M110.48326873779297,118.54216003417969L109.91704559326172,126.14390563964844C111.5505599975586,126.53130340576172,113.2175521850586,126.82256317138672,114.91512298583984,127.01483154296875L115.27889251708984,119.53182220458984C113.64574432373047,119.30207061767578,112.0460433959961,118.97361755371094,110.48326873779297,118.54216003417969Z" style="fill: rgb(255, 255, 255); fill-opacity: 1;"/></g></g><g id="shape-8a45f9ab-8bef-804e-8007-fefa8fb9afa0"><g class="fills" id="fills-8a45f9ab-8bef-804e-8007-fefa8fb9afa0"><path d="M121.42046356201172,119.92494201660156C120.30358123779297,119.93295288085938,119.20140838623047,119.90377044677734,118.11565399169922,119.8299560546875C117.9293441772461,119.81736755371094,117.74480438232422,119.79820251464844,117.55931854248047,119.78303527832031L117.19808197021484,127.2108154296875C118.57939910888672,127.29493713378906,119.98729705810547,127.31725311279297,121.42046356201172,127.27747344970703L121.42046356201172,119.92494201660156Z" style="fill: rgb(255, 255, 255); fill-opacity: 1;"/></g></g><g id="shape-8a45f9ab-8bef-804e-8007-fefa8fb9afa1"><g class="fills" id="fills-8a45f9ab-8bef-804e-8007-fefa8fb9afa1"><path d="M130.17111206054688,119.08576965332031L130.17111206054688,126.32501220703125C131.54364013671875,126.0709457397461,132.93460083007812,125.76622772216797,134.34225463867188,125.41316986083984L134.34225463867188,118.19853973388672C132.92437744140625,118.54759979248047,131.53445434570312,118.84314727783203,130.17111206054688,119.08576965332031Z" style="fill: rgb(255, 255, 255); fill-opacity: 1;"/></g></g><g id="shape-8a45f9ab-8bef-804e-8007-fefa8fb9f07b"><g class="fills" id="fills-8a45f9ab-8bef-804e-8007-fefa8fb9f07b"><path d="M123.71019744873047,119.85198211669922L123.71019744873047,127.16304016113281C125.0794906616211,127.06460571289062,126.47026824951172,126.91240692138672,127.88140106201172,126.70553588867188L127.88140106201172,119.44683837890625C126.46395111083984,119.64140319824219,125.07430267333984,119.77616119384766,123.71019744873047,119.85198211669922Z" style="fill: rgb(255, 255, 255); fill-opacity: 1;"/></g></g></g></g></svg>