<?xml version="1.0" encoding="UTF-8" standalone="no"?>
<svg
   width="49.648998"
   height="61.363998"
   id="screenshot-8a45f9ab-8bef-804e-8007-fef7a759661a"
   viewBox="0 0 49.649 61.364"
   fill="none"
   version="1.1"
   sodipodi:docname="boxing-glove-2.svg"
   inkscape:export-filename="boxing-glove-1.svg"
   inkscape:export-xdpi="96"
   inkscape:export-ydpi="96"
   xmlns:inkscape="http://www.inkscape.org/namespaces/inkscape"
   xmlns:sodipodi="http://sodipodi.sourceforge.net/DTD/sodipodi-0.dtd"
   xmlns="http://www.w3.org/2000/svg"
   xmlns:svg="http://www.w3.org/2000/svg">
  <defs
     id="defs1" />
  <sodipodi:namedview
     id="namedview1"
     pagecolor="#ffffff"
     bordercolor="#000000"
     borderopacity="0.25"
     inkscape:showpageshadow="2"
     inkscape:pageopacity="0.0"
     inkscape:pagecheckerboard="0"
     inkscape:deskcolor="#d1d1d1">
    <inkscape:page
       x="0"
       y="0"
       width="49.648998"
       height="61.363998"
       id="page2"
       margin="0"
       bleed="0" />
  </sodipodi:namedview>
  <g
     id="shape-8a45f9ab-8bef-804e-8007-fef7a759661a"
     rx="0"
     ry="0"
     style="fill:#ffffff;fill-opacity:1">
    <g
       id="shape-8a45f9ab-8bef-804e-8007-fef7a75baebd"
       style="fill:#ffffff;fill-opacity:1">
      <g
         class="fills"
         id="fills-8a45f9ab-8bef-804e-8007-fef7a75baebd"
         style="fill:#ffffff;fill-opacity:1">
        <path
           d="m 42.624207,13.543732 c 0,-1.973877 1.622192,-3.5487674 3.573852,-3.5487674 l -0.123169,0.043151 c 1.987793,0 3.573792,1.610779 3.573792,3.545166 v 2.865632 c 0,3.868713 -0.894287,7.697952 -2.639649,11.124481 l -0.202759,0.402679 c -1.95166,3.872315 -4.507995,7.421082 -7.676147,10.603485 l -2.636047,2.581589 c -0.123169,0.122238 -0.365784,0.161789 -0.365784,0.161789 H 6.0823364 c -0.2425537,0 -0.4453125,-0.122238 -0.4851684,-0.363129 L 0.56048584,20.961319 C -1.0217285,14.834686 0.80316162,8.3052368 5.3111572,3.8687134 7.8275757,1.3699036 11.118958,1.5258789e-5 14.64917,1.5258789e-5 h 18.270935 c 3.613647,0 6.575562,2.901504541211 6.575562,6.529418941211 v 8.0646208 c 0,3.588272 -2.921937,6.52945 -6.575562,6.52945 H 15.583496 c -2.476684,0 -4.750549,-1.369873 -5.8875731,-3.588257 L 7.8673096,13.90744 C 7.7080078,13.583847 7.4219971,13.303406 7.0562744,13.181152 6.6506958,13.0625 6.2452393,13.0625 5.8396606,13.263855 5.1082764,13.626984 4.8258057,14.511505 5.1879272,15.277313 l 1.8286133,3.588242 c 1.6257324,3.268326 4.9134525,5.281784 8.6068115,5.281784 h 17.33667 c 5.319092,0 9.664307,-4.314575 9.664307,-9.59285 z M 37.0625,44.263519 H 4.5795898 c -0.2824096,0 -0.4851684,0.244492 -0.4851684,0.485382 v 8.064667 c 0,0.280441 0.2425537,0.481796 0.4851684,0.481796 H 37.0625 c 0.28241,0 0.485168,-0.240905 0.485168,-0.481796 v -8.064667 c 0,-0.284042 -0.242553,-0.485382 -0.485168,-0.485382 z m -25.903442,4.515869 c 0,-0.84494 0.687927,-1.531707 1.542602,-1.531707 h 16.239929 c 0.811158,0 1.542542,0.726288 1.542542,1.531707 0,0.809006 -0.691528,1.531723 -1.542542,1.531723 H 12.70166 c -0.854553,0 -1.542602,-0.643585 -1.542602,-1.531723 z m 23.872497,7.582886 H 6.6114502 c -0.2860107,0 -0.4887695,0.240906 -0.4887695,0.485382 v 2.013474 c 0,1.413055 1.0971069,2.502517 2.5201416,2.502517 H 33.000122 c 1.383179,0 2.516541,-1.129013 2.516541,-2.502517 v -2.013474 c 0,-0.284027 -0.242615,-0.485382 -0.48523,-0.485382 z"
           fill-rule="evenodd"
           style="fill:#ffffff;fill-opacity:1"
           id="path1" />
      </g>
    </g>
  </g>
</svg>
