<?xml version="1.0" encoding="UTF-8" standalone="no"?>
<svg
   version="1.1"
   width="929.23242"
   height="825.99963"
   id="svg49"
   sodipodi:docname="boxing-dodge-1.svg"
   xmlns:inkscape="http://www.inkscape.org/namespaces/inkscape"
   xmlns:sodipodi="http://sodipodi.sourceforge.net/DTD/sodipodi-0.dtd"
   xmlns="http://www.w3.org/2000/svg"
   xmlns:svg="http://www.w3.org/2000/svg">
  <defs
     id="defs49" />
  <sodipodi:namedview
     id="namedview49"
     pagecolor="#ffffff"
     bordercolor="#000000"
     borderopacity="0.25"
     inkscape:showpageshadow="2"
     inkscape:pageopacity="0.0"
     inkscape:pagecheckerboard="0"
     inkscape:deskcolor="#d1d1d1">
    <inkscape:page
       x="0"
       y="0"
       width="929.23242"
       height="825.99963"
       id="page2"
       margin="0"
       bleed="0" />
  </sodipodi:namedview>
  <path
     d="m 389.23245,373.43556 c 3.28674,1.43901 5.47727,3.22011 8.01172,5.7461 0.75362,0.74967 1.50724,1.49934 2.28369,2.27172 0.78939,0.7985 1.57878,1.59699 2.39209,2.41968 0.81002,0.81461 1.62003,1.62922 2.45459,2.46851 4.97325,5.04888 9.64224,10.16062 14.00635,15.74634 1.78043,2.25746 3.65314,4.35985 5.60156,6.47265 4.93461,5.49049 9.30889,11.40159 13.75781,17.28516 2.29673,3.03371 4.62304,6.03975 6.98438,9.02344 7.18247,9.08312 13.92884,18.3484 20.375,27.96875 2.24411,3.33613 4.57746,6.59017 6.96094,9.82812 4.16325,5.6911 8.07679,11.52966 11.92871,17.4331 1.13303,1.73419 2.27384,3.46309 3.41504,5.1919 0.73224,1.11818 1.46403,2.23666 2.19531,3.35547 0.65081,0.99306 1.30163,1.98612 1.97217,3.00927 1.52227,2.54817 2.65363,4.99413 3.66064,7.77979 -0.66387,0.19336 -1.32773,0.38672 -2.01172,0.58594 -5.52358,1.62295 -5.52358,1.62295 -10.92578,3.60156 -2.0625,0.8125 -2.0625,0.8125 -5.0625,0.8125 0,0.66 0,1.32 0,2 -0.51304,0.17273 -1.02609,0.34547 -1.55469,0.52344 -24.33956,8.9327 -44.81709,25.92104 -63.44531,43.47656 -0.73218,0.68965 -1.46437,1.3793 -2.21875,2.08984 -4.6629,4.52413 -8.75327,9.41311 -12.80078,14.49219 -1.58318,1.93292 -3.17187,3.70066 -4.98047,5.41797 -4.09867,-1.5323 -6.20215,-4.42987 -8.75,-7.8125 -0.46607,-0.60675 -0.93215,-1.21349 -1.41235,-1.83862 -1.04257,-1.35977 -2.08151,-2.72233 -3.11743,-4.08716 -1.84758,-2.42917 -3.71076,-4.84585 -5.57569,-7.26172 -7.80015,-10.13352 -15.34369,-20.40238 -22.66162,-30.8877 -4.22654,-6.02041 -8.55115,-11.97097 -12.88476,-17.91455 -1.05277,-1.44775 -2.10139,-2.89854 -3.14551,-4.35254 -14.17003,-19.7269 -30.01734,-34.05029 -52.45264,-43.84521 -0.66,0 -1.32,0 -2,0 0.8598,0.64324 1.71961,1.28649 2.60547,1.94922 11.85477,9.00184 22.15825,18.80301 31.33203,30.55078 0.53899,0.67055 1.07798,1.34111 1.6333,2.03198 3.53102,4.6952 3.53102,4.6952 3.10498,7.92896 -2.39173,3.62383 -4.84486,7.17183 -7.42578,10.66406 -0.57347,0.78407 -1.14694,1.56814 -1.73779,2.37598 -1.2155,1.65999 -2.4335,3.31815 -3.65381,4.97461 -1.82167,2.47452 -3.63403,4.95562 -5.44433,7.43847 -6.52223,8.92529 -13.16866,17.72676 -20.05665,26.37256 -1.45797,1.8403 -2.90117,3.69151 -4.3418,5.54541 -0.74117,0.95169 -0.74117,0.95169 -1.49731,1.92261 -0.94052,1.20834 -1.87928,2.41804 -2.81592,3.62939 -2.40072,3.07473 -4.87529,5.92662 -7.70239,8.61597 -0.71285,-0.78504 -1.4257,-1.57008 -2.16016,-2.37891 -2.48567,-2.73171 -4.98678,-5.44879 -7.49463,-8.16015 -1.04489,-1.13478 -2.07828,-2.28016 -3.10693,-3.42969 -13.24273,-14.18119 -31.24723,-22.64418 -49.23828,-29.03125 -0.78633,-0.29648 -1.57266,-0.59297 -2.38281,-0.89844 -16.43321,-5.94893 -36.66568,-6.1845 -53.61719,-2.10156 1.43448,-3.89582 3.2654,-7.29573 5.42188,-10.83984 0.33635,-0.55458 0.67271,-1.10916 1.01927,-1.68055 1.09874,-1.8083 2.20341,-3.61289 3.30885,-5.41711 0.77126,-1.26374 1.5425,-2.52749 2.31372,-3.79126 10.30523,-16.85574 20.96664,-33.4599 31.97534,-49.86499 0.51232,-0.77013 1.02465,-1.54027 1.55249,-2.33374 1.17365,-1.72701 2.41421,-3.40831 3.67017,-5.07641 2.32727,-4.01127 3.08713,-7.90774 3.92578,-12.4336 0.16436,-0.82049 0.32871,-1.64097 0.49805,-2.48633 0.72815,-3.69384 1.37468,-7.37837 1.86523,-11.11132 0.44922,-2.96485 0.44922,-2.96485 1.44922,-3.96485 2.43335,-0.1239 4.84237,-0.18677 7.27734,-0.21094 1.54852,-0.0256 3.09702,-0.052 4.64551,-0.0791 0.81795,-0.0132 1.6359,-0.0265 2.47864,-0.0402 25.06492,-0.44278 49.10615,-3.22752 73.59851,-8.6698 0.85191,-0.18256 1.70382,-0.36512 2.58155,-0.55322 26.84523,-5.80423 52.29729,-16.54414 76.60595,-29.13428 0.84941,-0.43949 1.69883,-0.87898 2.57398,-1.33178 5.65913,-2.99101 10.97906,-6.33445 16.23852,-9.98072 z"
     fill="#010101"
     id="path2"
     style="fill:#ffffff;fill-opacity:1" />
  <path
     d="m 512.23245,24.435562 c 2.20583,0.293087 2.20583,0.293087 4.66748,0.239502 1.41695,0.0056 1.41695,0.0056 2.86252,0.01131 1.52816,-0.0062 1.52816,-0.0062 3.08719,-0.01253 2.15495,0.01542 4.3099,0.03172 6.46484,0.04883 3.39939,0.01646 6.79833,0.02538 10.19776,0.01831 3.27965,-0.0026 6.55793,0.02548 9.8374,0.05786 1.01472,-0.01021 2.02945,-0.02041 3.07492,-0.03093 4.57047,0.06338 7.0522,0.143008 10.8765,2.798019 6.51122,9.674236 5.43258,24.195226 5.37744,35.419678 -0.009,2.61759 0.0203,5.232966 0.052,7.850342 0.0534,13.071016 -0.40383,28.705525 -6.49805,40.599607 -3.21494,2.1433 -3.89069,2.23164 -7.55639,2.11597 -0.92204,-0.0228 -1.84408,-0.0455 -2.79406,-0.0689 -0.99681,-0.0323 -1.99362,-0.0646 -3.02064,-0.0978 -2.12302,-0.0399 -4.24607,-0.0783 -6.36914,-0.11524 -3.33801,-0.0677 -6.67447,-0.14576 -10.01148,-0.2522 -17.88673,-0.764 -17.88673,-0.764 -33.24829,7.41821 -1.25452,0.86994 -2.51308,1.73412 -3.77734,2.58985 -1.04285,0.77472 -2.0857,1.54945 -3.16016,2.34765 -16.14862,11.71987 -32.14452,21.08652 -52.4375,21.4375 -0.81211,0.0374 -1.62422,0.0748 -2.46093,0.11328 -6.27931,0.0906 -10.27734,-1.55624 -15.16407,-5.48828 -3.81304,-4.18205 -4.35736,-8.23709 -4.27734,-13.72266 0.63592,-5.22169 4.41088,-8.95201 8.34228,-12.17626 3.92159,-2.23144 8.39152,-2.16511 12.81006,-2.41358 0.97453,-0.0728 1.94906,-0.14566 2.95313,-0.2207 2.38996,-0.17573 4.77938,-0.33069 7.17187,-0.4668 -6.65999,-5.15612 -12.21184,-6.987 -20.66015,-6.57422 -6.99148,1.20205 -11.42842,5.01567 -15.77735,10.44922 -3.92579,6.31824 -4.04677,13.87805 -4.5625,21.125 -12.02482,0.95943 -21.709,-2.20154 -30.97266,-10.00781 -7.52589,-7.39538 -11.07679,-15.99492 -14.02734,-25.99219 -0.48146,-1.618416 -0.48146,-1.618416 -0.97266,-3.269529 -5.5939,-21.933296 -2.02107,-45.648246 8.9336,-65.335938 2.6949,-4.486334 5.47071,-8.562746 9.03906,-12.394531 0.81791,-0.897187 0.81791,-0.897187 1.65234,-1.8125 33.31591,-32.659793 96.22099,-16.9386129 130.34766,5.8125 z"
     fill="#020202"
     id="path3"
     style="fill:#ffffff;fill-opacity:1" />
  <path
     d="m 121.23245,217.43556 c 0.61875,0.63938 1.2375,1.27875 1.875,1.9375 13.19218,13.3671 13.19218,13.3671 30.83203,18.08594 7.30932,0.1 7.30932,0.1 10.41016,2.86328 1.77372,2.30279 3.35386,4.64246 4.88281,7.11328 3.33131,4.54269 6.76052,7.63041 12.02344,9.85547 0.69352,0.2952 1.38703,0.59039 2.10156,0.89453 0.64196,0.24235 1.28391,0.48469 1.94531,0.73438 2.59584,2.03883 3.40525,4.38869 4.78223,7.34472 1.94417,3.67821 4.6802,6.6033 7.45996,9.6709 0.5767,0.65001 1.15339,1.30002 1.74756,1.96973 1.13336,1.27675 2.26996,2.55064 3.41016,3.82129 1.90885,2.13245 3.78269,4.29425 5.65478,6.45898 0.94896,1.09155 1.9062,2.17602 2.875,3.25 0.45117,0.54141 0.90235,1.08282 1.36719,1.64063 1.59268,1.56951 1.59268,1.56951 4.03516,1.6914 3.82932,0.98469 4.89384,3.17651 7.16015,6.35547 0.87818,1.19646 1.75982,2.39039 2.64453,3.58203 0.45714,0.61827 0.91427,1.23654 1.38526,1.87354 15.5271,20.48199 38.74275,50.04931 65.40771,54.85693 14.9927,0.80285 27.08568,-1.91603 39.39453,-10.71094 8.67736,-7.83871 15.06344,-20.78927 15.80469,-32.41308 0.10621,-3.66946 0.12272,-7.33006 0.11328,-11.00098 0.0161,-1.22976 0.0322,-2.45953 0.0488,-3.72656 0.004,-7.85114 -0.88498,-14.72539 -2.81372,-22.31592 -0.54758,-2.83252 -0.54758,-2.83252 0.45242,-5.83252 7.23678,12.85567 13.29301,26.25382 19.44873,39.64649 1.77651,3.84043 3.58911,7.66235 5.41553,11.47924 1.7299,3.61636 3.43633,7.2435 5.13574,10.87427 0.29439,0.62375 0.58878,1.24749 0.89209,1.89014 0.7827,1.67435 1.54006,3.36049 2.29541,5.04736 0.60908,1.34385 0.60908,1.34385 1.23047,2.71484 0.58203,2.34766 0.58203,2.34766 -0.13281,4.33008 -1.51446,2.37756 -2.82503,3.25633 -5.26563,4.64649 -1.23387,0.7083 -1.23387,0.7083 -2.49267,1.4309 -0.89574,0.49589 -1.79148,0.99178 -2.71436,1.50269 -1.39775,0.78347 -1.39775,0.78347 -2.82373,1.58276 -18.62065,10.29706 -37.69597,18.46884 -57.86719,25.14917 -1.85396,0.61657 -3.70306,1.24774 -5.55127,1.88135 -21.99037,7.25533 -44.46454,11.13123 -67.51071,12.67893 -2.15537,0.15205 -4.30848,0.32508 -6.46219,0.49905 -27.86554,2.14184 -27.86554,2.14184 -35.12768,-1.68823 -3.8347,-3.64494 -5.69603,-8.31844 -7.92871,-13.03321 -3.14216,-5.36735 -7.84143,-9.4733 -12.29102,-13.75732 -0.88945,-0.87552 -1.7789,-1.75103 -2.69531,-2.65308 -6.12752,-5.98778 -12.40719,-11.74386 -19.11719,-17.07348 -8.21161,-6.56905 -13.48548,-12.85562 -18.4375,-22.14844 -0.52207,-0.72316 -1.04414,-1.44633 -1.58203,-2.19141 -1.41334,-2.79942 -1.82352,-4.78173 -2.30078,-7.85156 -1.06054,-6.51957 -3.3872,-12.22792 -5.99219,-18.26953 -0.65162,-1.56718 -0.65162,-1.56718 -1.3164,-3.16601 -1.79115,-4.23045 -3.44686,-8.01603 -6.12891,-11.76368 -2.19066,-3.59676 -1.9681,-6.52311 -1.67969,-10.57031 0.29166,-6.54579 -0.52598,-11.91801 -2.375,-18.1875 -1.97293,-7.021 -1.97293,-7.021 -0.66015,-10.71484 1.59765,-2.22266 1.59765,-2.22266 3.36328,-4.26953 5.76115,-6.94569 5.31506,-17.47671 5.67187,-26.01563 z"
     fill="#020202"
     id="path4"
     style="fill:#ffffff;fill-opacity:1" />
  <path
     d="m 576.23245,36.435562 c 54.2007,-0.404308 108.34661,-0.652727 162.5,1.9375 0.96695,0.0458 1.93389,0.09159 2.93014,0.138779 6.36779,0.302805 12.73475,0.619525 19.10111,0.951065 0.80522,0.04165 1.61043,0.0833 2.44005,0.126211 2.24484,0.117893 4.48933,0.240708 6.73378,0.365732 1.87274,0.103259 1.87274,0.103259 3.78332,0.208603 3.5368,0.274063 7.00517,0.740766 10.5116,1.27211 1.66494,0.162116 3.33174,0.306373 5,0.429688 1.42131,0.10671 1.42131,0.10671 2.87134,0.215576 1.03246,0.07581 2.06491,0.151626 3.12866,0.229736 1.68694,0.130155 1.68694,0.130155 3.40796,0.26294 6.00409,0.460555 12.0077,0.894013 18.0175,1.271316 27.41772,1.736389 54.42767,5.427051 81.57454,9.590744 0,0.33 0,0.66 0,1 -1.33041,0.01546 -1.33041,0.01546 -2.6877,0.03123 -8.53921,0.09977 -17.07839,0.202465 -25.61753,0.308104 -4.38547,0.05416 -8.77094,0.107353 -13.15644,0.157975 -31.82097,0.368736 -63.61008,0.921486 -95.3833,2.804932 -3.44002,0.203522 -6.88047,0.398348 -10.32105,0.592285 -2.22984,0.128418 -4.45966,0.257305 -6.68945,0.386719 -1.00822,0.05732 -2.01644,0.114646 -3.05522,0.173706 -4.12568,0.247138 -8.22261,0.524626 -12.32198,1.058716 -3.73436,0.482072 -7.43095,0.766006 -11.18921,0.986328 -1.36849,0.08328 -2.73698,0.166612 -4.10546,0.25 -2.12184,0.126235 -4.24374,0.25123 -6.36573,0.375 -2.0723,0.121816 -4.1443,0.248185 -6.2163,0.375 -1.22687,0.07219 -2.45374,0.144375 -3.71778,0.21875 -2.53162,0.224415 -4.74887,0.557229 -7.17285,1.281255 1.79449,1.794486 4.51747,1.625107 6.94995,1.983887 1.27611,0.190449 2.55221,0.380898 3.86699,0.577118 0.68766,0.100646 1.37531,0.201292 2.08381,0.304988 2.15944,0.316217 4.31806,0.637636 6.47652,0.960454 5.374,0.802648 10.74927,1.596663 16.12462,2.390228 4.5222,0.667865 9.04382,1.33945 13.56475,2.015812 2.10286,0.313123 4.20645,0.620984 6.31011,0.928615 7.54774,1.119549 14.99181,2.480523 22.43155,4.183167 3.38807,0.696075 6.75586,1.142087 10.1917,1.530731 7.45202,0.865734 14.85111,2.011995 22.25244,3.233215 1.94525,0.320662 3.89132,0.636322 5.8374,0.951844 6.81871,1.137342 13.47956,2.520838 20.16797,4.263916 4.00549,0.987462 8.03961,1.630844 12.11719,2.238525 5.10323,0.763304 9.71957,1.793555 14.625,3.4375 3.54607,0.574391 7.09445,1.003886 10.66016,1.4375 3.09612,0.521453 5.46051,1.367307 8.33984,2.5625 2.21934,0.541963 4.44995,1.03896 6.6875,1.5 1.24652,0.260391 2.49305,0.520781 3.77734,0.789062 2.01033,0.404286 4.02238,0.800629 6.03907,1.171875 6.39484,1.178881 12.58695,2.915581 18.81347,4.774901 4.56576,1.32389 8.93939,2.13862 13.68018,2.52735 2.81995,0.33349 5.36213,1.22131 8.00244,2.23681 0,0.66 0,1.32 0,2 -42.32692,-4.14492 -42.32692,-4.14492 -55.75,-6.0625 -7.5938,-1.06955 -15.2229,-1.65064 -22.86621,-2.24048 -0.98259,-0.0766 -1.96518,-0.15323 -2.97754,-0.23217 -0.87334,-0.0658 -1.74668,-0.13165 -2.64648,-0.19947 -1.9832,-0.1907 -3.96036,-0.44851 -5.92992,-0.74893 -3.95437,-0.53324 -7.88617,-0.83335 -11.8672,-1.04501 -0.77453,-0.0426 -1.54906,-0.0851 -2.34706,-0.12898 -2.5604,-0.13701 -5.12107,-0.26647 -7.682,-0.39324 -0.89287,-0.0445 -1.78575,-0.089 -2.70569,-0.13482 -21.08509,-1.023884 -42.15122,-1.084841 -63.25646,-1.010016 -3.96711,0.01107 -7.93418,0.01046 -11.9013,0.0099 -3.84569,2.71e-4 -7.69135,0.0057 -11.53703,0.013 -1.82093,0.0032 -3.64185,0.0052 -5.46278,0.0059 -2.50257,0.0022 -5.00504,0.01086 -7.50759,0.0216 -0.74191,-4.53e-4 -1.48382,-9.06e-4 -2.24821,-0.0014 -3.78314,-0.03717 -3.78314,-0.03717 -7.31453,1.146616 12.78749,3.69475 12.78749,3.69475 25.78125,6.53906 3.20858,0.66658 6.29509,1.65745 9.40625,2.67969 2.37133,0.65871 4.66182,1.13482 7.07812,1.57813 7.6216,1.48714 15.03621,3.78216 22.48438,5.95312 3.16862,0.91894 6.338,1.83519 9.50781,2.75 0.77262,0.22323 1.54525,0.44646 2.34128,0.67646 4.85824,1.39768 9.73142,2.70819 14.62991,3.95806 15.53852,3.99151 30.64428,9.47831 45.79444,14.72095 0.78566,0.2717 1.57132,0.54341 2.3808,0.82335 4.89372,1.70227 9.75074,3.48478 14.59576,5.32118 0,0.33 0,0.66 0,1 -6.304,-0.64809 -12.51759,-1.52664 -18.76172,-2.60156 -1.91941,-0.32517 -3.83884,-0.6502 -5.7583,-0.9751 -1.00372,-0.17074 -2.00743,-0.34148 -3.04156,-0.5174 -19.57709,-3.32521 -39.17734,-6.44845 -58.81488,-9.39397 -1.89146,-0.28385 -3.7829,-0.56779 -5.67432,-0.85181 -0.92202,-0.13841 -1.84405,-0.27682 -2.79401,-0.41942 -6.11353,-0.92179 -12.21997,-1.8819 -18.32318,-2.86964 -0.82141,-0.13235 -1.64283,-0.2647 -2.48913,-0.40107 -3.75903,-0.6061 -7.51699,-1.2175 -11.27308,-1.84161 -11.25243,-1.83754 -22.55892,-3.18979 -33.87802,-4.53839 -10.01918,-1.19526 -20.02784,-2.45593 -30.03164,-3.77362 -0.69552,-0.0915 -1.39103,-0.18299 -2.10763,-0.27725 -3.5473,-0.46678 -7.09446,-0.93456 -10.64155,-1.40296 -27.11406,-3.57916 -54.23871,-7.02413 -81.41098,-10.1362 0.13133,-0.78141 0.26265,-1.56282 0.39795,-2.36792 3.33865,-19.9353 5.64778,-39.794048 2.03955,-59.88989 -0.42121,-2.640071 -0.46881,-5.075615 -0.4375,-7.742188 z"
     fill="#060606"
     id="path5"
     style="fill:#ffffff;fill-opacity:1" />
  <path
     d="m 135.91995,45.998062 c 1.79418,1.450767 3.5678,2.927605 5.3125,4.4375 0.71028,0.599414 1.42055,1.198828 2.15235,1.816406 14.37208,13.176782 22.37977,32.133302 24.84765,51.183592 0.0417,2.33296 0.0536,4.66728 0,7 -0.70383,0.13535 -1.40765,0.27071 -2.13281,0.41016 -12.49451,2.724 -23.19578,8.2739 -32.86719,16.58984 -0.96808,0.75926 -1.93617,1.51852 -2.93359,2.30078 -3.26133,2.72341 -5.69522,5.79604 -8.12891,9.26172 -0.43191,0.61279 -0.86383,1.22558 -1.30884,1.85694 -9.03852,13.2087 -11.95232,27.81485 -12.62866,43.58056 -0.92812,-0.825 -1.85625,-1.65 -2.8125,-2.5 -8.832607,-7.48736 -17.063321,-12.97734 -28.187498,-16.5 -0.757969,-0.24621 -1.515937,-0.49242 -2.296875,-0.74609 -12.930009,-3.52416 -29.02475,-1.8409 -40.917965,4.44531 -2.78516,1.30078 -2.78516,1.30078 -4.89454,1.27734 -9.79566,-5.05974 -16.51092,-20.59305 -20.2070296,-30.50781 -0.9936,-3.13846 -1.86609,-6.28049 -2.68359,-9.46875 -0.2243,-0.71801 -0.44859,-1.43601 -0.67969,-2.17578 -5.25183001,-18.52529 -0.0485,-39.287288 8.6796896,-55.824218 11.1725,-19.364155 28.267713,-34.053137 49.890625,-40.445313 0.696094,-0.183046 1.392188,-0.366093 2.109375,-0.554687 0.716719,-0.203672 1.433437,-0.407344 2.171875,-0.617188 23.572463,-5.774462 48.282243,1.202784 67.515623,15.179688 z"
     fill="#020201"
     id="path6"
     style="fill:#ffffff;fill-opacity:1" />
  <path
     d="m 277.73245,136.93556 c 1.51333,1.14933 3.01479,2.31456 4.5,3.5 0.60973,0.44731 1.21946,0.89461 1.84766,1.35547 11.4809,8.91797 17.97699,22.57709 22.9375,35.87109 0.25791,0.69081 0.51583,1.38162 0.78155,2.09336 3.09426,8.36825 5.92153,16.82214 8.68329,25.30508 0.27836,0.85418 0.55672,1.70835 0.84351,2.58841 21.97596,67.75373 21.97596,67.75373 22.15649,100.72409 0.0206,0.93779 0.0413,1.87559 0.0625,2.8418 0.0638,11.47765 -4.20674,22.88978 -12.3125,31.2207 -9.84911,7.50683 -19.51956,11.15255 -32,10 -17.91073,-4.18758 -31.77713,-18.62396 -43.3789,-32.1228 -2.26768,-2.62593 -4.63126,-5.15087 -6.9961,-7.6897 -13.87795,-15.03867 -13.87795,-15.03867 -16.625,-21.1875 1.09055,-0.40219 1.09055,-0.40219 2.20313,-0.8125 17.09348,-6.66208 33.56732,-19.04284 42.79687,-35.1875 2.81352,1.28896 4.93257,2.66269 7.17188,4.79297 0.86673,0.81634 0.86673,0.81634 1.75097,1.64917 0.60296,0.57597 1.20592,1.15194 1.82715,1.74536 1.25956,1.18841 2.51997,2.37592 3.78125,3.5625 0.60199,0.56719 1.20399,1.13437 1.82422,1.71875 1.92294,1.79048 3.8951,3.51432 5.89453,5.21875 4.84193,4.16827 9.27657,8.75657 13.75,13.3125 -5.16849,-15.50547 -18.8335,-29.93258 -30.73437,-40.54687 -1.26563,-1.45313 -1.26563,-1.45313 -2.20313,-5.26563 -2.17067,-7.06329 -7.67699,-12.08734 -12.52441,-17.45508 -2.99367,-3.37191 -5.77907,-6.91152 -8.60059,-10.42773 -1.83695,-2.319 -1.83695,-2.319 -3.96093,-4.0061 -2.618,-3.04452 -2.8999,-5.4323 -3.53907,-9.38062 -0.17704,-1.03685 -0.17704,-1.03685 -0.35766,-2.09465 -0.37515,-2.20972 -0.72882,-4.42215 -1.07984,-6.63582 -3.58209,-21.99333 -8.66846,-41.90425 -22,-60.1875 12.43672,-12.43672 41.53597,-2.55374 53.5,5.5 z"
     fill="#030303"
     id="path7"
     style="fill:#ffffff;fill-opacity:1" />
  <path
     d="m 495.23245,523.43556 c 1.45703,1.45777 1.45703,1.45777 2.8125,3.16797 0.51168,0.63785 1.02336,1.27569 1.55054,1.93286 0.5402,0.6886 1.08039,1.3772 1.63696,2.08667 0.57178,0.71761 1.14356,1.43521 1.73267,2.17456 1.18576,1.48879 2.36877,2.97978 3.54907,4.4729 1.56799,1.97569 3.15172,3.93679 4.74561,5.8916 12.40625,15.24625 23.74214,30.85729 33.58642,47.88624 1.32829,2.28742 2.67829,4.56011 4.03858,6.82861 8.17361,13.65283 15.58696,27.54908 22.19293,42.03009 0.83148,1.81751 1.67637,3.62887 2.52142,5.44012 0.50161,1.11842 1.00321,2.23685 1.52002,3.38916 0.68389,1.50301 0.68389,1.50301 1.38159,3.03638 0.73169,2.66284 0.73169,2.66284 -0.0591,4.9187 -10.51269,15.16306 -31.22725,23.04317 -48.20923,27.74414 -0.79793,0.23848 -1.59586,0.47695 -2.41797,0.72266 -3.94274,1.11698 -6.66462,1.48501 -10.58203,0.27734 -6.99845,-5.49149 -12.52541,-13.05255 -18,-20 -0.79277,-0.98742 -1.58554,-1.97484 -2.40234,-2.99219 -8.47272,-10.73478 -15.7178,-22.20253 -22.77515,-33.90356 -7.98702,-13.21596 -14.90399,-24.59934 -27.7395,-33.60815 -4.42375,-3.17731 -8.70416,-6.55026 -13.02051,-9.8711 -5.25781,-4.03477 -10.48439,-8.04104 -16.0625,-11.625 3.96883,-8.94467 13.54684,-15.09465 21,-21 0.95391,-0.78246 1.90781,-1.56492 2.89063,-2.37109 13.01427,-10.4281 27.62909,-19.37138 43.10937,-25.62891 0.87399,-0.35965 1.74797,-0.71929 2.64844,-1.08984 6.22292,-2.34618 6.22292,-2.34618 10.35156,0.0898 z"
     fill="#020202"
     id="path8"
     style="fill:#ffffff;fill-opacity:1" />
  <path
     d="m 167.25979,540.26759 c 7.58256,-0.0379 14.6155,0.20538 21.97266,2.16797 1.34885,0.32206 2.69782,0.64363 4.04687,0.96484 14.79774,3.66811 27.85148,9.68388 39.95313,19.03516 0.91008,0.68449 1.82015,1.36899 2.75781,2.07422 6.96192,5.36524 6.96192,5.36524 9.24219,9.92578 -7.92,7.92 -15.84,15.84 -24,24 3.96505,7.31873 3.96505,7.31873 8.08984,14.54688 8.96612,15.54379 19.62852,42.15125 16.91016,60.45312 -14.72917,14.33998 -43.30175,17.39579 -62.75391,17.15405 -2.08226,-0.041 -4.16424,-0.0959 -6.24609,-0.15405 -4.37099,-7.64563 -8.70323,-15.31242 -13,-23 -0.67096,-1.19907 -0.67096,-1.19907 -1.35547,-2.42236 -6.03293,-10.87246 -11.28805,-22.08898 -16.45703,-33.39014 -0.32088,-0.69793 -0.64175,-1.39585 -0.97235,-2.11493 -15.0851,-32.89946 -15.0851,-32.89946 -9.09015,-50.19757 0.8445,-2.08067 1.74003,-4.1299 2.6626,-6.17724 1.2141,-2.70154 2.38257,-5.421 3.55127,-8.1424 1.1611,-2.6737 2.35907,-5.32977 3.56659,-7.98279 0.60203,-1.33415 1.19319,-2.67327 1.77307,-4.01721 4.6736,-10.75519 4.6736,-10.75519 8.49701,-12.61176 3.62221,-0.44457 7.20354,0.0847 10.8518,-0.11157 z"
     fill="#010101"
     id="path9"
     style="fill:#ffffff;fill-opacity:1" />
  <path
     d="m 252.23245,685.43556 c 3.14292,7.12589 5.84971,14.32506 8.375,21.6875 5.93017,17.28633 5.93017,17.28633 14.25,33.5 9.96282,16.44197 16.63408,40.58741 15.375,59.8125 -1.27413,4.5391 -2.27087,5.56732 -6.32422,7.97266 -5.57737,2.67361 -11.44999,3.73013 -17.48828,4.90234 -1.87873,0.37463 -1.87873,0.37463 -3.79541,0.75684 -4.12587,0.81543 -8.25792,1.59604 -12.39209,2.36816 -1.08344,0.20297 -1.08344,0.20297 -2.18878,0.41003 -24.31522,4.53795 -48.09742,7.68719 -72.87372,7.90247 -0.69192,0.01 -1.38385,0.0196 -2.09674,0.0297 -24.63291,0.29437 -24.63291,0.29437 -32.84076,-7.3422 -2.20955,-4.41909 -1.50606,-10.52114 -0.53906,-15.25781 5.02682,-15.08048 22.1298,-21.1902 35.17969,-27.95703 3.11918,-1.44743 3.11918,-1.44743 4.35937,-2.78516 8.97832,-0.88311 16.54055,2.02704 24,7 2.64633,-0.31217 2.64633,-0.31217 5,-1 -0.37459,-2.42201 -0.64347,-3.67978 -2.49609,-5.34375 -5.29783,-3.15525 -10.71687,-5.53354 -16.50391,-7.65625 0.29391,-0.58265 0.58781,-1.16531 0.89063,-1.76562 0.67781,-1.36518 1.32246,-2.7483 1.90625,-4.15625 1.19104,-2.28447 2.10661,-3.54461 4.20312,-5.07813 7.06186,-1.1357 13.30846,-0.37688 20,2 2.75065,0.16858 2.75065,0.16858 5,0 0.33,-1.65 0.66,-3.3 1,-5 -7.63546,-2.74049 -14.917,-3.63259 -23,-4 -0.20496,-0.89203 -0.40992,-1.78406 -0.62109,-2.70312 -0.26942,-1.17047 -0.53883,-2.34094 -0.81641,-3.54688 -0.26683,-1.16015 -0.53367,-2.32031 -0.80859,-3.51562 -0.56363,-2.41807 -1.14748,-4.82697 -1.75391,-7.23438 1.25297,-0.049 2.50594,-0.098 3.79688,-0.14844 1.65106,-0.075 3.3021,-0.15059 4.95312,-0.22656 0.825,-0.0309 1.65,-0.0619 2.5,-0.0937 0.79922,-0.0387 1.59844,-0.0773 2.42188,-0.11719 0.73315,-0.0314 1.46631,-0.0628 2.22168,-0.0952 2.35567,-0.35657 4.04095,-1.15548 6.10644,-2.31885 0,-1.65 0,-3.3 0,-5 -8.58,0 -17.16,0 -26,0 -1.32,-2.41312 -2.64,-4.82625 -4,-7.3125 -0.41765,-0.75579 -0.83531,-1.51158 -1.26562,-2.29028 -2.73438,-5.06388 -2.73438,-5.06388 -2.73438,-8.39722 1.27231,-0.0142 2.54461,-0.0284 3.85547,-0.043 21.55996,-0.48214 41.32438,-5.24081 60.02734,-16.20312 3.11719,-1.75391 3.11719,-1.75391 5.11719,-1.75391 z"
     fill="#030303"
     id="path10"
     style="fill:#ffffff;fill-opacity:1" />
  <path
     d="m 90.994172,181.83009 c 8.23836,5.90919 12.705818,13.72429 17.238278,22.60547 0.58008,1.12535 0.58008,1.12535 1.17188,2.27344 3.50799,8.37285 3.40666,19.899 0.62109,28.41797 -1.93706,3.99672 -3.72851,7.31949 -7,10.35937 -1.97602,1.77302 -1.97602,1.77302 -2.07031,4.0625 0.78757,5.09658 2.08139,9.22032 4.27734,13.88672 1.47456,4.86278 1.38167,9.83247 1.5,14.875 0.0812,1.47147 0.0812,1.47147 0.16407,2.97266 0.133,7.03978 0.133,7.03978 -2.01612,10.03955 -1.79747,1.59279 -3.59981,2.86126 -5.647946,4.11279 -0.575245,0.37528 -1.150489,0.75056 -1.743164,1.13721 -15.132799,9.49414 -32.966916,17.51316 -51.256837,14.86279 -2.25,-2.4375 -2.25,-2.4375 -4,-6 -1.557772,-1.50779 -3.168706,-2.96149 -4.8125,-4.375 -4.486572,-3.93478 -8.404542,-8.01966 -12.1875,-12.625 -0.635508,-0.74766 -1.271015,-1.49531 -1.925781,-2.26563 -11.181706,-13.46146 -22.0545206,-30.7697 -23.07421861,-48.73437 -0.06445,-1.02996 -0.128906,-2.05992 -0.195312,-3.12109 -0.577324,-17.26198 5.59282901,-31.15216 17.32031161,-43.69141 20.006425,-18.95636 49.98797,-24.06847 73.636719,-8.79297 z"
     fill="#020202"
     id="path11"
     style="fill:#ffffff;fill-opacity:1" />
  <path
     d="m 209.23245,130.43556 c 2.625,2.375 2.625,2.375 5,5 0.51949,0.50403 1.03899,1.00805 1.57422,1.52735 16.58442,17.03163 20.46045,44.64922 23.99219,67.08984 0.68443,3.76129 1.95435,7.2446 3.43359,10.75781 0,4.58865 -3.10387,7.27392 -6,10.625 -0.75539,0.92297 -1.51078,1.84594 -2.28906,2.79688 -10.32815,12.0443 -23.82744,21.80783 -39.21094,26.20312 -2.5,0 -2.5,0 -3.92968,-1.39844 -0.51821,-0.52851 -1.03641,-1.05703 -1.57032,-1.60156 -1.19625,-0.53625 -2.3925,-1.0725 -3.625,-1.625 -6.36389,-3.07705 -11.36178,-8.32763 -15.23047,-14.18359 -1.89158,-2.84344 -3.47602,-5.04865 -6.14453,-7.19141 -3.65126,-0.54077 -6.92095,-0.3762 -10.59765,-0.10937 -4.97704,0.15999 -8.2392,-1.3119 -12.40235,-3.89063 -0.67418,-0.4009 -1.34836,-0.80179 -2.04297,-1.21484 -9.51867,-6.35192 -14.7438,-16.45956 -18.95703,-26.78516 -0.31968,-0.61746 -0.63937,-1.23492 -0.96875,-1.87109 -5.2205,-10.85188 -2.4042,-25.29834 1.36328,-36.1836 6.26069,-16.26915 19.97185,-28.32131 35.63282,-35.29296 18.68499,-7.15105 36.24188,-4.83311 51.97265,7.34765 z"
     fill="#020101"
     id="path12"
     style="fill:#ffffff;fill-opacity:1" />
  <path
     d="m 583.23245,668.43556 c 3,1 3,1 4.5271,3.45484 0.8045,1.62917 0.8045,1.62917 1.62525,3.29126 0.4443,0.89115 0.4443,0.89115 0.89758,1.8003 0.97272,1.95885 1.93028,3.92468 2.88757,5.8911 0.67207,1.3616 1.34468,2.72292 2.01782,4.08399 4.3133,8.75812 8.43546,17.59411 12.48218,26.47851 8.63374,18.85109 18.12778,34.81639 34.72656,47.69141 12.12987,9.87431 21.44371,20.12995 24.52344,35.80859 1.14934,12.87263 1.14934,12.87263 -2.6875,18.5 -13.85228,13.25001 -38.27483,10.41305 -56.04004,10.09326 -12.98179,-0.40903 -29.62805,-2.19783 -38.95996,-12.09326 -5.68503,-6.15641 -5.48285,-13.20833 -5.6958,-21.13574 -0.21803,-7.84619 -1.23084,-15.29962 -2.89355,-22.96485 -0.37273,-1.72403 -0.70828,-3.45599 -1.03955,-5.18847 -4.90645,-21.11571 -19.3561,-45.28392 -33.12842,-61.82104 -0.41008,-0.62367 -0.82017,-1.24733 -1.24268,-1.8899 0.495,-1.485 0.495,-1.485 1,-3 2.50495,-0.81991 4.87196,-1.45007 7.4375,-2 10.00728,-2.2557 19.0346,-4.75717 27.9375,-10 0.81638,-0.47478 1.63276,-0.94955 2.47388,-1.43872 7.25948,-4.36113 13.26414,-9.48629 19.15112,-15.56128 z"
     fill="#040303"
     id="path13"
     style="fill:#ffffff;fill-opacity:1" />
  <path
     d="m 125.23245,332.43556 c 6.38302,10.94794 12.61229,21.96416 18.5,33.1875 0.73719,1.39521 0.73719,1.39521 1.48926,2.81861 4.67658,8.99137 8.78256,17.05843 8.63574,27.36889 -0.009,0.82218 -0.0182,1.64436 -0.0276,2.49146 -0.36693,9.76727 -3.85711,16.86534 -10.90991,23.63354 -5.80576,4.7013 -12.17376,7.88664 -19.6875,8.5 -0.73863,0.0632 -1.47726,0.12633 -2.23828,0.19141 -9.35409,0.45097 -16.00883,-2.36065 -23.011718,-8.50391 -1.601509,-1.54386 -3.186561,-3.10509 -4.75,-4.6875 -0.883652,-0.85078 -0.883652,-0.85078 -1.785156,-1.71875 -3.901858,-4.0715 -5.847645,-8.59292 -7.84375,-13.82812 -1.142277,-2.87685 -2.380615,-5.64023 -3.691406,-8.44141 -3.058635,-6.6772 -5.536046,-13.532 -7.992188,-20.44922 -0.458713,-1.26507 -0.917696,-2.53004 -1.376953,-3.79492 -0.428613,-1.20076 -0.857227,-2.40152 -1.298828,-3.63867 -0.387122,-1.08209 -0.774243,-2.16418 -1.173096,-3.27905 -0.838623,-2.84986 -0.838623,-2.84986 -0.838623,-6.84986 1.111172,-0.10957 2.222344,-0.21914 3.367188,-0.33203 8.153995,-0.8489 15.914522,-1.76091 23.632812,-4.66797 0.928125,-0.32613 1.85625,-0.65226 2.8125,-0.98828 8.971518,-3.39936 17.651928,-8.42102 24.437498,-15.28906 1.75,-1.72266 1.75,-1.72266 3.75,-1.72266 z"
     fill="#030303"
     id="path14"
     style="fill:#ffffff;fill-opacity:1" />
  <path
     d="m 249.23245,222.43556 c 0.66,0 1.32,0 2,0 1.83122,2.13044 3.55188,4.26704 5.25,6.5 0.73718,0.96088 0.73718,0.96088 1.48926,1.94116 0.97696,1.27441 1.95194,2.55034 2.92481,3.82789 1.1148,1.44443 2.2678,2.85927 3.42968,4.26611 0.54657,0.66902 1.09313,1.33805 1.65625,2.02734 0.46922,0.55817 0.93844,1.11633 1.42188,1.69141 1.21577,2.56345 0.65235,4.08069 -0.17188,6.74609 -7.91921,16.30794 -25.12937,27.48515 -41.28125,34.22266 -3.28021,0.93788 -5.32728,1.36566 -8.71875,0.77734 -2.50569,-1.89575 -4.46664,-4.17898 -6.5,-6.5625 -0.54269,-0.60908 -1.08539,-1.21816 -1.64453,-1.8457 -1.63834,-1.84754 -3.24632,-3.71883 -4.85547,-5.5918 -0.57492,-0.64566 -1.14984,-1.29132 -1.74218,-1.95654 -0.54915,-0.62149 -1.09829,-1.24298 -1.66407,-1.8833 -0.74733,-0.83906 -0.74733,-0.83906 -1.50976,-1.69507 -1.08399,-1.46509 -1.08399,-1.46509 -1.08399,-3.46509 0.81082,-0.29133 1.62164,-0.58265 2.45703,-0.88281 19.49946,-7.21866 35.81082,-18.53571 47.16797,-36.28125 0.45375,-0.60586 0.9075,-1.21172 1.375,-1.83594 z"
     fill="#050505"
     id="path15"
     style="fill:#ffffff;fill-opacity:1" />
  <path
     d="m 110.23245,295.43556 c 4.092,3.60055 5.3643,8.39137 7.25,13.375 0.37641,0.94617 0.75281,1.89235 1.14063,2.86719 0.35062,0.91781 0.70125,1.83562 1.0625,2.78125 0.3213,0.83451 0.6426,1.66901 0.97363,2.52881 0.668,2.85237 0.38536,4.6533 -0.42676,7.44775 -4.7434,7.25367 -13.55583,11.08967 -20.999998,15 -0.750234,0.41379 -1.500469,0.82758 -2.273438,1.25391 -9.552634,4.81407 -25.143295,9.04051 -35.726562,6.74609 -1.9375,-1.875 -1.9375,-1.875 -3,-5 -0.619259,-1.54398 -1.244939,-3.08539 -1.875,-4.625 -0.332578,-0.85851 -0.665156,-1.71703 -1.007812,-2.60156 -1.575076,-3.91015 -3.366383,-7.71149 -5.164063,-11.52344 -0.953125,-2.25 -0.953125,-2.25 -0.953125,-4.25 1.527539,-0.004 1.527539,-0.004 3.085938,-0.008 20.358974,-0.40875 41.760053,-8.22281 56.54297,-22.5586 0.45246,-0.47309 0.90492,-0.94618 1.37109,-1.4336 z"
     fill="#070707"
     id="path16"
     style="fill:#ffffff;fill-opacity:1" />
  <path
     d="m 523.23245,31.435562 c 5.18651,5.186513 3.22736,24.700027 3.25,31.6875 -0.0375,9.2671 -0.83882,18.158896 -2.25,27.3125 -0.38709,2.831764 -0.75496,5.665965 -1.125,8.5 -0.29099,2.166758 -0.58239,4.333458 -0.875,6.499998 -1.65614,0.38219 -3.32457,0.71395 -5,1 -1,-1 -1,-1 -1.08229,-3.92958 0.02,-1.31238 0.04,-2.624762 0.0606,-3.976912 0.01,-0.72191 0.0192,-1.443821 0.0291,-2.187607 0.0331,-2.397114 0.0734,-4.794052 0.11371,-7.191055 0.0243,-1.657663 0.0481,-3.315332 0.0715,-4.973007 0.063,-4.37144 0.13199,-8.742763 0.20226,-13.11409 0.0706,-4.457242 0.13546,-8.914567 0.20081,-13.371888 0.12915,-8.752044 0.26473,-17.503974 0.40429,-26.255859 2.50251,-1.251254 3.40299,-0.837746 6,0 z"
     fill="#DDDDDD"
     id="path17"
     style="fill:#ffffff;fill-opacity:1" />
  <path
     d="m 619.23245,747.43556 c 0.66,0.66 1.32,1.32 2,2 -0.53571,3.53572 -0.53571,3.53572 -2,5 -1.72722,0.22385 -3.45696,0.4284 -5.1875,0.625 -6.76581,1.03716 -11.86403,3.64893 -17.78125,6.91407 -3.03125,1.46093 -3.03125,1.46093 -7.03125,1.46093 -0.33,-1.98 -0.66,-3.96 -1,-6 9.27913,-6.87342 19.14761,-11.79772 31,-10 z"
     fill="#EDEDED"
     id="path18"
     style="fill:#ffffff;fill-opacity:1" />
  <path
     d="m 590.23245,696.43556 c 1,1 1,1 1.46485,3.27735 -0.46485,2.72265 -0.46485,2.72265 -3.21094,5.03906 -1.21776,0.7692 -2.44924,1.51697 -3.69141,2.24609 -0.638,0.38914 -1.27601,0.77827 -1.93335,1.1792 -12.39718,7.4405 -12.39718,7.4405 -17.69165,7.0083 -0.63937,-0.2475 -1.27875,-0.495 -1.9375,-0.75 0,-1.98 0,-3.96 0,-6 1.62809,-0.79664 1.62809,-0.79664 3.28907,-1.60937 1.44541,-0.71333 2.89072,-1.42688 4.33593,-2.14063 0.71285,-0.34804 1.42571,-0.69609 2.16016,-1.05469 3.32957,-1.64951 6.50635,-3.32155 9.5625,-5.4414 2.89167,-1.91217 4.26054,-2.23845 7.65234,-1.75391 z"
     fill="#E9E9E9"
     id="path19"
     style="fill:#ffffff;fill-opacity:1" />
  <path
     d="m 604.23245,722.43556 c 0.33,1.65 0.66,3.3 1,5 -4.28067,3.15418 -8.50127,5.1027 -13.46875,6.98047 -2.40875,0.97019 -4.62628,2.09421 -6.90625,3.33203 -3.69875,1.72184 -4.08358,1.89658 -7.625,0.6875 -0.6875,-2.3125 -0.6875,-2.3125 -1,-5 2.36805,-3.23149 5.80039,-4.46333 9.375,-6.0625 1.12149,-0.5066 2.24297,-1.0132 3.39844,-1.53515 1.06477,-0.46278 2.12953,-0.92555 3.22656,-1.40235 1.32451,-0.58201 1.32451,-0.58201 2.67578,-1.17578 3.15131,-1.11752 6.01076,-0.95416 9.32422,-0.82422 z"
     fill="#E7E7E7"
     id="path20"
     style="fill:#ffffff;fill-opacity:1" />
  <path
     d="m 898.23245,103.43556 c 5.58531,0.48128 10.59736,1.45639 16,3 1.51784,0.19207 3.03921,0.35759 4.5625,0.5 3.70951,0.34936 6.94195,1.15556 10.4375,2.5 0,0.66 0,1.32 0,2 -16.01071,-1.56787 -32.00603,-3.27026 -48,-5 0,-0.33 0,-0.66 0,-1 5.94,0 11.88,0 18,0 -0.33,-0.66 -0.66,-1.32 -1,-2 z"
     fill="#3C3D3D"
     id="path21"
     style="fill:#ffffff;fill-opacity:1" />
  <path
     d="m 832.23245,136.43556 c 9.15049,2.56304 18.06006,5.79531 27,9 0,0.33 0,0.66 0,1 -7.4045,-0.74595 -14.71895,-1.86329 -22.0625,-3.0625 -1.15177,-0.18627 -2.30355,-0.37254 -3.49023,-0.56445 -2.81608,-0.45572 -5.63182,-0.91344 -8.44727,-1.37305 0,-0.33 0,-0.66 0,-1 1.98,0 3.96,0 6,0 0.33,-1.32 0.66,-2.64 1,-4 z"
     fill="#2D2E2E"
     id="path22"
     style="fill:#ffffff;fill-opacity:1" />
  <path
     d="m 279.23245,462.43556 c 6.58606,2.63875 12.94521,5.28456 19,9 -0.66,0.66 -1.32,1.32 -2,2 -1.9375,-0.375 -1.9375,-0.375 -4,-1 -0.99,0 -1.98,0 -3,0 -2.48047,-1.67969 -2.48047,-1.67969 -5.1875,-3.875 -0.90105,-0.71929 -1.80211,-1.43859 -2.73047,-2.17969 -0.68707,-0.64195 -1.37414,-1.2839 -2.08203,-1.94531 0,-0.66 0,-1.32 0,-2 z"
     fill="#D3D3D3"
     id="path23"
     style="fill:#ffffff;fill-opacity:1" />
  <path
     d="m 714.23245,60.435562 c -3.82517,2.390735 -7.59665,2.559666 -12,3 0,0.99 0,1.98 0,3 -1.7507,-0.114701 -3.50057,-0.24219 -5.25,-0.375 -0.97453,-0.06961 -1.94906,-0.139219 -2.95312,-0.210937 -2.69321,-0.398715 -4.46651,-1.049133 -6.79688,-2.414063 8.71163,-2.969874 17.86292,-3.175713 27,-3 z"
     fill="#BEBFBE"
     id="path24"
     style="fill:#ffffff;fill-opacity:1" />
  <path
     d="m 879.23245,51.435562 c 2.04191,0.142389 4.08352,0.28907 6.125,0.4375 1.70543,0.121817 1.70543,0.121817 3.44531,0.246094 3.18374,0.293716 6.2848,0.747649 9.42969,1.316406 0,0.33 0,0.66 0,1 -6.93,0 -13.86,0 -21,0 0.66,-0.99 1.32,-1.98 2,-3 z"
     fill="#151515"
     id="path25"
     style="fill:#ffffff;fill-opacity:1" />
  <path
     d="m 345.23245,275.43556 c 3.19838,1.59919 4.15922,4.84724 5.6875,7.9375 0.33323,0.64647 0.66645,1.29293 1.00977,1.95899 0.83395,1.66963 1.57561,3.38466 2.30273,5.10351 -0.33,0.66 -0.66,1.32 -1,2 -1.5,-1.375 -1.5,-1.375 -3,-3 0,-0.66 0,-1.32 0,-2 -0.99,0 -1.98,0 -3,0 -0.66,-3.96 -1.32,-7.92 -2,-12 z"
     fill="#2C2D2D"
     id="path26"
     style="fill:#ffffff;fill-opacity:1" />
  <path
     d="m 841.23245,139.43556 c 5.94,1.98 11.88,3.96 18,6 0,0.33 0,0.66 0,1 -6.68993,-0.53951 -12.6346,-1.88706 -19,-4 0.33,-0.99 0.66,-1.98 1,-3 z"
     fill="#232424"
     id="path27"
     style="fill:#ffffff;fill-opacity:1" />
  <path
     d="m 239.23245,222.43556 c 0,3.69835 -0.81364,4.27082 -3.25,6.9375 -0.63551,0.69996 -1.27101,1.39992 -1.92578,2.1211 -1.90149,2.02364 -3.82082,4.01814 -5.82422,5.9414 -0.66,-0.33 -1.32,-0.66 -2,-1 0.43571,-0.4241 0.87141,-0.8482 1.32031,-1.28515 4.12978,-4.0672 7.9601,-8.26949 11.67969,-12.71485 z"
     fill="#E0DEE0"
     id="path28"
     style="fill:#ffffff;fill-opacity:1" />
  <path
     d="m 502.23245,117.43556 c 0.66,0.33 1.32,0.66 2,1 -1.24518,1.13034 -2.49636,2.25405 -3.75,3.375 -0.69609,0.62649 -1.39219,1.25297 -2.10937,1.89844 -1.98571,1.60161 -3.82017,2.69176 -6.14063,3.72656 0,-0.99 0,-1.98 0,-3 2.1875,-1.82422 2.1875,-1.82422 5,-3.6875 1.39219,-0.93392 1.39219,-0.93392 2.8125,-1.88672 1.08281,-0.70576 1.08281,-0.70576 2.1875,-1.42578 z"
     fill="#E3E3E4"
     id="path29"
     style="fill:#ffffff;fill-opacity:1" />
  <path
     d="m 104.23245,243.43556 c 0,3 0,3 -1,5 0.20625,0.61875 0.4125,1.2375 0.625,1.875 0.375,2.125 0.375,2.125 -1.0625,4.375 -0.51562,0.5775 -1.03125,1.155 -1.5625,1.75 -0.59223,-3.01264 -1.05823,-5.92417 -1,-9 1.9375,-2.5625 1.9375,-2.5625 4,-4 z"
     fill="#CFCED0"
     id="path30"
     style="fill:#ffffff;fill-opacity:1" />
  <path
     d="m 107.23245,172.43556 c 0.33,0 0.66,0 1,0 0,3.96 0,7.92 0,12 -1.65,-1.65 -3.3,-3.3 -5,-5 0.47438,-0.4125 0.94875,-0.825 1.4375,-1.25 1.72517,-1.93218 2.12835,-3.23192 2.5625,-5.75 z"
     fill="#0E0E0E"
     id="path31"
     style="fill:#ffffff;fill-opacity:1" />
  <path
     d="m 433.91604,114.43947 c 0.68192,0.0812 1.36383,0.16242 2.06641,0.2461 1.04607,0.0986 1.04607,0.0986 2.11328,0.19921 1.71419,0.16438 3.42583,0.35501 5.13672,0.55079 0,0.33 0,0.66 0,1 -1.03641,0.0606 -2.07281,0.12117 -3.14063,0.18359 -1.3698,0.0844 -2.73959,0.16909 -4.10937,0.25391 -1.02287,0.059 -1.02287,0.059 -2.06641,0.11914 -3.32807,0.21002 -6.48615,0.4627 -9.68359,1.44336 2.90068,-3.85761 4.90694,-4.41347 9.68359,-3.9961 z"
     fill="#171717"
     id="path32"
     style="fill:#ffffff;fill-opacity:1" />
  <path
     d="m 242.23245,311.43556 c 4.50884,2.31883 6.93907,5.06452 10,9 -3,0 -3,0 -4.82422,-1.46094 -0.61488,-0.63164 -1.22976,-1.26328 -1.86328,-1.91406 -0.62261,-0.62648 -1.24523,-1.25297 -1.88672,-1.89844 -1.42578,-1.72656 -1.42578,-1.72656 -1.42578,-3.72656 z"
     fill="#EBEAEB"
     id="path33"
     style="fill:#ffffff;fill-opacity:1" />
  <path
     d="m 523.23245,90.435562 c 0.33,0 0.66,0 1,0 0.33,3.96 0.66,7.92 1,11.999998 -0.99,0.66 -1.98,1.32 -3,2 -0.0833,-4.833345 0.0474,-9.236923 1,-13.999998 z"
     fill="#373737"
     id="path34"
     style="fill:#ffffff;fill-opacity:1" />
  <path
     d="m 110.23245,295.43556 c 2.89933,2.3951 3.50169,4.31245 4,8 -0.66,-0.33 -1.32,-0.66 -2,-1 0,-0.99 0,-1.98 0,-3 -0.59812,0.35063 -1.19625,0.70125 -1.8125,1.0625 -2.1875,0.9375 -2.1875,0.9375 -5.1875,-0.0625 1.65,-1.65 3.3,-3.3 5,-5 z"
     fill="#2D2D2E"
     id="path35"
     style="fill:#ffffff;fill-opacity:1" />
  <path
     d="m 109.23245,343.43556 c 0.66,0.33 1.32,0.66 2,1 -6.63359,5.87977 -6.63359,5.87977 -10,6 -0.66,-0.66 -1.319998,-1.32 -1.999998,-2 1.619918,-0.86376 3.246118,-1.71576 4.874998,-2.5625 0.90492,-0.47566 1.80985,-0.95133 2.74219,-1.4414 1.17949,-0.49307 1.17949,-0.49307 2.38281,-0.9961 z"
     fill="#1D1D1D"
     id="path36"
     style="fill:#ffffff;fill-opacity:1" />
  <path
     d="m 232.23245,128.43556 c -1.24546,3.73639 -2.63405,4.18757 -6,6 -0.66,-1.32 -1.32,-2.64 -2,-4 2.906,-1.25665 4.79605,-2 8,-2 z"
     fill="#1B1A1B"
     id="path37"
     style="fill:#ffffff;fill-opacity:1" />
  <path
     d="m 288.23245,467.43556 c 4.40115,0.50299 6.71195,2.08773 10,5 -1.65,0.33 -3.3,0.66 -5,1 0,-0.99 0,-1.98 0,-3 -1.65,-0.33 -3.3,-0.66 -5,-1 0,-0.66 0,-1.32 0,-2 z"
     fill="#E0DFDF"
     id="path38"
     style="fill:#ffffff;fill-opacity:1" />
  <path
     d="m 495.23245,508.43556 c 0.33,0.66 0.66,1.32 1,2 -0.99,0 -1.98,0 -3,0 -0.33,0.99 -0.66,1.98 -1,3 -2.31,-0.33 -4.62,-0.66 -7,-1 0,-0.33 0,-0.66 0,-1 4.95,-1.485 4.95,-1.485 10,-3 z m -8,5 c 2,1 2,1 2,1 z"
     fill="#C7C7C7"
     id="path39"
     style="fill:#ffffff;fill-opacity:1" />
  <path
     d="m 123.23245,332.43556 c 0.66,0.33 1.32,0.66 2,1 -4.30769,5.78462 -4.30769,5.78462 -7.8125,6.875 -1.08281,0.0619 -1.08281,0.0619 -2.1875,0.125 2.66667,-2.66666 5.33334,-5.33333 8,-8 z"
     fill="#262627"
     id="path40"
     style="fill:#ffffff;fill-opacity:1" />
  <path
     d="m 550.23245,692.43556 c -2.71182,2.60335 -3.89134,2.99457 -7.75,3.1875 -1.0725,-0.0619 -2.145,-0.12375 -3.25,-0.1875 7.28572,-4.85714 7.28572,-4.85714 11,-3 z m -6,3 c 2,1 2,1 2,1 z"
     fill="#404141"
     id="path41"
     style="fill:#ffffff;fill-opacity:1" />
  <path
     d="m 137.23245,577.43556 c 0.66,0 1.32,0 2,0 -0.33,2.64 -0.66,5.28 -1,8 -0.99,0.33 -1.98,0.66 -3,1 0.66,-2.97 1.32,-5.94 2,-9 z"
     fill="#141414"
     id="path42"
     style="fill:#ffffff;fill-opacity:1" />
  <path
     d="m 141.23245,798.43556 c 1.1875,1.6875 1.1875,1.6875 2,4 -1.375,2.75 -1.375,2.75 -3,5 -1.25541,-3.76624 -0.37062,-5.37189 1,-9 z"
     fill="#1B1C1B"
     id="path43"
     style="fill:#ffffff;fill-opacity:1" />
  <path
     d="m 420.23245,108.43556 c 0.33,0.66 0.66,1.32 1,2 -1.61869,3.23739 -4.84489,4.42245 -8,6 1.49098,-3.79521 3.75701,-5.61043 7,-8 z"
     fill="#ECECED"
     id="path44"
     style="fill:#ffffff;fill-opacity:1" />
  <path
     d="m 277.23245,746.43556 c 1.523,2.93721 2.80101,5.91687 4,9 -0.99,0 -1.98,0 -3,0 -1.47832,-2.95664 -1.06033,-5.7423 -1,-9 z"
     fill="#333333"
     id="path45"
     style="fill:#ffffff;fill-opacity:1" />
  <path
     d="m 232.23245,694.43556 c 0.66,0.33 1.32,0.66 2,1 -6.75,4 -6.75,4 -9,4 0,-0.66 0,-1.32 0,-2 2.30369,-1.06652 4.64018,-2.06421 7,-3 z"
     fill="#373837"
     id="path46"
     style="fill:#ffffff;fill-opacity:1" />
  <path
     d="m 348.23245,287.43556 c 0.66,0 1.32,0 2,0 1.125,2.3125 1.125,2.3125 2,5 -0.99,1.485 -0.99,1.485 -2,3 0,-0.99 0,-1.98 0,-3 -0.66,0 -1.32,0 -2,0 0,-1.65 0,-3.3 0,-5 z"
     fill="#0D0D0D"
     id="path47"
     style="fill:#ffffff;fill-opacity:1" />
  <path
     d="m 348.23245,285.43556 c 0.99,0 1.98,0 3,0 1.75,2.375 1.75,2.375 3,5 -0.33,0.66 -0.66,1.32 -1,2 -1.5,-1.375 -1.5,-1.375 -3,-3 0,-0.66 0,-1.32 0,-2 -0.66,0 -1.32,0 -2,0 0,-0.66 0,-1.32 0,-2 z"
     fill="#252526"
     id="path48"
     style="fill:#ffffff;fill-opacity:1" />
  <path
     d="m 118.23245,237.43556 c 0.66,0.66 1.32,1.32 2,2 -0.375,2.625 -0.375,2.625 -1,5 -0.99,0 -1.98,0 -3,0 0.66,-2.31 1.32,-4.62 2,-7 z"
     fill="#1F2020"
     id="path49"
     style="fill:#ffffff;fill-opacity:1"
     inkscape:export-filename="path49.svg"
     inkscape:export-xdpi="96"
     inkscape:export-ydpi="96" />
</svg>
