<svg width="139.675" xmlns="http://www.w3.org/2000/svg" height="139.621" id="screenshot-8a45f9ab-8bef-804e-8007-ff221da4be7d" viewBox="0 0 139.675 139.621" xmlns:xlink="http://www.w3.org/1999/xlink" fill="none" version="1.1"><g id="shape-8a45f9ab-8bef-804e-8007-ff221da4be7d" width="1254" height="1254" rx="0" ry="0" style="fill: rgb(0, 0, 0);"><g id="shape-8a45f9ab-8bef-804e-8007-ff221da6a7ac"><g class="fills" id="fills-8a45f9ab-8bef-804e-8007-ff221da6a7ac"><path d="M46.08306121826172,47.28011703491211C46.53148651123047,47.44906234741211,46.64208221435547,47.597896575927734,46.87395477294922,47.948360443115234C46.94591522216797,48.054805755615234,47.01787567138672,48.161312103271484,47.09197235107422,48.270992279052734C47.16448211669922,48.38277816772461,47.23699188232422,48.494625091552734,47.31157684326172,48.609798431396484C47.38683319091797,48.722225189208984,47.46208953857422,48.83462142944336,47.53972625732422,48.950435638427734C47.72509002685547,49.227962493896484,47.90764617919922,49.506771087646484,48.08965301513672,49.785823822021484C48.19969940185547,49.764522552490234,48.30980682373047,49.743221282958984,48.42339324951172,49.72127914428711C50.00243377685547,49.449581146240234,51.54113006591797,49.459896087646484,53.14421844482422,49.482540130615234C53.43975067138672,49.485713958740234,53.73516082763672,49.488765716552734,54.03069305419922,49.49166488647461C54.64995574951172,49.498165130615234,55.26909637451172,49.50576400756836,55.88823699951172,49.51418685913086C56.66332244873047,49.52468490600586,57.43846893310547,49.532772064208984,58.21367645263672,49.540096282958984C61.24394989013672,49.56942367553711,64.26781463623047,49.62618637084961,67.29259490966797,49.783504486083984C67.41539764404297,49.789791107177734,67.53826141357422,49.79604721069336,67.66478729248047,49.802486419677734C69.65837860107422,49.906368255615234,69.65837860107422,49.906368255615234,69.87572479248047,50.08218002319336C70.22515106201172,54.93734359741211,68.98625946044922,59.69210433959961,66.82933807373047,64.19241333007812C66.73448944091797,64.39047241210938,66.64019012451172,64.588623046875,66.54607391357422,64.78680419921875C66.50115203857422,64.88070678710938,66.45616912841797,64.97470092773438,66.40996551513672,65.07156372070312C65.98760223388672,65.98068237304688,65.70659637451172,66.910400390625,65.43816375732422,67.8558349609375C65.29875946044922,68.30551147460938,65.29875946044922,68.30551147460938,65.11565399169922,68.45367431640625C64.85796356201172,68.47457885742188,64.59929656982422,68.48583984375,64.34056854248047,68.49298095703125C64.17516326904297,68.49798583984375,64.01000213623047,68.5029296875,63.83965301513672,68.508056640625C63.65880584716797,68.51284790039062,63.47771453857422,68.517578125,63.29143524169922,68.52255249023438C62.90654754638672,68.53424072265625,62.52165985107422,68.54586791992188,62.13677215576172,68.55755615234375C61.53148651123047,68.5750732421875,60.92632293701172,68.59228515625,60.32103729248047,68.60916137695312C57.87529754638672,68.678466796875,55.45970916748047,68.78848266601562,53.03270721435547,69.04632568359375C52.85106658935547,69.06475830078125,52.66918182373047,69.083251953125,52.48210906982422,69.10226440429688C49.31328582763672,69.37896728515625,49.31328582763672,69.37896728515625,46.80815887451172,70.82421875C45.54369354248047,72.35244750976562,45.36254119873047,74.45150756835938,45.04656219482422,76.23526000976562C44.96977996826172,76.64297485351562,44.87932586669922,77.0482177734375,44.79009246826172,77.45425415039062C44.58983612060547,78.41744995117188,44.50365447998047,79.3785400390625,44.42815399169922,80.35256958007812C44.30846405029297,81.77963256835938,44.15392303466797,83.18966674804688,43.87895965576172,84.60284423828125C42.43663787841797,85.14105224609375,40.77391815185547,85.29537963867188,39.22582244873047,85.53689575195312C38.79320526123047,85.6048583984375,38.36107635498047,85.67465209960938,37.92931365966797,85.74642944335938C34.68590545654297,86.27804565429688,31.55352020263672,86.44918823242188,28.24889373779297,86.445556640625C28.06713104248047,86.445556640625,27.88530731201172,86.44561767578125,27.69811248779297,86.44561767578125C25.37963104248047,86.441162109375,23.10936737060547,86.33425903320312,20.81139373779297,86.08444213867188C20.79045867919922,82.68582153320312,20.81163787841797,79.29104614257812,20.91619110107422,75.89340209960938C20.97350311279297,73.99020385742188,21.00212860107422,72.08786010742188,21.00023651123047,70.18411254882812C21.00005340576172,70.08139038085938,21.00005340576172,69.9786376953125,20.99987030029297,69.872802734375C20.99858856201172,68.75543212890625,20.99425506591797,67.63815307617188,20.98772430419922,66.520751953125C20.98699188232422,66.3328857421875,20.98613739013672,66.14498901367188,20.98528289794922,65.951416015625C20.98381805419922,65.59933471679688,20.98155975341797,65.24725341796875,20.97838592529297,64.89511108398438C20.97594451904297,64.22824096679688,20.97606658935547,63.58755111694336,21.11357879638672,62.92910385131836C21.18840789794922,62.28664779663086,21.02227020263672,61.81179428100586,20.74852752685547,61.220027923583984C20.68035125732422,61.06240463256836,20.68035125732422,61.06240463256836,20.61089324951172,60.901546478271484C20.46703338623047,60.56911849975586,20.31926727294922,60.237911224365234,20.17064666748047,59.906856536865234C20.02233123779297,59.574092864990234,19.87499237060547,59.241146087646484,19.73033905029297,58.907344818115234C19.64067840576172,58.70058822631836,19.54894256591797,58.494441986083984,19.45482635498047,58.288997650146484C19.20653533935547,57.71877670288086,19.11858367919922,57.330867767333984,19.34685516357422,56.749202728271484C19.51158905029297,56.72573471069336,19.67632293701172,56.70223617553711,19.84600067138672,56.67806625366211C20.50646209716797,56.581111907958984,21.16558074951172,56.47988510131836,21.82439422607422,56.37563705444336C22.12023162841797,56.329219818115234,22.41631317138672,56.28384017944336,22.71276092529297,56.23965072631836C30.61522674560547,55.04513168334961,38.17052459716797,51.99422836303711,44.54320526123047,48.10232162475586C44.64916229248047,48.037654876708984,44.75499725341797,47.97304916381836,44.86412811279297,47.906490325927734C45.17284393310547,47.71572494506836,45.17284393310547,47.71572494506836,45.42790985107422,47.45571517944336C45.70964813232422,47.26717758178711,45.70964813232422,47.26717758178711,46.08306121826172,47.28011703491211Z" style="fill: rgb(255, 255, 255);"/></g></g><g id="shape-8a45f9ab-8bef-804e-8007-ff221da6c32d"><g class="fills" id="fills-8a45f9ab-8bef-804e-8007-ff221da6c32d"><path d="M31.97905731201172,25.488018035888672C32.16027069091797,25.639278411865234,32.16027069091797,25.639278411865234,32.34508514404297,25.793575286865234C32.43029022216797,25.86043930053711,32.51549530029297,25.927257537841797,32.60332489013672,25.996135711669922C32.80602264404297,26.158214569091797,33.00164031982422,26.326274871826172,33.19121551513672,26.49850082397461C33.99040985107422,27.163387298583984,34.47997283935547,27.302669525146484,35.62902069091797,27.330699920654297C36.75188446044922,27.416912078857422,36.75188446044922,27.416912078857422,37.17217254638672,27.775707244873047C37.65660858154297,28.355937957763672,38.00786590576172,28.991741180419922,38.37529754638672,29.623882293701172C38.95348358154297,30.542369842529297,39.79589080810547,31.388545989990234,40.71794891357422,32.09318161010742C41.14794158935547,32.46450424194336,41.23375701904297,32.55588912963867,41.22435760498047,33.04404830932617C41.34178924560547,34.58822250366211,42.34990692138672,36.28329086303711,43.60295867919922,37.4459342956543C43.89476776123047,37.67216110229492,43.89476776123047,37.67216110229492,44.42815399169922,37.78507614135742C44.78203582763672,38.31698226928711,44.82817840576172,38.710201263427734,44.74858856201172,39.30369186401367C44.72893524169922,39.45858383178711,44.70940399169922,39.61347579956055,44.68914031982422,39.773067474365234C44.63292694091797,40.15635299682617,44.57512664794922,40.53939437866211,44.51616668701172,40.922420501708984C44.09386444091797,43.2253532409668,44.09386444091797,43.2253532409668,44.67424774169922,45.46438217163086C44.83782196044922,45.902095794677734,44.86901092529297,46.21920394897461,44.79430389404297,46.67452621459961C41.73278045654297,49.59133529663086,36.08312225341797,51.39706039428711,31.87425994873047,52.887264251708984C31.57726287841797,52.992855072021484,31.28112030029297,53.099849700927734,30.98577117919922,53.208248138427734C29.81566619873047,53.63729476928711,28.63646697998047,53.942745208740234,27.40215301513672,54.23055648803711C27.28203582763672,54.259029388427734,27.16191864013672,54.28750228881836,27.03813934326172,54.316768646240234C25.34813690185547,54.71603012084961,23.64855194091797,55.068904876708984,21.93273162841797,55.388057708740234C21.75969696044922,55.420467376708984,21.58654022216797,55.452938079833984,21.40831756591797,55.486385345458984C21.16448211669922,55.530818939208984,21.16448211669922,55.530818939208984,20.91576385498047,55.57613754272461C20.69994354248047,55.615596771240234,20.69994354248047,55.615596771240234,20.47972869873047,55.65591049194336C20.07921600341797,55.712154388427734,20.07921600341797,55.712154388427734,19.34685516357422,55.712154388427734C19.28252410888672,55.59841537475586,19.21837615966797,55.48470687866211,19.15221405029297,55.367610931396484C18.84459686279297,54.82455062866211,18.53539276123047,54.28200912475586,18.22545623779297,53.73977279663086C18.16899871826172,53.64077377319336,18.11241912841797,53.54183578491211,18.05431365966797,53.439815521240234C17.41063690185547,52.31472396850586,16.75194549560547,51.19894027709961,16.03643035888672,50.10238265991211C15.976737976074219,50.01082992553711,15.917167663574219,49.91927719116211,15.855705261230469,49.824947357177734C15.569389343261719,49.38711166381836,15.279716491699219,48.95113754272461,14.986198425292969,48.51650619506836C14.882865905761719,48.36050033569336,14.779716491699219,48.204524993896484,14.673332214355469,48.043819427490234C14.581291198730469,47.907649993896484,14.489311218261719,47.771419525146484,14.394523620605469,47.63113021850586C14.199821472167969,47.22353744506836,14.202629089355469,47.07290267944336,14.403800964355469,46.67452621459961C14.589591979980469,46.426326751708984,14.785331726074219,46.182857513427734,14.987297058105469,45.942989349365234C16.59008026123047,43.942989349365234,17.51470184326172,41.68430709838867,18.26769256591797,39.39455795288086C18.43138885498047,38.97031784057617,18.43138885498047,38.97031784057617,18.79753875732422,38.52584457397461C18.97881317138672,38.483089447021484,19.16008758544922,38.4403190612793,19.34685516357422,38.396236419677734C19.92650604248047,38.27982711791992,19.92650604248047,38.27982711791992,20.08660125732422,37.89350509643555C20.17351531982422,37.69318771362305,20.17351531982422,37.69318771362305,20.26219940185547,37.48875045776367C20.40258026123047,37.24880599975586,20.54595184326172,37.0100212097168,20.69194793701172,36.77228927612305C20.77251434326172,36.63895797729492,20.85320281982422,36.505672454833984,20.93621063232422,36.36832809448242C21.10430145263672,36.0911979675293,21.27361297607422,35.81455612182617,21.44402313232422,35.53840255737305C21.80266571044922,34.941524505615234,22.07866668701172,34.4668083190918,22.18450164794922,33.8033561706543C22.30596160888672,33.18911361694336,22.58568572998047,33.03689193725586,23.17998504638672,32.65513229370117C23.98125457763672,32.10276412963867,24.64128875732422,31.54836654663086,25.27391815185547,30.867977142333984C25.38982391357422,30.74453353881836,25.38982391357422,30.74453353881836,25.50804901123047,30.618526458740234C25.89501190185547,30.19967269897461,26.23381805419922,29.774150848388672,26.55547332763672,29.32155990600586C27.10448455810547,28.834911346435547,27.31475067138672,28.811214447021484,28.08867645263672,28.682659149169922C29.33867645263672,28.47384262084961,30.08318328857422,28.071529388427734,30.88054656982422,27.265911102294922C31.30113983154297,26.690120697021484,31.65593719482422,26.103282928466797,31.97905731201172,25.488018035888672Z" style="fill: rgb(255, 255, 255);"/></g></g><g id="shape-8a45f9ab-8bef-804e-8007-ff221da71b5a"><g class="fills" id="fills-8a45f9ab-8bef-804e-8007-ff221da71b5a"><path d="M71.15721893310547,51.11922836303711C72.88860321044922,51.08077621459961,74.54698944091797,51.191219329833984,76.26042938232422,51.38778305053711C76.50444793701172,51.41488265991211,76.74852752685547,51.44192123413086,76.99266815185547,51.468990325927734C78.39794158935547,51.628353118896484,79.78832244873047,51.80562973022461,81.17131805419922,52.065486907958984C82.91033172607422,52.32699203491211,84.67974090576172,52.34298324584961,86.44402313232422,52.35079574584961C86.56902313232422,52.351375579833984,86.69420623779297,52.35201644897461,86.82286834716797,52.352596282958984C88.87151336669922,52.35696029663086,90.86705780029297,52.218990325927734,92.89727020263672,52.00820541381836C97.08940887451172,51.57754135131836,101.07195281982422,51.524654388427734,105.20922088623047,52.304500579833984C105.37657928466797,52.33541488647461,105.54399871826172,52.36629867553711,105.71642303466797,52.39809799194336C106.68944549560547,52.57857894897461,107.65947723388672,52.76736068725586,108.62871551513672,52.96108627319336C109.56121063232422,53.145809173583984,110.49773406982422,53.31692123413086,111.43376922607422,53.48977279663086C111.53209686279297,58.140560150146484,111.53209686279297,58.140560150146484,110.88457489013672,59.712398529052734C110.36870574951172,59.838008880615234,109.87792205810547,59.93459701538086,109.35143280029297,60.01797103881836C109.21184539794922,60.041744232177734,109.07225799560547,60.06551742553711,108.92858123779297,60.08999252319336C108.15935516357422,60.219417572021484,107.38780975341797,60.333492279052734,106.61382293701172,60.44216537475586C105.89763641357422,60.545772552490234,105.19890594482422,60.675167083740234,104.49553680419922,60.82473373413086C101.90026092529297,61.360164642333984,99.49346160888672,61.572322845458984,96.82207489013672,61.55508041381836C96.60063934326172,61.55373764038086,96.60063934326172,61.55373764038086,96.37456512451172,61.552303314208984C95.95049285888672,61.548641204833984,95.52635955810547,61.54305648803711,95.10228729248047,61.536006927490234C94.97692108154297,61.533931732177734,94.85155487060547,61.53188705444336,94.72240447998047,61.529720306396484C92.56273651123047,61.478633880615234,92.56273651123047,61.478633880615234,92.21092987060547,61.193965911865234C91.93358612060547,61.159603118896484,91.65483856201172,61.132869720458984,91.37560272216797,61.11062240600586C91.22441864013672,61.098201751708984,91.07311248779297,61.08578109741211,90.91728973388672,61.07302474975586C90.80028533935547,61.064022064208984,90.68358612060547,61.05508041381836,90.56322479248047,61.04580307006836C90.56322479248047,60.947994232177734,90.56322479248047,60.850215911865234,90.56322479248047,60.74947738647461C90.09001922607422,60.76644515991211,89.61724090576172,60.78518295288086,89.14427947998047,60.805049896240234C89.01085662841797,60.809627532958984,88.87706756591797,60.814205169677734,88.73961639404297,60.81893539428711C88.02660369873047,60.850399017333984,87.52495574951172,60.92318344116211,86.90172576904297,61.193965911865234C86.48467254638672,61.258663177490234,86.06432342529297,61.309200286865234,85.64311981201172,61.351375579833984C85.51580047607422,61.364437103271484,85.38860321044922,61.37746810913086,85.25743865966797,61.390926361083984C84.51757049560547,61.460689544677734,83.78984832763672,61.497493743896484,83.04497528076172,61.50008773803711C80.92113494873047,61.513240814208984,79.18749237060547,61.78298568725586,77.18419647216797,62.35500717163086C75.61125946044922,62.79183578491211,74.05309295654297,63.05562973022461,72.41582489013672,63.26815414428711C72.18236541748047,63.298885345458984,71.94902801513672,63.329586029052734,71.70848846435547,63.361202239990234C70.65673065185547,63.491878509521484,69.66033172607422,63.57857894897461,68.59410858154297,63.564510345458984C68.80278778076172,62.76070785522461,69.04619598388672,61.980587005615234,69.34593963623047,61.196285247802734C70.58953094482422,57.901790618896484,70.93285369873047,54.54244613647461,71.15721893310547,51.11922836303711Z" style="fill: rgb(255, 255, 255);"/></g></g><g id="shape-8a45f9ab-8bef-804e-8007-ff221da77a02"><g class="fills" id="fills-8a45f9ab-8bef-804e-8007-ff221da77a02"><path d="M38.56975555419922,86.82522583007812C38.59099578857422,87.62954711914062,38.52477264404297,88.36099243164062,38.34868621826172,89.1563720703125C38.32592010498047,89.26174926757812,38.30290985107422,89.36712646484375,38.27941131591797,89.47567749023438C38.20568084716797,89.81466674804688,38.13030242919922,90.15338134765625,38.05486297607422,90.49209594726562C37.95171356201172,90.96176147460938,37.84935760498047,91.4315185546875,37.74730682373047,91.90130615234375C37.72246551513672,92.01559448242188,37.69756317138672,92.1298828125,37.67186737060547,92.24761962890625C37.49132537841797,93.08303833007812,37.34355926513672,93.91995239257812,37.20812225341797,94.76089477539062C36.93218231201172,96.41213989257812,36.34087371826172,98.00607299804688,35.77031707763672,99.60372924804688C35.19371795654297,101.41476440429688,35.37602996826172,103.28683471679688,35.73204803466797,105.1134033203125C36.22594451904297,107.70947265625,36.54070281982422,110.92959594726562,35.46416473388672,113.46435546875C35.28063201904297,113.92245483398438,35.15776824951172,114.36398315429688,35.05126190185547,114.83740234375C35.01274871826172,115.00698852539062,34.97441864013672,115.17654418945312,34.93468475341797,115.351318359375C34.89574432373047,115.52664184570312,34.85686492919922,115.70199584960938,34.81670379638672,115.88262939453125C34.77776336669922,116.05450439453125,34.73876190185547,116.22634887695312,34.69866180419922,116.4034423828125C34.45030975341797,117.50601196289062,34.21642303466797,118.61016845703125,33.99279022216797,119.7161865234375C33.56566619873047,119.72247314453125,33.13835906982422,119.72222900390625,32.71135711669922,119.7161865234375C32.65099334716797,119.66726684570312,32.59044647216797,119.61837768554688,32.52825164794922,119.56802368164062C32.05388641357422,119.5443115234375,31.58361053466797,119.52957153320312,31.10869598388672,119.5211181640625C30.96672821044922,119.51809692382812,30.82469940185547,119.51498413085938,30.67852020263672,119.51181030273438C30.22325897216797,119.50210571289062,29.76818084716797,119.49334716796875,29.31298065185547,119.48464965820312C29.00518035888672,119.47830200195312,28.69725799560547,119.4718017578125,28.38933563232422,119.46527099609375C27.63304901123047,119.44940185546875,26.87688446044922,119.43441772460938,26.12059783935547,119.41983032226562C25.71807098388672,117.94125366210938,25.31822967529297,116.46224975585938,24.92076873779297,114.98275756835938C24.84563446044922,114.70294189453125,24.77001190185547,114.4232177734375,24.69445037841797,114.14349365234375C23.63957977294922,110.22695922851562,23.16747283935547,106.60574340820312,24.15190887451172,102.64276123046875C24.73552703857422,100.24752807617188,24.95647430419922,98.0045166015625,24.83904266357422,95.56649780273438C24.83458709716797,95.358154296875,24.83043670654297,95.14981079101562,24.82689666748047,94.94146728515625C24.76970672607422,93.56884765625,24.37413787841797,92.28680419921875,23.96221160888672,90.96145629882812C23.59362030029297,89.7706298828125,23.36699676513672,88.645751953125,23.37444305419922,87.4178466796875C23.59514617919922,87.41567993164062,23.81566619873047,87.41351318359375,24.04296112060547,87.41131591796875C28.68004608154297,87.36260986328125,33.27837371826172,87.23196411132812,37.89452362060547,86.86367797851562C38.38665008544922,86.82522583007812,38.38665008544922,86.82522583007812,38.56975555419922,86.82522583007812Z" style="fill: rgb(255, 255, 255);"/></g></g><g id="shape-8a45f9ab-8bef-804e-8007-ff221da7b3b9"><g class="fills" id="fills-8a45f9ab-8bef-804e-8007-ff221da7b3b9"><path d="M21.72686004638672,0.0049249837175011635C21.90801239013672,0.05381414294242859,22.08928680419922,0.10271856188774109,22.27605438232422,0.1530878245830536C22.27605438232422,0.4953272044658661,22.27605438232422,0.8375513553619385,22.27605438232422,1.1901819705963135C22.48668670654297,1.117687463760376,22.48668670654297,1.117687463760376,22.70146942138672,1.0437586307525635C25.00121307373047,0.3110162913799286,27.48961639404297,-0.04686334729194641,29.96520233154297,0.0049249837175011635C29.87401580810547,0.558269739151001,29.80498504638672,0.866039514541626,29.41600799560547,1.338329553604126C29.66619110107422,1.3331873416900635,29.66619110107422,1.3331873416900635,29.92156219482422,1.327923059463501C32.02996063232422,1.304149866104126,34.09508514404297,1.448742151260376,36.18975067138672,1.634655237197876C36.06810760498047,2.375103235244751,35.82561492919922,2.8081324100494385,35.27440643310547,3.412517786026001C35.37847137451172,3.4394800662994385,35.48253631591797,3.466411828994751,35.58977508544922,3.4941370487213135C36.48394012451172,3.7297022342681885,37.34502410888672,3.991039514541626,38.20360565185547,4.301479339599609C38.10741424560547,4.910259246826172,37.89818572998047,5.228252410888672,37.39122772216797,5.681194305419922C37.27812957763672,5.784526824951172,37.16515350341797,5.887844085693359,37.04857635498047,5.994304656982422C36.73900604248047,6.227550506591797,36.73900604248047,6.227550506591797,36.37279510498047,6.227550506591797C36.38134002685547,6.345973968505859,36.38976287841797,6.464336395263672,36.39861297607422,6.586376190185547C36.44231414794922,7.664211273193359,36.28441619873047,8.472606658935547,35.81505584716797,9.477153778076172C35.56346893310547,10.13216781616211,35.52532196044922,10.773067474365234,35.48967742919922,11.45528793334961C35.45745086669922,11.857524871826172,35.45745086669922,11.857524871826172,35.27440643310547,12.301982879638672C35.24828338623047,12.882793426513672,35.28301239013672,13.372631072998047,35.45745086669922,13.931713104248047C35.67510223388672,15.230159759521484,35.26201629638672,16.617610931396484,34.54204559326172,17.783809661865234C34.16271209716797,18.156246185302734,33.76390838623047,18.453166961669922,33.31267547607422,18.767681121826172C32.62761688232422,19.340145111083984,32.27989959716797,20.022991180419922,31.87102508544922,20.741191864013672C31.61284637451172,21.191417694091797,31.61284637451172,21.191417694091797,31.24675750732422,21.635921478271484C31.17333221435547,21.533733367919922,31.09990692138672,21.431560516357422,31.02422332763672,21.326290130615234C29.70989227294922,19.567821502685547,28.17528533935547,18.45992660522461,25.93749237060547,17.48751449584961C25.78624725341797,17.41970443725586,25.63494110107422,17.351879119873047,25.47911834716797,17.282024383544922C24.31517791748047,16.85116195678711,23.14611053466797,16.839488983154297,21.88695526123047,16.830028533935547C21.71654510498047,16.82851791381836,21.54625701904297,16.827022552490234,21.37071990966797,16.825435638427734C20.23931121826172,16.837139129638672,19.29723358154297,16.996456146240234,18.24834442138672,17.339351654052734C18.24834442138672,17.045970916748047,18.24834442138672,16.75265121459961,18.24834442138672,16.450389862060547C18.11077117919922,16.436473846435547,17.97319793701172,16.42251205444336,17.83141326904297,16.40816879272461C16.96526336669922,16.224132537841797,16.54680633544922,15.694591522216797,16.05150604248047,15.116985321044922C15.464714050292969,14.250606536865234,15.054008483886719,13.295574188232422,15.319145202636719,12.301982879638672C15.418266296386719,12.216625213623047,15.517387390136719,12.131237030029297,15.619560241699219,12.043285369873047C15.940238952636719,11.69375228881836,15.940238952636719,11.69375228881836,15.761833190917969,11.156688690185547C15.688835144042969,10.936092376708984,15.613578796386719,10.71603012084961,15.536552429199219,10.496334075927734C14.964897155761719,8.651424407958984,14.660942077636719,6.624660491943359,15.868400573730469,4.894115447998047C16.17351531982422,4.647212982177734,16.47863006591797,4.400249481201172,16.78380584716797,4.153316497802734C16.96001434326172,3.777233362197876,17.08977508544922,3.403545618057251,17.20928192138672,3.013225793838501C17.33300018310547,2.6717493534088135,17.33300018310547,2.6717493534088135,17.69915008544922,2.2272913455963135C17.82543182373047,2.270824670791626,17.95165252685547,2.314342737197876,18.08177947998047,2.359234094619751C18.59972381591797,2.418224573135376,18.59972381591797,2.418224573135376,18.90142059326172,2.214275598526001C19.21977996826172,1.967937707901001,19.51927947998047,1.712963342666626,19.81591033935547,1.449444055557251C21.22875213623047,0.2342188060283661,21.22875213623047,0.2342188060283661,21.72686004638672,0.0049249837175011635Z" style="fill: rgb(255, 255, 255);"/></g></g><g id="shape-8a45f9ab-8bef-804e-8007-ff221da7f104"><g class="fills" id="fills-8a45f9ab-8bef-804e-8007-ff221da7f104"><path d="M14.220756530761719,21.191417694091797C14.186393737792969,21.280864715576172,14.151969909667969,21.370342254638672,14.116691589355469,21.46249008178711C13.776298522949219,22.362712860107422,13.479423522949219,23.26589584350586,13.213737487792969,24.182369232177734C13.174491882324219,24.317058563232422,13.135246276855469,24.451732635498047,13.094902038574219,24.590557098388672C12.469963073730469,26.64986801147461,12.469963073730469,26.64986801147461,12.149650573730469,28.747478485107422C12.093009948730469,29.23751449584961,11.947563171386719,29.457744598388672,11.528129577636719,29.810619354248047C10.872123718261719,30.403682708740234,10.405876159667969,31.039348602294922,9.941276550292969,31.738399505615234C9.858940124511719,31.853099822998047,9.776603698730469,31.967769622802734,9.691703796386719,32.08591842651367C9.216606140136719,32.79941940307617,9.065177917480469,33.271114349365234,9.145317077636719,34.08344650268555C9.172416687011719,34.627193450927734,9.160331726074219,34.88767623901367,8.792411804199219,35.3487663269043C8.359977722167969,35.71818161010742,7.9111247062683105,36.05410385131836,7.4354166984558105,36.3868522644043C6.1589884757995605,37.31303024291992,5.1867594718933105,38.20432662963867,4.3346476554870605,39.4148063659668C4.4543986320495605,39.313289642333984,4.5743327140808105,39.21171188354492,4.6977458000183105,39.10708236694336C5.6392741203308105,38.3143424987793,6.5827555656433105,37.656307220458984,7.7007365226745605,37.029232025146484C8.288810729980469,36.683528900146484,8.806022644042969,36.294368743896484,9.322746276855469,35.8816032409668C9.643791198730469,35.710872650146484,9.643791198730469,35.710872650146484,10.013542175292969,35.72939682006836C10.430961608886719,35.87864303588867,10.652885437011719,36.04865646362305,10.971122741699219,36.31277084350586C12.666252136230469,37.55430221557617,14.970817565917969,38.215023040771484,17.14989471435547,38.674007415771484C16.13903045654297,42.76443099975586,14.268669128417969,46.186214447021484,9.912712097167969,48.63705062866211C9.538322448730469,48.85226058959961,9.204093933105469,49.073055267333984,8.865715026855469,49.32284164428711C7.9497599601745605,49.895626068115234,6.9357218742370605,50.04311752319336,5.7991862297058105,49.934017181396484C4.1996989250183105,49.490840911865234,3.3760905265808105,48.779415130615234,2.5997233390808105,47.59585189819336C2.2936320304870605,47.072566986083984,2.0312418937683105,46.541011810302734,1.7830119132995605,45.99856185913086C1.7356486320495605,45.89522933959961,1.6882853507995605,45.79189682006836,1.6393961906433105,45.685420989990234C1.0105509757995605,44.29757308959961,0.45677900314331055,42.968563079833984,0.30693769454956055,41.489009857177734C0.24657393991947174,41.391231536865234,0.18608810007572174,41.2934684753418,0.12383223325014114,41.19271469116211C0.08476973325014114,40.58515548706055,0.08983565121889114,39.97733688354492,0.08995772153139114,39.369014739990234C0.08959151059389114,39.0692253112793,0.08623457700014114,38.76951217651367,0.08275557309389114,38.469722747802734C0.08013106137514114,37.07523727416992,0.19927169382572174,35.75448226928711,0.6959147453308105,34.414485931396484C1.0170817375183105,33.449398040771484,0.8973307609558105,32.8087272644043,0.49010419845581055,31.886592864990234C-0.21350906789302826,30.129314422607422,-0.18891189992427826,28.18770980834961,0.7560954093933105,26.495006561279297C2.0492472648620605,24.602794647216797,3.9548869132995605,23.398921966552734,6.4743571281433105,22.719310760498047C7.2236857414245605,22.54671859741211,7.9540934562683105,22.477123260498047,8.728385925292969,22.41372299194336C10.047233581542969,22.28969955444336,11.173149108886719,21.964458465576172,12.391716003417969,21.54519271850586C12.523918151855469,21.499874114990234,12.656242370605469,21.454601287841797,12.792533874511719,21.407894134521484C12.967704772949219,21.34554672241211,12.967704772949219,21.34554672241211,13.146293640136719,21.281917572021484C13.488334655761719,21.191417694091797,13.488334655761719,21.191417694091797,14.220756530761719,21.191417694091797Z" style="fill: rgb(255, 255, 255);"/></g></g><g id="shape-8a45f9ab-8bef-804e-8007-ff221da8096d"><g class="fills" id="fills-8a45f9ab-8bef-804e-8007-ff221da8096d"><path d="M137.9253387451172,51.742549896240234C138.70591735839844,52.204647064208984,139.31871032714844,52.740413665771484,139.62742614746094,53.48977279663086C139.7566375732422,54.80855941772461,139.65379333496094,55.86947250366211,138.8951873779297,57.04555892944336C138.7828826904297,57.22433090209961,138.7828826904297,57.22433090209961,138.6683807373047,57.40670394897461C137.51658630371094,59.16140365600586,135.8383026123047,60.12026596069336,133.50572204589844,60.715145111083984C133.04893493652344,60.81850814819336,132.59080505371094,60.91823959350586,132.1327362060547,61.01803207397461C130.0077362060547,61.511287689208984,128.74058532714844,62.281063079833984,127.20336151123047,63.55117416381836C126.31444549560547,64.25473022460938,125.56639862060547,64.64154052734375,124.30638885498047,64.73123168945312C122.27928924560547,64.6507568359375,120.83397674560547,63.377437591552734,119.54637908935547,62.231075286865234C119.36583709716797,62.064693450927734,119.18590545654297,61.89803695678711,119.00646209716797,61.731014251708984C118.42516326904297,61.208614349365234,118.12676239013672,61.175411224365234,117.27745819091797,61.135799407958984C117.08922576904297,61.127925872802734,117.08922576904297,61.127925872802734,116.89678192138672,61.11989974975586C116.70317840576172,61.11086654663086,116.70317840576172,61.11086654663086,116.50554656982422,61.10165023803711C115.95250701904297,61.07589340209961,115.39910125732422,61.051631927490234,114.84587860107422,61.027278900146484C114.44255828857422,61.009334564208984,114.03893280029297,60.990596771240234,113.63573455810547,60.971736907958984C113.50969696044922,60.96645736694336,113.38353729248047,60.96120834350586,113.25371551513672,60.95577621459961C112.36986541748047,60.914363861083984,112.36986541748047,60.914363861083984,112.16613006591797,60.74947738647461C112.13249969482422,59.92818832397461,112.20653533935547,59.137996673583984,112.32628631591797,58.323421478271484C112.44921112060547,57.458003997802734,112.54918670654297,56.59426498413086,112.61864471435547,55.72488021850586C112.63311004638672,55.550960540771484,112.64745330810547,55.37704086303711,112.66210174560547,55.19784164428711C112.68968963623047,54.853084564208984,112.71508026123047,54.50820541381836,112.73845672607422,54.16323471069336C112.75133514404297,54.00515365600586,112.76427459716797,53.847103118896484,112.77745819091797,53.684200286865234C112.78759002685547,53.543087005615234,112.79778289794922,53.40194320678711,112.80815887451172,53.256526947021484C112.91179656982422,52.843868255615234,113.02642059326172,52.695308685302734,113.44762420654297,52.452632904052734C113.94457244873047,52.47408676147461,113.94457244873047,52.47408676147461,114.53466033935547,52.57302474975586C115.55846405029297,52.72579574584961,116.49987030029297,52.76742172241211,117.53832244873047,52.73049545288086C118.28374481201172,52.758846282958984,118.77861785888672,52.914852142333984,119.30608367919922,53.341609954833984C123.74089813232422,54.28957748413086,129.09373474121094,53.15365219116211,133.2578582763672,51.88503646850586C134.70835876464844,51.465084075927734,136.47032165527344,51.216732025146484,137.9253387451172,51.742549896240234Z" style="fill: rgb(255, 255, 255);"/></g></g><g id="shape-8a45f9ab-8bef-804e-8007-ff221da86ce0"><g class="fills" id="fills-8a45f9ab-8bef-804e-8007-ff221da86ce0"><path d="M27.56517791748047,120.42279052734375C27.76988983154297,120.42291259765625,27.76988983154297,120.42291259765625,27.97863006591797,120.42300415039062C28.26543426513672,120.4234619140625,28.55229949951172,120.42462158203125,28.83910369873047,120.42645263671875C29.27983856201172,120.42916870117188,29.72032928466797,120.42950439453125,30.16112518310547,120.42947387695312C30.44005584716797,120.43020629882812,30.71898651123047,120.43109130859375,30.99791717529297,120.43203735351562C31.19634246826172,120.43234252929688,31.19634246826172,120.43234252929688,31.39879608154297,120.43258666992188C32.32390594482422,120.43978881835938,32.32390594482422,120.43978881835938,32.52825164794922,120.6051025390625C32.99059295654297,120.64013671875,33.44927215576172,120.6676025390625,33.91283416748047,120.68844604492188C34.04283905029297,120.69488525390625,34.17302703857422,120.70126342773438,34.30724334716797,120.70785522460938C34.62950897216797,120.72360229492188,34.95195770263672,120.738525390625,35.27440643310547,120.75326538085938C35.43608856201172,121.28738403320312,35.45745086669922,121.70281982421875,35.35515594482422,122.24526977539062C35.32982635498047,122.39059448242188,35.30449676513672,122.53594970703125,35.27837371826172,122.6856689453125C35.22380828857422,122.98208618164062,35.16851043701172,123.2784423828125,35.11248016357422,123.57461547851562C34.68981170654297,126.0169677734375,34.92711639404297,128.37356567382812,35.36595916748047,130.80020141601562C36.12804412841797,135.06015014648438,36.12804412841797,135.06015014648438,35.58324432373047,136.23574829101562C34.96599578857422,136.700439453125,34.29259490966797,136.95651245117188,33.54308319091797,137.26181030273438C33.06816864013672,137.49972534179688,32.90978240966797,137.63226318359375,32.67693328857422,138.03213500976562C32.22014617919922,138.72055053710938,31.76726531982422,138.87213134765625,30.88054656982422,139.12481689453125C29.11095428466797,139.52496337890625,27.44811248779297,139.63638305664062,25.62340545654297,139.61907958984375C25.22460174560547,139.61553955078125,24.82592010498047,139.61605834960938,24.42705535888672,139.61703491210938C21.14299774169922,139.61181640625,21.14299774169922,139.61181640625,19.71300506591797,138.68035888671875C19.31352996826172,137.71054077148438,19.41368865966797,136.83648681640625,19.91887664794922,135.90240478515625C20.51647186279297,135.00222778320312,21.33849334716797,134.37081909179688,22.24169158935547,133.6746826171875C24.44506072998047,131.952880859375,25.76647186279297,129.35037231445312,25.82384490966797,126.86685180664062C25.82353973388672,126.75003051757812,25.82323455810547,126.63323974609375,25.82311248779297,126.51290893554688C25.82341766357422,126.38796997070312,25.82384490966797,126.2630615234375,25.82421112060547,126.13436889648438C25.80138397216797,124.93984985351562,25.56041717529297,123.78915405273438,25.26671600341797,122.6204833984375C25.23290252685547,122.48428344726562,25.19921112060547,122.34799194335938,25.16448211669922,122.20767211914062C25.13286590576172,122.08761596679688,25.10118865966797,121.96762084960938,25.06859588623047,121.84396362304688C25.01335906982422,121.42794799804688,25.02477264404297,121.14739990234375,25.20525360107422,120.75326538085938C25.93553924560547,120.38253784179688,26.72893524169922,120.41598510742188,27.56517791748047,120.42279052734375Z" style="fill: rgb(255, 255, 255);"/></g></g><g id="shape-8a45f9ab-8bef-804e-8007-ff221da8bdd0"><g class="fills" id="fills-8a45f9ab-8bef-804e-8007-ff221da8bdd0"><path d="M25.74303436279297,18.533870697021484C27.92375946044922,19.618389129638672,30.06560516357422,21.183635711669922,30.69750213623047,23.26565170288086C30.88072967529297,24.55331039428711,30.73204803466797,25.824932098388672,29.71343231201172,26.867748260498047C29.55480194091797,26.999126434326172,29.39623260498047,27.130535125732422,29.23290252685547,27.265911102294922C29.10454559326172,27.378963470458984,28.97612762451172,27.492015838623047,28.84386444091797,27.608516693115234C28.24462127685547,27.893138885498047,28.04186248779297,27.859172821044922,27.36779022216797,27.83999252319336C26.59844207763672,27.87417221069336,26.37010955810547,27.948787689208984,25.83672332763672,28.41353988647461C25.52037811279297,28.770198822021484,25.23064422607422,29.139568328857422,24.93920135498047,29.50967025756836C24.24639129638672,30.388225555419922,23.34612274169922,31.109111785888672,22.45909881591797,31.858776092529297C22.35149383544922,31.960384368896484,22.24382781982422,32.06199264526367,22.13298797607422,32.16666793823242C21.69915008544922,32.566280364990234,21.42882537841797,32.73688888549805,20.77709197998047,32.84031295776367C18.14098358154297,32.4906120300293,15.812309265136719,31.359432220458984,13.854606628417969,29.932750701904297C13.704704284667969,29.838207244873047,13.704704284667969,29.838207244873047,13.551872253417969,29.741802215576172C13.103507995605469,29.280803680419922,13.327507019042969,28.75594711303711,13.403739929199219,28.202449798583984C13.888603210449219,25.384471893310547,14.499870300292969,22.218456268310547,16.60070037841797,19.858043670654297C16.73662567138672,19.699138641357422,16.87248992919922,19.540218353271484,17.01256561279297,19.376506805419922C19.37981414794922,17.46078109741211,22.87499237060547,17.259807586669922,25.74303436279297,18.533870697021484Z" style="fill: rgb(255, 255, 255);"/></g></g><g id="shape-8a45f9ab-8bef-804e-8007-ff221da8bdd1"><g class="fills" id="fills-8a45f9ab-8bef-804e-8007-ff221da8bdd1"><path d="M45.98430633544922,18.330181121826172C49.04534149169922,20.50326156616211,49.54662322998047,24.461742401123047,49.92034149169922,27.562206268310547C49.94866180419922,27.703929901123047,49.97698211669922,27.845653533935547,50.00615692138672,27.991649627685547C50.08873748779297,28.594249725341797,50.05278778076172,28.904338836669922,49.58855438232422,29.39333724975586C47.82207489013672,30.758846282958984,45.59807586669922,31.79378890991211,43.14659881591797,31.979137420654297C42.22075653076172,31.956356048583984,41.81169891357422,31.782390594482422,41.17852020263672,31.23836898803711C40.33208465576172,30.35988998413086,39.61980438232422,29.416210174560547,38.93590545654297,28.451152801513672C38.82518768310547,28.297618865966797,38.82518768310547,28.297618865966797,38.71208953857422,28.14095687866211C38.47985076904297,27.81917953491211,38.24980926513672,27.496456146240234,38.02043914794922,27.17330551147461C37.94762420654297,27.071468353271484,37.87474822998047,26.96963119506836,37.79955291748047,26.864757537841797C37.28826141357422,26.132396697998047,37.28826141357422,26.132396697998047,37.28826141357422,25.636180877685547C37.16741180419922,25.636180877685547,37.04650115966797,25.636180877685547,36.92211151123047,25.636180877685547C36.86162567138672,25.92953109741211,36.80120086669922,26.222850799560547,36.73900604248047,26.525081634521484C35.82036590576172,26.60476303100586,35.27440643310547,26.59200668334961,34.50768280029297,26.154705047607422C33.42327117919922,25.423702239990234,32.64202117919922,24.411678314208984,32.48821258544922,23.262752532958984C32.40721893310547,21.704082489013672,33.10558319091797,20.430309295654297,34.35894012451172,19.265377044677734C37.57616424560547,16.771038055419922,42.26360321044922,16.114543914794922,45.98430633544922,18.330181121826172Z" style="fill: rgb(255, 255, 255);"/></g></g><g id="shape-8a45f9ab-8bef-804e-8007-ff221da8dc60"><g class="fills" id="fills-8a45f9ab-8bef-804e-8007-ff221da8dc60"><path d="M50.46971893310547,23.858257293701172C51.96263885498047,24.184917449951172,52.92424774169922,25.032405853271484,53.74138641357422,26.071956634521484C54.48217010498047,27.218700408935547,55.06645965576172,28.377086639404297,55.04869842529297,29.685039520263672C55.02642059326172,32.28634262084961,56.23357391357422,34.62929916381836,58.39269256591797,36.5703239440918C59.44548797607422,37.658016204833984,59.83251190185547,39.010616302490234,59.84081268310547,40.35934066772461C59.84343719482422,40.54990768432617,59.84606170654297,40.740535736083984,59.84874725341797,40.936885833740234C59.80748748779297,41.47665023803711,59.66179656982422,41.87209701538086,59.44036102294922,42.3779411315918C59.40727996826172,42.63961410522461,59.38420867919922,42.90220260620117,59.37169647216797,43.16501998901367C59.26494598388672,44.278499603271484,58.78050994873047,45.28243637084961,57.79265594482422,46.081905364990234C56.80486297607422,46.71120834350586,55.95134735107422,46.774410247802734,54.70476531982422,46.74105453491211C54.00524139404297,46.659908294677734,53.60637664794922,46.49306869506836,53.04918670654297,46.153621673583984C52.58007049560547,45.88405990600586,52.08959197998047,45.703792572021484,51.56810760498047,45.50777816772461C48.97624969482422,44.46432113647461,47.76738739013672,42.85383224487305,46.85137176513672,40.69077682495117C45.89269256591797,38.34524154663086,45.89269256591797,38.34524154663086,45.89269256591797,37.9332389831543C46.09191131591797,37.890071868896484,46.29106903076172,37.846920013427734,46.49639129638672,37.80245590209961C49.35155487060547,37.166133880615234,51.48326873779297,36.34336471557617,53.51329803466797,34.54413986206055C53.94762420654297,33.74526596069336,53.93706512451172,32.880306243896484,53.60411834716797,32.05045700073242C53.38665008544922,31.658550262451172,53.14897918701172,31.282421112060547,52.89537811279297,30.905025482177734C52.77367401123047,30.711498260498047,52.77367401123047,30.711498260498047,52.64940643310547,30.514095306396484C52.19225311279297,29.791133880615234,52.19225311279297,29.791133880615234,51.52092742919922,29.200603485107422C50.96916961669922,28.67306137084961,51.04216766357422,28.009471893310547,50.99602508544922,27.339962005615234C50.96984100341797,27.046337127685547,50.94329071044922,26.752727508544922,50.91588592529297,26.45913314819336C50.90312957763672,26.31777572631836,50.89043426513672,26.176403045654297,50.87725067138672,26.030712127685547C50.80028533935547,25.298259735107422,50.64623260498047,24.579158782958984,50.46971893310547,23.858257293701172Z" style="fill: rgb(255, 255, 255);"/></g></g><g id="shape-8a45f9ab-8bef-804e-8007-ff221da93fad"><g class="fills" id="fills-8a45f9ab-8bef-804e-8007-ff221da93fad"><path d="M12.389945983886719,30.377178192138672C12.936576843261719,30.576168060302734,13.312004089355469,30.79952621459961,13.740104675292969,31.136531829833984C15.674919128417969,32.53580856323242,18.21068572998047,33.547115325927734,20.81139373779297,33.63668441772461C20.71892547607422,34.49189376831055,20.41545867919922,35.12789535522461,19.93035125732422,35.88679122924805C19.86748504638672,35.99021530151367,19.80449676513672,36.09365463256836,19.73973846435547,36.200191497802734C19.38750457763672,36.76229476928711,19.05706024169922,37.24229049682617,18.43138885498047,37.63694381713867C16.30547332763672,37.8827018737793,14.138969421386719,36.91415023803711,12.389945983886719,36.00718307495117C11.869194030761719,35.68571090698242,11.380973815917969,35.351009368896484,10.925346374511719,34.9701042175293C10.821464538574219,34.88338851928711,10.717704772949219,34.796688079833984,10.610649108886719,34.70731735229492C10.256950378417969,34.20988082885742,10.285697937011719,33.91036605834961,10.376152038574219,33.3403434753418C10.628959655761719,32.829952239990234,10.948173522949219,32.356563568115234,11.280021667480469,31.877300262451172C11.365776062011719,31.748958587646484,11.451530456542969,31.620616912841797,11.540031433105469,31.488399505615234C12.165824890136719,30.558605194091797,12.165824890136719,30.558605194091797,12.389945983886719,30.377178192138672Z" style="fill: rgb(255, 255, 255);"/></g></g><g id="shape-8a45f9ab-8bef-804e-8007-ff221da93fae"><g class="fills" id="fills-8a45f9ab-8bef-804e-8007-ff221da93fae"><path d="M50.63341522216797,30.067012786865234C51.24767303466797,30.325206756591797,51.48168182373047,30.784801483154297,51.78551483154297,31.26613998413086C51.84966278076172,31.367305755615234,51.91374969482422,31.468395233154297,51.97966766357422,31.572612762451172C52.88494110107422,33.05625534057617,52.88494110107422,33.05625534057617,52.66655731201172,33.784847259521484C51.64855194091797,35.28805160522461,49.37706756591797,36.10055160522461,47.46404266357422,36.61776351928711C46.46007537841797,36.81705856323242,45.45085906982422,36.8946647644043,44.42815399169922,36.747982025146484C43.91100311279297,36.44962692260742,43.74071502685547,36.0920524597168,43.52416229248047,35.61826705932617C43.22942352294922,34.9891471862793,42.90343475341797,34.37992477416992,42.54882049560547,33.77152633666992C42.41436004638672,33.48849105834961,42.41436004638672,33.48849105834961,42.41436004638672,33.04404830932617C42.54528045654297,33.03123092651367,42.67620086669922,33.0184440612793,42.81114959716797,33.00527572631836C45.28661346435547,32.72280502319336,48.08519744873047,31.975643157958984,49.82884979248047,30.45125961303711C50.28661346435547,30.080883026123047,50.28661346435547,30.080883026123047,50.63341522216797,30.067012786865234Z" style="fill: rgb(255, 255, 255);"/></g></g><g id="shape-8a45f9ab-8bef-804e-8007-ff221da97f32"><g class="fills" id="fills-8a45f9ab-8bef-804e-8007-ff221da97f32"><path d="M27.94207000732422,125.03302001953125C28.09453582763672,125.03378295898438,28.24700164794922,125.03457641601562,28.40404510498047,125.03536987304688C28.56859588623047,125.03585815429688,28.73326873779297,125.03631591796875,28.90282440185547,125.03683471679688C29.16246795654297,125.0386962890625,29.16246795654297,125.0386962890625,29.42742156982422,125.04058837890625C29.60118865966797,125.04129028320312,29.77507781982422,125.04190063476562,29.95403289794922,125.04257202148438C30.38500213623047,125.04437255859375,30.81584930419922,125.04678344726562,31.24675750732422,125.04986572265625C31.45262908935547,125.75360107421875,31.45262908935547,125.75360107421875,31.24675750732422,126.08694458007812C30.64403533935547,126.09552001953125,30.04149627685547,126.100830078125,29.43877410888672,126.10543823242188C29.18151092529297,126.10919189453125,29.18151092529297,126.10919189453125,28.91893768310547,126.11297607421875C28.75493621826172,126.11398315429688,28.59093475341797,126.11489868164062,28.42186737060547,126.11590576171875C28.27043914794922,126.117431640625,28.11894989013672,126.11898803710938,27.96282196044922,126.12060546875C27.58525848388672,126.08694458007812,27.58525848388672,126.08694458007812,27.21910858154297,125.79061889648438C27.35570526123047,125.06063842773438,27.35570526123047,125.06063842773438,27.94207000732422,125.03302001953125Z" style="fill: rgb(255, 255, 255);"/></g></g><g id="shape-8a45f9ab-8bef-804e-8007-ff221da97f33"><g class="fills" id="fills-8a45f9ab-8bef-804e-8007-ff221da97f33"><path d="M29.78209686279297,131.71694946289062C29.72167205810547,131.9124755859375,29.66130828857422,132.10806274414062,29.59911346435547,132.3095703125C28.74102020263672,132.49740600585938,27.94524383544922,132.44454956054688,27.07036590576172,132.39291381835938C26.85381317138672,132.38128662109375,26.85381317138672,132.38128662109375,26.63298797607422,132.36947631835938C26.27898406982422,132.35037231445312,25.92516326904297,132.330078125,25.57140350341797,132.3095703125C25.45690155029297,132.03176879882812,25.45690155029297,132.03176879882812,25.38829803466797,131.71694946289062C26.51873016357422,130.80209350585938,28.48503875732422,131.30007934570312,29.78209686279297,131.71694946289062Z" style="fill: rgb(255, 255, 255);"/></g></g><g id="shape-8a45f9ab-8bef-804e-8007-ff221da97f34"><g class="fills" id="fills-8a45f9ab-8bef-804e-8007-ff221da97f34"><path d="M27.97423553466797,129.31863403320312C28.89531707763672,129.32516479492188,29.66619110107422,129.34634399414062,30.51439666748047,129.64273071289062C30.57482147216797,129.78939819335938,30.63524627685547,129.93606567382812,30.69750213623047,130.08718872070312C30.63713836669922,130.18499755859375,30.57659149169922,130.28277587890625,30.51439666748047,130.38348388671875C29.18523406982422,130.33462524414062,27.85613250732422,130.28573608398438,26.48668670654297,130.23532104492188C26.73705291748047,129.22262573242188,26.78783416748047,129.32412719726562,27.97423553466797,129.31863403320312Z" style="fill: rgb(255, 255, 255);"/></g></g><g id="shape-8a45f9ab-8bef-804e-8007-ff221da97f35"><g class="fills" id="fills-8a45f9ab-8bef-804e-8007-ff221da97f35"><path d="M27.40215301513672,127.27218627929688C27.87133026123047,127.26419067382812,28.34026336669922,127.25833129882812,28.80956268310547,127.253662109375C28.94158172607422,127.25115966796875,29.07353973388672,127.24871826171875,29.20964813232422,127.24615478515625C29.97405242919922,127.24050903320312,30.56005096435547,127.2901611328125,31.24675750732422,127.56851196289062C31.18633270263672,127.81298828125,31.12584686279297,128.05743408203125,31.06365203857422,128.30929565429688C29.79491424560547,128.26040649414062,28.52623748779297,128.2115478515625,27.21910858154297,128.16116333007812C27.27941131591797,127.8677978515625,27.33989715576172,127.57443237304688,27.40215301513672,127.27218627929688Z" style="fill: rgb(255, 255, 255);"/></g></g><g id="shape-8a45f9ab-8bef-804e-8007-ff221da9a399"><g class="fills" id="fills-8a45f9ab-8bef-804e-8007-ff221da9a399"><path d="M7.4468913078308105,36.59981918334961C7.5677409172058105,36.79539108276367,7.6886515617370605,36.99093246459961,7.8130412101745605,37.192440032958984C7.6846842765808105,37.264278411865234,7.5563273429870605,37.3360710144043,7.4240641593933105,37.41006088256836C6.2875895500183105,38.0598258972168,5.2813639640808105,38.73752975463867,4.3346476554870605,39.56296920776367C4.3346476554870605,38.593196868896484,5.6041178703308105,37.62540817260742,6.4056925773620605,36.942440032958984C6.8976969718933105,36.59981918334961,6.8976969718933105,36.59981918334961,7.4468913078308105,36.59981918334961Z" style="fill: rgb(255, 255, 255);"/></g></g><g id="shape-8a45f9ab-8bef-804e-8007-ff221da9a39a"><g class="fills" id="fills-8a45f9ab-8bef-804e-8007-ff221da9a39a"><path d="M28.52355194091797,129.2723388671875C28.75762176513672,129.29681396484375,28.99175262451172,129.32125854492188,29.23290252685547,129.346435546875C29.35369110107422,129.49307250976562,29.47447967529297,129.6397705078125,29.59911346435547,129.7908935546875C29.01103973388672,130.07330322265625,28.58495330810547,130.12020874023438,27.90557098388672,130.105712890625C27.74230194091797,130.10305786132812,27.57891082763672,130.100341796875,27.41075897216797,130.09759521484375C27.22521209716797,130.09243774414062,27.22521209716797,130.09243774414062,27.03600311279297,130.08718872070312C27.44963836669922,129.5291748046875,27.72142791748047,129.29119873046875,28.52355194091797,129.2723388671875Z" style="fill: rgb(255, 255, 255);"/></g></g><g id="shape-8a45f9ab-8bef-804e-8007-ff221da9a39b"><g class="fills" id="fills-8a45f9ab-8bef-804e-8007-ff221da9a39b"><path d="M34.72515106201172,27.414043426513672C35.07994842529297,27.418956756591797,35.43474578857422,27.429241180419922,35.78936004638672,27.441829681396484C35.98680877685547,27.446971893310547,36.18425750732422,27.452144622802734,36.38787078857422,27.457454681396484C36.92211151123047,27.562206268310547,36.92211151123047,27.562206268310547,37.26750946044922,27.921611785888672C37.47130584716797,28.30300521850586,37.47130584716797,28.30300521850586,37.47130584716797,28.599315643310547C37.38066864013672,28.556529998779297,37.29003143310547,28.513729095458984,37.19670867919922,28.469661712646484C36.57103729248047,28.24184799194336,35.94255828857422,28.132823944091797,35.27440643310547,28.006710052490234C35.27440643310547,27.90890121459961,35.27440643310547,27.811138153076172,35.27440643310547,27.71035385131836C35.09313201904297,27.61257553100586,34.91185760498047,27.514781951904297,34.72515106201172,27.414043426513672Z" style="fill: rgb(255, 255, 255);"/></g></g><g id="shape-8a45f9ab-8bef-804e-8007-ff221da9f819"><g class="fills" id="fills-8a45f9ab-8bef-804e-8007-ff221da9f819"><path d="M32.89440155029297,1.486492395401001C33.98186492919922,1.5353968143463135,35.06932830810547,1.5842859745025635,36.18975067138672,1.634655237197876C36.12938690185547,1.9279749393463135,36.06890106201172,2.2213709354400635,36.00664520263672,2.5235865116119385C35.88585662841797,2.4746973514556885,35.76506805419922,2.425792932510376,35.64055633544922,2.3754541873931885C35.64055633544922,2.228740930557251,35.64055633544922,2.082073450088501,35.64055633544922,1.930950403213501C35.47307586669922,1.9360926151275635,35.30547332763672,1.941295862197876,35.13280487060547,1.946575403213501C34.91515350341797,1.9505884647369385,34.69762420654297,1.9546167850494385,34.47344207763672,1.9587671756744385C34.25676727294922,1.963878870010376,34.04015350341797,1.9690821170806885,33.81700897216797,1.9743616580963135C33.54149627685547,1.9528772830963135,33.54149627685547,1.9528772830963135,33.26055145263672,1.930950403213501C33.13970184326172,1.7842981815338135,33.01879119873047,1.6376001834869385,32.89440155029297,1.486492395401001Z" style="fill: rgb(255, 255, 255);"/></g></g><g id="shape-8a45f9ab-8bef-804e-8007-ff221da9f81a"><g class="fills" id="fills-8a45f9ab-8bef-804e-8007-ff221da9f81a"><path d="M32.71135711669922,21.487743377685547C33.05992889404297,21.769817352294922,33.24864959716797,21.981731414794922,33.29698944091797,22.383647918701172C33.29509735107422,22.677791595458984,33.27873992919922,22.971843719482422,33.26055145263672,23.26565170288086C33.13970184326172,23.26565170288086,33.01879119873047,23.26565170288086,32.89440155029297,23.26565170288086C32.89440155029297,23.510112762451172,32.89440155029297,23.754573822021484,32.89440155029297,24.006450653076172C32.32231903076172,23.311946868896484,32.45738983154297,22.57967758178711,32.61980438232422,21.774822235107422C32.65001678466797,21.68008041381836,32.68016815185547,21.585323333740234,32.71135711669922,21.487743377685547Z" style="fill: rgb(255, 255, 255);"/></g></g><g id="shape-8a45f9ab-8bef-804e-8007-ff221da9f81b"><g class="fills" id="fills-8a45f9ab-8bef-804e-8007-ff221da9f81b"><path d="M5.6160807609558105,37.63694381713867C5.7369914054870605,37.6858024597168,5.8577799797058105,37.73470687866211,5.9822916984558105,37.78507614135742C5.8815836906433105,38.359188079833984,5.5656657218933105,38.61416244506836,5.0554118156433105,39.007381439208984C4.9211955070495605,39.11202621459961,4.7869181632995605,39.21670150756836,4.6484904289245605,39.32453536987305C4.5449748039245605,39.403194427490234,4.4413371086120605,39.48189926147461,4.3346476554870605,39.56296920776367C4.3346476554870605,38.9943962097168,4.5663371086120605,38.80514144897461,4.9753947257995605,38.34992599487305C5.0942912101745605,38.216426849365234,5.2133097648620605,38.08291244506836,5.3358073234558105,37.945369720458984C5.4283366203308105,37.843563079833984,5.5208048820495605,37.74178695678711,5.6160807609558105,37.63694381713867Z" style="fill: rgb(255, 255, 255);"/></g></g><g id="shape-8a45f9ab-8bef-804e-8007-ff221da9f81c"><g class="fills" id="fills-8a45f9ab-8bef-804e-8007-ff221da9f81c"><path d="M69.87572479248047,50.23031234741211C69.93608856201172,50.23031234741211,69.99645233154297,50.23031234741211,70.05883026123047,50.23031234741211C70.11919403076172,50.52364730834961,70.17955780029297,50.817012786865234,70.24193572998047,51.11922836303711C70.30229949951172,51.11922836303711,70.36254119873047,51.11922836303711,70.42485809326172,51.11922836303711C70.45745086669922,51.793087005615234,70.42436981201172,52.28664779663086,70.05883026123047,52.897151947021484C69.99822235107422,52.897151947021484,69.93791961669922,52.897151947021484,69.87572479248047,52.897151947021484C69.87572479248047,52.017086029052734,69.87572479248047,51.137020111083984,69.87572479248047,50.23031234741211Z" style="fill: rgb(255, 255, 255);"/></g></g><g id="shape-8a45f9ab-8bef-804e-8007-ff221daa3925"><g class="fills" id="fills-8a45f9ab-8bef-804e-8007-ff221daa3925"><path d="M11.108451843261719,21.93221664428711C11.229240417480469,21.981136322021484,11.350090026855469,22.02999496459961,11.474540710449219,22.080379486083984C10.577384948730469,22.66219711303711,9.976127624511719,22.753170013427734,8.842887878417969,22.71004867553711C8.708122253417969,22.707378387451172,8.573356628417969,22.704708099365234,8.434501647949219,22.701961517333984C8.105216979980469,22.69503402709961,7.7760539054870605,22.684398651123047,7.4468913078308105,22.673015594482422C7.4468913078308105,22.624126434326172,7.4468913078308105,22.575206756591797,7.4468913078308105,22.524883270263672C7.6345133781433105,22.50692367553711,7.8220744132995605,22.488948822021484,8.015373229980469,22.47048568725586C8.264518737792969,22.445430755615234,8.513664245605469,22.420345306396484,8.762687683105469,22.395198822021484C8.886039733886719,22.383586883544922,9.009269714355469,22.371944427490234,9.136344909667969,22.359920501708984C9.850822448730469,22.28658676147461,10.444877624511719,22.15017318725586,11.108451843261719,21.93221664428711Z" style="fill: rgb(255, 255, 255);"/></g></g><g id="shape-8a45f9ab-8bef-804e-8007-ff221daa3926"><g class="fills" id="fills-8a45f9ab-8bef-804e-8007-ff221daa3926"><path d="M46.44200897216797,70.97238159179688C46.56273651123047,70.97238159179688,46.68358612060547,70.97238159179688,46.80815887451172,70.97238159179688C46.68730926513672,71.46127319335938,46.56652069091797,71.9501953125,46.44200897216797,72.45394897460938C46.26073455810547,72.50283813476562,46.07952117919922,72.55172729492188,45.89269256591797,72.60208129882812C45.94939422607422,72.38589477539062,46.00670623779297,72.16989135742188,46.06444549560547,71.95391845703125C46.09612274169922,71.83358764648438,46.12810516357422,71.71328735351562,46.16094207763672,71.58929443359375C46.25890350341797,71.2686767578125,46.25890350341797,71.2686767578125,46.44200897216797,70.97238159179688Z" style="fill: rgb(255, 255, 255);"/></g></g><g id="shape-8a45f9ab-8bef-804e-8007-ff221daa3927"><g class="fills" id="fills-8a45f9ab-8bef-804e-8007-ff221daa3927"><path d="M27.32201385498047,129.337158203125C27.54296112060547,129.34173583984375,27.54296112060547,129.34173583984375,27.76830291748047,129.346435546875C27.43645477294922,129.7908935546875,27.43645477294922,129.7908935546875,27.03600311279297,130.23532104492188C26.85472869873047,130.23532104492188,26.67357635498047,130.23532104492188,26.48668670654297,130.23532104492188C26.68315887451172,129.34976196289062,26.68315887451172,129.34976196289062,27.32201385498047,129.337158203125Z" style="fill: rgb(255, 255, 255);"/></g></g><g id="shape-8a45f9ab-8bef-804e-8007-ff221daa3928"><g class="fills" id="fills-8a45f9ab-8bef-804e-8007-ff221daa3928"><path d="M43.69585418701172,84.899169921875C43.35253143310547,85.05657958984375,43.35253143310547,85.05657958984375,42.96355438232422,85.19546508789062C42.84276580810547,85.14657592773438,42.72179412841797,85.09768676757812,42.59746551513672,85.04730224609375C42.53697967529297,85.19403076171875,42.47649383544922,85.34066772460938,42.41436004638672,85.49179077148438C42.05187225341797,85.39401245117188,41.68938446044922,85.29623413085938,41.31584930419922,85.19546508789062C42.11620330810547,84.83563232421875,42.80571746826172,84.6590576171875,43.69585418701172,84.899169921875Z" style="fill: rgb(255, 255, 255);"/></g></g><g id="shape-8a45f9ab-8bef-804e-8007-ff221daa6485"><g class="fills" id="fills-8a45f9ab-8bef-804e-8007-ff221daa6485"><path d="M39.30199432373047,85.63995361328125C38.66558074951172,85.95751953125,38.16472625732422,85.96780395507812,37.42552947998047,85.95480346679688C37.22820281982422,85.95208740234375,37.03093719482422,85.94943237304688,36.82762908935547,85.94668579101562C36.67754364013672,85.94326782226562,36.52751922607422,85.9398193359375,36.37279510498047,85.936279296875C36.37279510498047,85.88735961914062,36.37279510498047,85.83847045898438,36.37279510498047,85.78811645507812C36.72338104248047,85.73416137695312,37.07433319091797,85.68203735351562,37.42552947998047,85.63070678710938C37.62090301513672,85.60147094726562,37.81627655029297,85.572265625,38.01769256591797,85.54214477539062C38.52361297607422,85.49603271484375,38.82781219482422,85.5067138671875,39.30199432373047,85.63995361328125Z" style="fill: rgb(255, 255, 255);"/></g></g><g id="shape-8a45f9ab-8bef-804e-8007-ff221daa6486"><g class="fills" id="fills-8a45f9ab-8bef-804e-8007-ff221daa6486"><path d="M70.79094696044922,55.415828704833984C70.85131072998047,55.415828704833984,70.91191864013672,55.415828704833984,70.97411346435547,55.415828704833984C71.23711395263672,56.32540512084961,71.03386688232422,56.927608489990234,70.60796356201172,57.78634262084961C70.37560272216797,57.24502182006836,70.46929168701172,56.824703216552734,70.59648895263672,56.26772689819336C70.63219451904297,56.108089447021484,70.66783905029297,55.948360443115234,70.70446014404297,55.783931732177734C70.73308563232422,55.66244125366211,70.76165008544922,55.54098129272461,70.79094696044922,55.415828704833984Z" style="fill: rgb(255, 255, 255);"/></g></g><g id="shape-8a45f9ab-8bef-804e-8007-ff221daa6487"><g class="fills" id="fills-8a45f9ab-8bef-804e-8007-ff221daa6487"><path d="M1.0392374992370605,32.8958854675293C1.0996623039245605,32.8958854675293,1.1600871086120605,32.8958854675293,1.2223429679870605,32.8958854675293C1.2628703117370605,33.16108322143555,1.3005290031433105,33.42661666870117,1.3367838859558105,33.69224166870117C1.3579630851745605,33.84006881713867,1.3792033195495605,33.98786544799805,1.4011149406433105,34.140193939208984C1.4025187492370605,34.26737594604492,1.4039225578308105,34.39457321166992,1.4054484367370605,34.52561569213867C1.2845377922058105,34.623409271240234,1.1638102531433105,34.721187591552734,1.0392374992370605,34.82194137573242C0.8532633781433105,34.13605880737305,0.8858561515808105,33.58559799194336,1.0392374992370605,32.8958854675293Z" style="fill: rgb(255, 255, 255);"/></g></g><g id="shape-8a45f9ab-8bef-804e-8007-ff221daa6488"><g class="fills" id="fills-8a45f9ab-8bef-804e-8007-ff221daa6488"><path d="M42.41436004638672,33.04404830932617C42.89763641357422,33.04404830932617,43.38097381591797,33.04404830932617,43.87895965576172,33.04404830932617C43.63726043701172,33.09293746948242,43.39550018310547,33.141841888427734,43.14659881591797,33.19218063354492C43.14659881591797,33.33889389038086,43.14659881591797,33.48556137084961,43.14659881591797,33.63668441772461C42.96538543701172,33.68552780151367,42.78423309326172,33.73444747924805,42.59746551513672,33.784847259521484C42.53697967529297,33.54035568237305,42.47649383544922,33.29592514038086,42.41436004638672,33.04404830932617Z" style="fill: rgb(255, 255, 255);"/></g></g><g id="shape-8a45f9ab-8bef-804e-8007-ff221daaad37"><g class="fills" id="fills-8a45f9ab-8bef-804e-8007-ff221daaad37"><path d="M36.92211151123047,25.636180877685547C37.04283905029297,25.636180877685547,37.16362762451172,25.636180877685547,37.28826141357422,25.636180877685547C37.40904998779297,25.92953109741211,37.52989959716797,26.222850799560547,37.65435028076172,26.525081634521484C37.47301483154297,26.57400131225586,37.29180145263672,26.62289047241211,37.10515594482422,26.673274993896484C36.98430633544922,26.624385833740234,36.86345672607422,26.575481414794922,36.73900604248047,26.525081634521484C36.79930877685547,26.231761932373047,36.85985565185547,25.938411712646484,36.92211151123047,25.636180877685547Z" style="fill: rgb(255, 255, 255);"/></g></g><g id="shape-8a45f9ab-8bef-804e-8007-ff221daaad38"><g class="fills" id="fills-8a45f9ab-8bef-804e-8007-ff221daaad38"><path d="M31.97905731201172,25.488018035888672C32.22069549560547,25.683589935302734,32.46227264404297,25.879131317138672,32.71135711669922,26.080638885498047C32.65099334716797,26.178447723388672,32.59044647216797,26.276195526123047,32.52825164794922,26.376949310302734C32.22606658935547,26.376949310302734,31.92406463623047,26.376949310302734,31.61284637451172,26.376949310302734C31.73363494873047,26.083599090576172,31.85448455810547,25.79024887084961,31.97905731201172,25.488018035888672Z" style="fill: rgb(255, 255, 255);"/></g></g><g id="shape-8a45f9ab-8bef-804e-8007-ff221daaad39"><g class="fills" id="fills-8a45f9ab-8bef-804e-8007-ff221daaad39"><path d="M6.8976969718933105,36.59981918334961C7.0788493156433105,36.59981918334961,7.2602458000183105,36.59981918334961,7.4468913078308105,36.59981918334961C7.4468913078308105,36.74650192260742,7.4468913078308105,36.89315414428711,7.4468913078308105,37.04427719116211C7.2052531242370605,37.093196868896484,6.9634928703308105,37.142086029052734,6.7145915031433105,37.192440032958984C6.7145915031433105,37.29024887084961,6.7145915031433105,37.38802719116211,6.7145915031433105,37.48875045776367C6.5938029289245605,37.43989181518555,6.4728922843933105,37.39097213745117,6.3485026359558105,37.3405876159668C6.6916422843933105,36.7664909362793,6.6916422843933105,36.7664909362793,6.8976969718933105,36.59981918334961Z" style="fill: rgb(255, 255, 255);"/></g></g><g id="shape-8a45f9ab-8bef-804e-8007-ff221daaad3a"><g class="fills" id="fills-8a45f9ab-8bef-804e-8007-ff221daaad3a"><path d="M14.220756530761719,21.191417694091797C14.099906921386719,21.38698959350586,13.978996276855469,21.582561492919922,13.854606628417969,21.78408432006836C13.431571960449219,21.735164642333984,13.008781433105469,21.68630599975586,12.572990417480469,21.635921478271484C13.396842956542969,21.191417694091797,13.396842956542969,21.191417694091797,14.220756530761719,21.191417694091797Z" style="fill: rgb(255, 255, 255);"/></g></g><g id="shape-8a45f9ab-8bef-804e-8007-ff221daac3e9"><g class="fills" id="fills-8a45f9ab-8bef-804e-8007-ff221daac3e9"><path d="M40.76671600341797,32.30324935913086C40.88744354248047,32.35213851928711,41.00829315185547,32.4010124206543,41.13274383544922,32.451412200927734C41.16704559326172,32.87736129760742,41.16704559326172,32.87736129760742,41.13274383544922,33.3403434753418C40.95153045654297,33.43815231323242,40.77037811279297,33.53591537475586,40.58361053466797,33.63668441772461C40.56066131591797,32.63662338256836,40.56066131591797,32.63662338256836,40.76671600341797,32.30324935913086Z" style="fill: rgb(255, 255, 255);"/></g></g><g id="shape-8a45f9ab-8bef-804e-8007-ff221daac3ea"><g class="fills" id="fills-8a45f9ab-8bef-804e-8007-ff221daac3ea"><path d="M9.826896667480469,31.710613250732422C9.947807312011719,31.857280731201172,10.068534851074219,32.00399398803711,10.193046569824219,32.15511703491211C9.941276550292969,32.52549362182617,9.941276550292969,32.52549362182617,9.643791198730469,32.8958854675293C9.522880554199219,32.8958854675293,9.402091979980469,32.8958854675293,9.277580261230469,32.8958854675293C9.620903015136719,32.0439567565918,9.620903015136719,32.0439567565918,9.826896667480469,31.710613250732422Z" style="fill: rgb(255, 255, 255);"/></g></g><g id="shape-8a45f9ab-8bef-804e-8007-ff221dab1bcd"><g class="fills" id="fills-8a45f9ab-8bef-804e-8007-ff221dab1bcd"><path d="M48.08965301513672,31.710613250732422C48.02916717529297,31.857280731201172,47.96880340576172,32.00399398803711,47.90654754638672,32.15511703491211C47.43743133544922,32.33102035522461,47.43743133544922,32.33102035522461,46.99114227294922,32.451412200927734C46.87041473388672,32.35360336303711,46.74950408935547,32.25584030151367,46.62517547607422,32.15511703491211C47.67772674560547,31.710613250732422,47.67772674560547,31.710613250732422,48.08965301513672,31.710613250732422Z" style="fill: rgb(255, 255, 255);"/></g></g><g id="shape-8a45f9ab-8bef-804e-8007-ff221dab1bce"><g class="fills" id="fills-8a45f9ab-8bef-804e-8007-ff221dab1bce"><path d="M11.657646179199219,31.26613998413086C11.778495788574219,31.412837982177734,11.899284362792969,31.559490203857422,12.023796081542969,31.710613250732422C11.842643737792969,32.00399398803711,11.661247253417969,32.29734420776367,11.474540710449219,32.59957504272461C11.353752136230469,32.550655364990234,11.232841491699219,32.50179672241211,11.108451843261719,32.451412200927734C11.451652526855469,31.599483489990234,11.451652526855469,31.599483489990234,11.657646179199219,31.26613998413086Z" style="fill: rgb(255, 255, 255);"/></g></g><g id="shape-8a45f9ab-8bef-804e-8007-ff221dab1bcf"><g class="fills" id="fills-8a45f9ab-8bef-804e-8007-ff221dab1bcf"><path d="M28.68364715576172,0.0049249837175011635C29.10662078857422,0.0049249837175011635,29.52941131591797,0.0049249837175011635,29.96520233154297,0.0049249837175011635C29.90477752685547,0.2004968822002411,29.84441375732422,0.3960687816143036,29.78209686279297,0.5975306034088135C29.33025360107422,0.4269220530986786,29.04100799560547,0.2941553294658661,28.68364715576172,0.0049249837175011635Z" style="fill: rgb(255, 255, 255);"/></g></g></g></svg>