<svg width="139.675" xmlns="http://www.w3.org/2000/svg" height="139.623" id="screenshot-8a45f9ab-8bef-804e-8007-fef9298436dc" viewBox="-0 0 139.675 139.623" xmlns:xlink="http://www.w3.org/1999/xlink" fill="none" version="1.1"><g id="shape-8a45f9ab-8bef-804e-8007-fef9298436dc" xml:space="preserve" rx="0" ry="0" style="fill: rgb(0, 0, 0);"><g id="shape-8a45f9ab-8bef-804e-8007-fef929856787"><g class="fills" id="fills-8a45f9ab-8bef-804e-8007-fef929856787"><path d="M10.674748420715332,117.87499237060547C11.703373908996582,118.24927520751953,12.766118049621582,118.6011962890625,13.859501838684082,118.93075561523438L13.944279670715332,113.24195861816406C12.866337776184082,112.65486907958984,11.850285530090332,111.92015075683594,10.911381721496582,111.05720520019531L10.674748420715332,117.87499237060547Z" style="fill: rgb(255, 255, 255); fill-opacity: 1;"/></g></g><g id="shape-8a45f9ab-8bef-804e-8007-fef929856788"><g class="fills" id="fills-8a45f9ab-8bef-804e-8007-fef929856788"><path d="M35.466312408447266,67.17858123779297C32.911136627197266,68.16679382324219,29.73212242126465,68.59254455566406,26.61566734313965,68.59254455566406C24.8917293548584,68.59254455566406,23.18842124938965,68.46324157714844,21.6210994720459,68.22804260253906C17.5741024017334,67.62149047851562,14.783146858215332,66.28075408935547,12.864872932434082,64.79984283447266C11.197636604309082,71.0929183959961,5.822941780090332,92.337646484375,7.245182991027832,99.55604553222656C9.010869026184082,108.51766204833984,15.242802619934082,112.59908294677734,20.2857723236084,112.59908294677734C25.5208797454834,112.59908294677734,32.097965240478516,106.08401489257812,35.259525299072266,97.76667022705078C37.855106353759766,90.93970489501953,36.072757720947266,72.62590026855469,35.466312408447266,67.17858123779297Z" style="fill: rgb(255, 255, 255); fill-opacity: 1;"/></g></g><g id="shape-8a45f9ab-8bef-804e-8007-fef9298592f8"><g class="fills" id="fills-8a45f9ab-8bef-804e-8007-fef9298592f8"><path d="M16.21967124938965,114.2296371459961L16.1401424407959,119.57392883300781C17.28046226501465,119.87383270263672,18.44708824157715,120.1515884399414,19.6406307220459,120.40287017822266C20.21344566345215,120.52330780029297,20.7912654876709,120.63545227050781,21.3708553314209,120.74391174316406L21.52081871032715,114.80559539794922C21.1064510345459,114.86024475097656,20.6945858001709,114.8882827758789,20.2855281829834,114.8882827758789C18.88507652282715,114.88796997070312,17.5217342376709,114.6587905883789,16.21967124938965,114.2296371459961Z" style="fill: rgb(255, 255, 255); fill-opacity: 1;"/></g></g><g id="shape-8a45f9ab-8bef-804e-8007-fef92985ede7"><g class="fills" id="fills-8a45f9ab-8bef-804e-8007-fef92985ede7"><path d="M63.916019439697266,115.20529174804688C64.16883087158203,113.46290588378906,65.04370880126953,106.98552703857422,64.97730255126953,101.27301788330078C58.109989166259766,105.18416595458984,50.094608306884766,107.85591888427734,41.114078521728516,109.21695709228516C37.551090240478516,109.75684356689453,33.768314361572266,110.09901428222656,29.8665828704834,110.23863220214844C27.8830623626709,112.14873504638672,25.8422908782959,113.4923324584961,23.8258113861084,114.22736358642578L23.6512508392334,121.13525390625C25.3671932220459,121.40394592285156,27.1040096282959,121.61966705322266,28.84821128845215,121.78044128417969L29.0207576751709,114.9483642578125C29.03680992126465,114.31661224365234,29.55719566345215,113.81763458251953,30.19428062438965,113.8333740234375C30.8262996673584,113.84939575195312,31.32599449157715,114.37442016601562,31.3096981048584,115.00642395019531L31.1340389251709,121.9595718383789C32.873905181884766,122.0719985961914,34.614444732666016,122.13094329833984,36.342899322509766,122.13323974609375L36.547367095947266,114.04425811767578C36.563419342041016,113.41251373291016,37.082889556884766,112.91154479980469,37.720829010009766,112.92926788330078C38.352787017822266,112.9452896118164,38.852542877197266,113.47029113769531,38.836246490478516,114.1023178100586L38.634220123291016,122.10318756103516C38.754154205322266,122.0997543334961,38.874820709228516,122.09835815429688,38.994510650634766,122.09432983398438C40.656131744384766,122.04052734375,42.277591705322266,121.93153381347656,43.855777740478516,121.77473449707031L44.071842193603516,113.2216796875C44.087833404541016,112.58993530273438,44.608585357666016,112.08550262451172,45.245365142822266,112.106689453125C45.877323150634766,112.12271118164062,46.377140045166016,112.64773559570312,46.360782623291016,113.27973937988281L46.152957916259766,121.5063247680664C47.973941802978516,121.26061248779297,49.723941802978516,120.94439697265625,51.389957427978516,120.55960845947266L51.624210357666016,111.29669952392578C51.640201568603516,110.6649169921875,52.160892486572266,110.16452026367188,52.797611236572266,110.18170928955078C53.429752349853516,110.1977310180664,53.929447174072266,110.7227554321289,53.913028717041016,111.35478973388672L53.695499420166016,119.96879577636719C55.299015045166016,119.51475524902344,56.812259674072266,118.99459075927734,58.215335845947266,118.40604400634766C58.409122467041016,118.32477569580078,58.597415924072266,118.24040985107422,58.786624908447266,118.15655517578125L58.870853424072266,108.53913116455078C58.876590728759766,107.9071044921875,59.393619537353516,107.40068054199219,60.025760650634766,107.40465545654297C60.657962799072266,107.4104232788086,61.166080474853516,107.92715454101562,61.160587310791016,108.55915832519531L61.086734771728516,117.02210998535156C62.114505767822266,116.45614624023438,63.060001373291016,115.84962463378906,63.916019439697266,115.20529174804688Z" style="fill: rgb(255, 255, 255); fill-opacity: 1;"/></g></g><g id="shape-8a45f9ab-8bef-804e-8007-fef929861276"><g class="fills" id="fills-8a45f9ab-8bef-804e-8007-fef929861276"><path d="M50.719669342041016,31.224979400634766C50.666996002197266,31.243839263916016,49.512393951416016,31.680469512939453,48.240726470947266,33.36454391479492C49.694156646728516,33.951663970947266,51.498172760009766,34.0500602722168,53.199771881103516,33.59804153442383C55.304141998291016,33.03866958618164,56.965152740478516,31.72713851928711,57.876468658447266,29.90487289428711C60.027652740478516,25.604015350341797,56.002628326416016,14.484745979309082,51.651615142822266,10.1936616897583C46.987064361572266,5.59324312210083,37.017337799072266,0.055508144199848175,28.66791343688965,3.6573758125305176C23.78229331970215,5.764584064483643,20.28156089782715,10.126996040344238,18.21271324157715,16.655811309814453C20.13190269470215,19.551258087158203,22.7464656829834,22.003284454345703,25.9945125579834,23.946529388427734C29.4464168548584,26.01144027709961,33.712284088134766,27.565898895263672,38.673954010009766,28.566699981689453C38.987674713134766,28.629932403564453,39.260440826416016,28.821613311767578,39.426456451416016,29.09487533569336C39.592533111572266,29.368366241455078,39.636234283447266,29.698841094970703,39.547550201416016,30.00613784790039L36.030399322509766,42.176570892333984C35.886966705322266,42.67324447631836,35.432743072509766,43.00343704223633,34.931400299072266,43.00343704223633C34.864627838134766,43.00343704223633,34.796817779541016,42.99741744995117,34.728946685791016,42.98543167114258C29.23200035095215,42.00315475463867,24.6452693939209,40.44698715209961,21.09613609313965,38.3600959777832C18.85553550720215,37.04279708862305,16.9785213470459,35.4860954284668,15.486088752746582,33.71242904663086C15.008732795715332,38.41531753540039,14.643498420715332,42.58169174194336,14.636967658996582,42.65694046020508C14.607426643371582,42.99312973022461,14.431096076965332,43.2995719909668,14.154911994934082,43.493526458740234C14.136845588684082,43.50638961791992,12.030339241027832,45.030513763427734,11.173283576965332,47.56179428100586C10.200200080871582,50.435791015625,10.149479866027832,56.90339279174805,11.431218147277832,59.57999801635742C13.030034065246582,62.91865921020508,16.7692928314209,65.185791015625,21.96076011657715,65.96431732177734C28.41998863220215,66.93250274658203,35.081302642822266,65.79637908935547,37.456607818603516,63.32003402709961C38.984561920166016,61.72728729248047,39.331119537353516,57.23673629760742,39.203189849853516,53.798484802246094C36.632022857666016,55.33831024169922,33.670230865478516,56.12288284301758,30.3969783782959,56.12288284301758C29.0820369720459,56.12288284301758,27.71820640563965,55.996673583984375,26.3082332611084,55.74235534667969C21.31708335876465,54.84223175048828,17.22321128845215,49.72052764892578,17.05145835876465,49.502769470214844C16.6596736907959,49.006629943847656,16.74432945251465,48.287052154541016,17.2409725189209,47.89539337158203C17.73724937438965,47.50370407104492,18.45709800720215,47.588382720947266,18.8490047454834,48.08480453491211C18.8852596282959,48.13056564331055,22.58368492126465,52.74502182006836,26.71466636657715,53.489768981933594C32.942081451416016,54.61219787597656,37.943485260009766,53.03913497924805,41.579471588134766,48.81267547607422C44.377262115478516,45.560142517089844,44.507450103759766,41.85697555541992,44.622562408447266,38.59012222290039C44.697818756103516,36.446842193603516,44.763065338134766,34.59596633911133,45.597965240478516,33.19632339477539C47.586368560791016,29.862804412841797,49.792972564697266,29.11404800415039,50.037906646728516,29.039653778076172C50.643802642822266,28.855670928955078,51.282474517822266,29.197307586669922,51.466251373291016,29.802127838134766C51.648197174072266,30.401836395263672,51.314517974853516,31.035030364990234,50.719669342041016,31.224979400634766Z" style="fill: rgb(255, 255, 255); fill-opacity: 1;"/></g></g><g id="shape-8a45f9ab-8bef-804e-8007-fef929865d02"><g class="fills" id="fills-8a45f9ab-8bef-804e-8007-fef929865d02"><path d="M104.01715850830078,17.059803009033203C110.66950225830078,13.854763984680176,121.54145050048828,13.571782112121582,129.12005615234375,16.79482650756836C129.596923828125,16.99770736694336,130.06036376953125,17.221744537353516,130.51483154296875,17.459186553955078C129.4664306640625,14.89964771270752,126.42243194580078,11.198750495910645,117.58045196533203,11.198750495910645C109.21125030517578,11.198750495910645,105.57672882080078,14.501935005187988,104.01715850830078,17.059803009033203Z" style="fill: rgb(255, 255, 255); fill-opacity: 1;"/></g></g><g id="shape-8a45f9ab-8bef-804e-8007-fef929865d03"><g class="fills" id="fills-8a45f9ab-8bef-804e-8007-fef929865d03"><path d="M19.51556968688965,8.604863166809082C21.69232749938965,5.358036518096924,24.45783042907715,2.9804654121398926,27.76056480407715,1.5558514595031738C36.518741607666016,-2.2216830253601074,46.680728912353516,2.764721393585205,52.151371002197266,7.539638996124268C52.660831451416016,6.493336200714111,53.062137603759766,5.384113788604736,53.344120025634766,4.22446870803833C53.665470123291016,2.90348482131958,53.843265533447266,1.4869351387023926,53.875064849853516,-0.000003329711717015016L16.9587459564209,-0.000003329711717015016C17.1301326751709,1.79050874710083,17.4753475189209,3.4923062324523926,17.9888973236084,5.072788715362549C18.38934898376465,6.305088520050049,18.9022274017334,7.486149311065674,19.51556968688965,8.604863166809082Z" style="fill: rgb(255, 255, 255); fill-opacity: 1;"/></g></g><g id="shape-8a45f9ab-8bef-804e-8007-fef92986b428"><g class="fills" id="fills-8a45f9ab-8bef-804e-8007-fef92986b428"><path d="M100.68927764892578,19.235126495361328C100.88751983642578,18.337268829345703,101.51074981689453,16.258411407470703,103.31098175048828,14.192936897277832C104.13678741455078,13.245343208312988,105.28632354736328,12.22704792022705,106.85993194580078,11.339245796203613C102.47180938720703,11.43480396270752,97.88562774658203,11.56529712677002,93.60260772705078,11.68773365020752C86.83917999267578,11.880833625793457,80.73767852783203,12.054821968078613,76.85272979736328,12.055134773254395C75.33118438720703,12.055134773254395,74.15015411376953,12.028233528137207,73.40180206298828,11.965542793273926C70.89624786376953,11.755536079406738,68.87793731689453,11.140400886535645,66.92597198486328,10.54558277130127C64.92377471923828,9.935284614562988,63.032779693603516,9.359044075012207,60.631107330322266,9.191670417785645C57.935733795166016,9.004277229309082,55.757205963134766,9.45775318145752,54.422306060791016,9.862027168273926C56.382389068603516,12.284878730773926,58.228458404541016,15.796589851379395,59.421512603759766,19.454875946044922C60.987064361572266,24.25552749633789,61.170291900634766,28.437679290771484,59.924137115478516,30.929157257080078C58.714847564697266,33.34650802612305,56.535465240478516,35.08012008666992,53.787784576416016,35.810489654541016C51.512821197509766,36.41508102416992,49.141178131103516,36.25742721557617,47.191410064697266,35.409969329833984C46.998844146728516,36.28890609741211,46.955020904541016,37.41817855834961,46.910892486572266,38.671390533447266C46.788944244384766,42.13450241088867,46.637332916259766,46.44424819946289,43.315372467041016,50.30586242675781C42.714054107666016,51.00487518310547,42.074893951416016,51.640342712402344,41.402286529541016,52.21513748168945C41.586856842041016,54.53379821777344,41.931522369384766,61.96242904663086,39.109073638916016,64.90514373779297C38.689090728759766,65.34284973144531,38.193973541259766,65.73286437988281,37.647586822509766,66.08560943603516C38.150516510009766,70.32124328613281,40.370731353759766,90.76605987548828,37.399967193603516,98.58036041259766C36.113712310791016,101.96395874023438,34.258975982666016,105.17158508300781,32.068790435791016,107.84588623046875C35.075016021728516,107.67306518554688,37.992801666259766,107.37522888183594,40.771121978759766,106.95433807373047C49.926822662353516,105.5669937133789,58.028507232666016,102.7822494506836,64.87146759033203,98.68279266357422C64.86804962158203,98.6362075805664,64.86548614501953,98.58814239501953,64.86176300048828,98.54147338867188C64.65113067626953,95.8680191040039,64.08032989501953,93.18460083007812,63.419437408447266,90.077392578125C62.324344635009766,84.92904663085938,61.083255767822266,79.09375762939453,61.083255767822266,71.31005096435547C61.083255767822266,59.911041259765625,64.19733428955078,35.84798812866211,68.63501739501953,31.559459686279297C69.30280303955078,30.91427230834961,71.33521270751953,28.950092315673828,83.80225372314453,28.555530548095703C88.39618682861328,28.41049575805664,92.75482940673828,28.533519744873047,94.56348419189453,28.60018539428711C95.91126251220703,24.83523941040039,98.12671661376953,21.50112533569336,100.68927764892578,19.235126495361328L100.68927764892578,19.235126495361328" style="fill: rgb(255, 255, 255); fill-opacity: 1;"/></g></g><g id="shape-8a45f9ab-8bef-804e-8007-fef92986e423"><g class="fills" id="fills-8a45f9ab-8bef-804e-8007-fef92986e423"><path d="M67.46155548095703,116.53057098388672C66.86151885986328,116.25645446777344,66.19898223876953,116.3331527709961,65.68811798095703,116.73512268066406C63.853641510009766,118.17973327636719,61.637699127197266,119.4517822265625,59.101383209228516,120.515869140625C53.664920806884766,122.79646301269531,46.738040924072266,124.13341522216797,39.068973541259766,124.38154602050781C32.473209381103516,124.59552764892578,25.5907039642334,123.99382781982422,19.1689510345459,122.64278411865234C15.567692756652832,121.88516998291016,12.178227424621582,120.9061050415039,9.094426155090332,119.73274230957031C8.578068733215332,119.53620147705078,8.013371467590332,119.59571075439453,7.544560432434082,119.89553833007812C7.066838264465332,120.20110321044922,6.770573616027832,120.70010375976562,6.731938362121582,121.26458740234375L5.467106819152832,139.6233367919922L69.49652862548828,139.6233367919922L68.50305938720703,118.06383514404297C68.47156524658203,117.38746643066406,68.08234405517578,116.81411743164062,67.46155548095703,116.53057098388672Z" style="fill: rgb(255, 255, 255); fill-opacity: 1;"/></g></g><g id="shape-8a45f9ab-8bef-804e-8007-fef929872756"><g class="fills" id="fills-8a45f9ab-8bef-804e-8007-fef929872756"><path d="M128.2236328125,18.900959014892578C120.16980743408203,15.476140022277832,107.65766143798828,16.355670928955078,102.47724151611328,20.71120834350586C97.50330352783203,24.893299102783203,93.73340606689453,34.056087493896484,96.31598663330078,41.5662727355957C98.01355743408203,46.5025634765625,101.77686309814453,48.33858108520508,103.88037872314453,48.9954948425293C103.75067901611328,47.34434509277344,103.88776397705078,45.759552001953125,104.01136016845703,44.33102035522461C104.17572784423828,42.43034744262695,104.31763458251953,40.7891960144043,103.86402130126953,39.5051383972168C102.68842315673828,36.178775787353516,99.26898956298828,35.147891998291016,99.23462677001953,35.13789749145508C98.62928009033203,34.961666107177734,98.27838897705078,34.32844161987305,98.45233917236328,33.7227668762207C98.62610626220703,33.117069244384766,99.25489044189453,32.7642707824707,99.86170196533203,32.93655014038086C100.04804229736328,32.98915481567383,104.44477081298828,34.2769660949707,106.02301788330078,38.74263381958008C106.64179229736328,40.493350982666016,106.47235870361328,42.45321273803711,106.29261016845703,44.52809524536133C106.13062286376953,46.40073013305664,105.96546173095703,48.311710357666016,106.34522247314453,50.20490646362305C106.35242462158203,50.233768463134766,106.35846710205078,50.26271438598633,106.36334991455078,50.292171478271484C106.61975860595703,51.51589584350586,107.10803985595703,52.731842041015625,107.97583770751953,53.92494583129883C111.62042999267578,58.93538284301758,122.92102813720703,57.8589973449707,128.2236328125,55.848480224609375C133.832763671875,53.72178649902344,138.2220458984375,51.31501007080078,139.4605712890625,41.50161361694336C140.7373046875,31.384624481201172,136.22161865234375,22.302257537841797,128.2236328125,18.900959014892578Z" style="fill: rgb(255, 255, 255); fill-opacity: 1;"/></g></g><g id="shape-8a45f9ab-8bef-804e-8007-fef929877880"><g class="fills" id="fills-8a45f9ab-8bef-804e-8007-fef929877880"><path d="M9.365788459777832,60.5684928894043C8.547245979309082,58.858970642089844,8.201237678527832,56.255367279052734,8.178471565246582,53.69002914428711L0.000004888923740509199,41.766841888427734L0.000004888923740509199,83.3342514038086C1.9995166063308716,86.82315063476562,3.656255006790161,90.07108306884766,4.909306526184082,92.93246459960938C5.831852912902832,82.26589965820312,10.057621955871582,66.36458587646484,10.972294807434082,63.0098991394043C10.210453987121582,62.12153244018555,9.699833869934082,61.26634216308594,9.365788459777832,60.5684928894043Z" style="fill: rgb(255, 255, 255); fill-opacity: 1;"/></g></g><g id="shape-8a45f9ab-8bef-804e-8007-fef929877881"><g class="fills" id="fills-8a45f9ab-8bef-804e-8007-fef929877881"><path d="M22.2567195892334,36.38764572143555C25.35455894470215,38.20900344848633,29.3416805267334,39.6052360534668,34.119022369384766,40.5428581237793L37.006168365478516,30.552043914794922C32.300968170166016,29.49631118774414,28.20587730407715,27.93722152709961,24.8183650970459,25.910717010498047C21.87177085876465,24.147701263427734,19.39826011657715,21.992717742919922,17.43536949157715,19.487483978271484C17.16657066345215,20.633892059326172,16.9346981048584,21.83591079711914,16.74066734313965,23.093616485595703C16.4549617767334,24.945911407470703,16.1407527923584,27.57107162475586,15.843876838684082,30.298831939697266C17.2990779876709,32.69131851196289,19.4534969329834,34.739017486572266,22.2567195892334,36.38764572143555Z" style="fill: rgb(255, 255, 255); fill-opacity: 1;"/></g></g><g id="shape-8a45f9ab-8bef-804e-8007-fef929877882"><g class="fills" id="fills-8a45f9ab-8bef-804e-8007-fef929877882"><path d="M9.003972053527832,46.828182220458984C9.849308967590332,44.332096099853516,11.583378791809082,42.65092086791992,12.398991584777832,41.965396881103516C12.624455451965332,39.42900466918945,13.650822639465332,28.104930877685547,14.477482795715332,22.744564056396484C15.140324592590332,18.447711944580078,16.26434898376465,14.704777717590332,17.8154354095459,11.560696601867676C15.537114143371582,11.08177661895752,10.877385139465332,10.334980964660645,7.322819709777832,11.298909187316895C3.306218385696411,12.388699531555176,0.7144213914871216,15.37975788116455,0.000004888923740509199,16.29159164428711L0.000004888923740509199,37.719486236572266L8.376042366027832,49.93050765991211C8.520878791809082,48.69939422607422,8.737492561340332,47.615848541259766,9.003972053527832,46.828182220458984Z" style="fill: rgb(255, 255, 255); fill-opacity: 1;"/></g></g></g></svg>