<svg width="139.675" xmlns="http://www.w3.org/2000/svg" height="139.62" id="screenshot-8a45f9ab-8bef-804e-8007-fefc14666c50" viewBox="0 0 139.675 139.62" xmlns:xlink="http://www.w3.org/1999/xlink" fill="none" version="1.1"><g id="shape-8a45f9ab-8bef-804e-8007-fefc14666c50" xml:space="preserve" rx="0" ry="0" style="fill: rgb(0, 0, 0);"><g id="shape-8a45f9ab-8bef-804e-8007-fefc1467b44e"><g class="fills" id="fills-8a45f9ab-8bef-804e-8007-fefc1467b44e"><path d="M135.94317626953125,19.45469856262207C134.43508911132812,19.130815505981445,132.94992065429688,18.770341873168945,131.48849487304688,18.376070022583008L128.78570556640625,25.98625373840332C130.22628784179688,26.397371292114258,131.7020263671875,26.787065505981445,133.20806884765625,27.15611457824707L135.94317626953125,19.45469856262207Z" style="fill: rgb(255, 255, 255); fill-opacity: 1;"/></g></g><g id="shape-8a45f9ab-8bef-804e-8007-fefc1467b44f"><g class="fills" id="fills-8a45f9ab-8bef-804e-8007-fefc1467b44f"><path d="M109.72594451904297,18.262224197387695C111.04027557373047,18.999208450317383,112.4021224975586,19.707353591918945,113.8097152709961,20.385393142700195L116.54167938232422,12.692841529846191C115.16179656982422,11.994172096252441,113.8131332397461,11.250596046447754,112.4919662475586,10.472947120666504L109.72594451904297,18.262224197387695Z" style="fill: rgb(255, 255, 255); fill-opacity: 1;"/></g></g><g id="shape-8a45f9ab-8bef-804e-8007-fefc1467e9e2"><g class="fills" id="fills-8a45f9ab-8bef-804e-8007-fefc1467e9e2"><path d="M115.89568328857422,21.35386848449707C117.26232147216797,21.964418411254883,118.6688461303711,22.547792434692383,120.11254119873047,23.10313606262207L122.8100814819336,15.506989479064941C121.3893051147461,14.944245338439941,119.98885345458984,14.342835426330566,118.6141586303711,13.699372291564941L115.89568328857422,21.35386848449707Z" style="fill: rgb(255, 255, 255); fill-opacity: 1;"/></g></g><g id="shape-8a45f9ab-8bef-804e-8007-fefc1467e9e3"><g class="fills" id="fills-8a45f9ab-8bef-804e-8007-fefc1467e9e3"><path d="M110.49529266357422,9.253846168518066C110.3181381225586,9.141678810119629,110.13780975341797,9.032975196838379,109.96215057373047,8.919083595275879C109.23223114013672,8.447007179260254,108.3418197631836,8.344895362854004,107.5195541381836,8.639008522033691C106.68749237060547,8.936280250549316,106.05608367919922,9.588868141174316,105.78679656982422,10.429169654846191C105.2148666381836,12.213608741760254,104.7074203491211,13.659333229064941,104.25524139404297,14.836930274963379C105.3625717163086,15.612290382385254,106.5160140991211,16.363039016723633,107.71300506591797,17.088884353637695L110.49529266357422,9.253846168518066Z" style="fill: rgb(255, 255, 255); fill-opacity: 1;"/></g></g><g id="shape-8a45f9ab-8bef-804e-8007-fefc1467e9e4"><g class="fills" id="fills-8a45f9ab-8bef-804e-8007-fefc1467e9e4"><path d="M122.25969696044922,23.898530960083008C123.66271209716797,24.399202346801758,125.10555267333984,24.878129959106445,126.58760833740234,25.33390998840332L129.28173828125,17.747514724731445C127.80974578857422,17.307191848754883,126.36605072021484,16.829652786254883,124.95159149169922,16.31755256652832L122.25969696044922,23.898530960083008Z" style="fill: rgb(255, 255, 255); fill-opacity: 1;"/></g></g><g id="shape-8a45f9ab-8bef-804e-8007-fefc14685531"><g class="fills" id="fills-8a45f9ab-8bef-804e-8007-fefc14685531"><path d="M26.362911224365234,25.333345413208008C26.981136322021484,25.193437576293945,27.592769622802734,25.580842971801758,27.73214340209961,26.197099685668945C27.755672454833984,26.299531936645508,29.27199935913086,32.773834228515625,33.298213958740234,37.72749328613281C36.45089340209961,41.60627746582031,62.19100570678711,59.09968566894531,77.13353729248047,68.98896789550781C76.24370574951172,63.01451110839844,75.80516815185547,57.15702819824219,75.82894134521484,51.54188537597656C75.85985565185547,44.21012878417969,76.68218231201172,37.04942321777344,78.26982879638672,30.240938186645508C75.5504379272461,28.53831672668457,65.0403060913086,22.10521125793457,53.338008880615234,16.87144660949707C35.753658294677734,9.006348609924316,23.515071868896484,7.353806495666504,17.944393157958984,12.091462135314941C8.178095817565918,20.398286819458008,10.764307975769043,49.17176818847656,12.653132438659668,70.18116760253906C13.470271110534668,79.27421569824219,14.176386833190918,87.12730407714844,13.754176139831543,91.71015930175781C12.854304313659668,101.48213195800781,7.593348979949951,112.44148254394531,3.751704692840576,120.44389343261719C1.8223528861999512,124.46281433105469,-0.000004316003014537273,128.2588653564453,-0.000004316003014537273,129.52919006347656C-0.000004316003014537273,131.27732849121094,1.2851214408874512,132.51817321777344,2.487788677215576,133.0963897705078C3.702785015106201,133.68064880371094,5.487636089324951,133.9160614013672,6.853755474090576,132.82545471191406C9.307490348815918,130.86561584472656,8.004054069519043,127.67982482910156,7.947108745574951,127.54508972167969C7.817134380340576,127.23664855957031,7.828029155731201,126.88414001464844,7.977992534637451,126.58518981933594C8.128260612487793,126.28617858886719,8.400782585144043,126.06529235839844,8.725916862487793,125.98518371582031C8.771723747253418,125.97377014160156,13.403285026550293,124.80357360839844,16.06478500366211,122.36134338378906C17.443538665771484,121.09648132324219,18.29586410522461,119.31632995605469,19.19802474975586,117.43202209472656C20.044918060302734,115.66276550292969,20.920711517333984,113.83366394042969,22.297176361083984,112.36738586425781C22.971797943115234,111.64866638183594,24.606685638427734,110.47850036621094,30.988704681396484,108.62193298339844C33.232112884521484,107.96931457519531,34.965694427490234,106.33079528808594,35.744564056396484,104.12605285644531C36.52193832397461,101.92674255371094,36.20388412475586,99.56980895996094,34.872737884521484,97.65946960449219C31.526241302490234,92.85743713378906,29.82931137084961,88.89973449707031,29.82931137084961,85.89561462402344C29.82931137084961,81.72758483886719,31.502498626708984,75.49934387207031,33.120784759521484,69.47621154785156C34.592769622802734,63.99696350097656,36.11489486694336,58.33122253417969,36.16183090209961,54.86189270019531C36.24593734741211,48.59413146972656,34.62343978881836,42.98759460449219,34.218685150146484,41.69151306152344C32.94161605834961,40.63063049316406,32.00649642944336,39.76799011230469,31.521358489990234,39.17091369628906C27.13686752319336,33.776336669921875,25.56405258178711,26.988466262817383,25.499080657958984,26.702363967895508C25.359432220458984,26.085527420043945,25.746150970458984,25.472673416137695,26.362911224365234,25.333345413208008Z" style="fill: rgb(255, 255, 255); fill-opacity: 1;"/></g></g><g id="shape-8a45f9ab-8bef-804e-8007-fefc14685532"><g class="fills" id="fills-8a45f9ab-8bef-804e-8007-fefc14685532"><path d="M113.95623016357422,0.0000010724656931415666L111.9132308959961,7.441071510314941C115.83214569091797,9.907013893127441,120.0589828491211,12.018769264221191,124.4979476928711,13.714264869689941C129.22366333007812,15.519288063049316,134.324951171875,16.904054641723633,139.67431640625,17.84849739074707L139.67431640625,0.0000010724656931415666L113.95623016357422,0.0000010724656931415666Z" style="fill: rgb(255, 255, 255); fill-opacity: 1;"/></g></g><g id="shape-8a45f9ab-8bef-804e-8007-fefc14685533"><g class="fills" id="fills-8a45f9ab-8bef-804e-8007-fefc14685533"><path d="M121.11824798583984,98.57701110839844C116.78435516357422,98.35700988769531,112.39836883544922,97.67692565917969,108.05559539794922,96.55769348144531L112.75756072998047,139.62022399902344L139.67404174804688,139.62022399902344L139.67404174804688,96.78627014160156C134.56478881835938,98.02909851074219,129.40713500976562,98.65711975097656,124.28582000732422,98.65739440917969C123.22826385498047,98.65739440917969,122.1721420288086,98.63053894042969,121.11824798583984,98.57701110839844Z" style="fill: rgb(255, 255, 255); fill-opacity: 1;"/></g></g><g id="shape-8a45f9ab-8bef-804e-8007-fefc14685534"><g class="fills" id="fills-8a45f9ab-8bef-804e-8007-fefc14685534"><path d="M135.44967651367188,27.686281204223633C136.83303833007812,27.99986457824707,138.2418212890625,28.295991897583008,139.67404174804688,28.574373245239258L139.67404174804688,20.171388626098633C139.18490600585938,20.087282180786133,138.69573974609375,20.003740310668945,138.2105712890625,19.912187576293945L135.44967651367188,27.686281204223633Z" style="fill: rgb(255, 255, 255); fill-opacity: 1;"/></g></g><g id="shape-8a45f9ab-8bef-804e-8007-fefc14689637"><g class="fills" id="fills-8a45f9ab-8bef-804e-8007-fefc14689637"><path d="M103.35619354248047,16.998750686645508C102.47322845458984,18.930269241333008,101.86583709716797,19.641252517700195,101.43163299560547,20.001466751098633C100.1528549194336,21.061479568481445,98.8508529663086,21.514665603637695,97.70195770263672,21.91465950012207C96.69817352294922,22.263994216918945,95.83123016357422,22.565828323364258,95.05733489990234,23.21299934387207C94.11791229248047,23.998369216918945,93.68120574951172,25.526185989379883,93.5083236694336,26.581071853637695C98.06746673583984,28.28337287902832,102.4778060913086,32.65425109863281,102.67525482177734,32.85139465332031C103.12236785888672,33.29826354980469,103.12264251708984,34.02239990234375,102.67583465576172,34.46929931640625C102.22905731201172,34.91621398925781,101.50435638427734,34.91706848144531,101.05696868896484,34.47074890136719C101.00923919677734,34.42326354980469,96.24999237060547,29.711336135864258,91.95391082763672,28.47508430480957C89.44835662841797,27.754091262817383,86.09038543701172,27.598176956176758,83.7145004272461,27.59416389465332C83.7127914428711,27.59416389465332,83.7110824584961,27.59416389465332,83.7093734741211,27.59416389465332C82.26830291748047,27.59416389465332,81.02410125732422,28.57408332824707,80.6826400756836,29.979158401489258C79.01253509521484,36.85203552246094,78.1495590209961,44.10997009277344,78.1184310913086,51.55104064941406C78.0920639038086,57.84111022949219,78.65850067138672,64.44728088378906,79.80196380615234,71.18540954589844C80.15740203857422,73.28001403808594,81.43477630615234,75.06474304199219,83.3066635131836,76.08155822753906C87.46257781982422,78.33952331542969,94.03755950927734,81.17970275878906,101.7596664428711,81.88783264160156C114.08849334716797,83.01908874511719,125.70748138427734,80.24098205566406,125.8236312866211,80.21293640136719C126.43733978271484,80.06361389160156,127.0572738647461,80.44010925292969,127.2066879272461,81.05439758300781C127.3561019897461,81.66838073730469,126.97911834716797,82.28752136230469,126.36492156982422,82.43684387207031C125.96077728271484,82.53498840332031,117.9389877319336,84.45191955566406,107.98809051513672,84.45191955566406C106.30022430419922,84.45191955566406,104.5562973022461,84.39295959472656,102.78551483154297,84.26451110839844L102.73937225341797,88.17619323730469C102.70821380615234,90.82637023925781,104.48018646240234,93.18675231933594,107.04894256591797,93.91633605957031C111.7563705444336,95.25328063964844,116.5293197631836,96.05210876464844,121.2347640991211,96.29100036621094C127.3503646850586,96.60115051269531,133.5487060546875,95.97285461425781,139.67459106445312,94.42729187011719L139.67459106445312,30.904130935668945C132.31564331054688,29.495912551879883,125.55400848388672,27.628511428833008,119.56749725341797,25.34709358215332C113.48775482177734,23.030473709106445,108.0429916381836,20.224611282348633,103.35619354248047,16.998750686645508Z" style="fill: rgb(255, 255, 255); fill-opacity: 1;"/></g></g></g></svg>