<svg width="116.396" xmlns="http://www.w3.org/2000/svg" height="143.281" id="screenshot-8a45f9ab-8bef-804e-8007-fef846a8e416" viewBox="0 -0 116.396 143.281" xmlns:xlink="http://www.w3.org/1999/xlink" fill="none" version="1.1"><g id="shape-8a45f9ab-8bef-804e-8007-fef846a8e416" xml:space="preserve" rx="0" ry="0" style="fill: rgb(0, 0, 0);"><g id="shape-8a45f9ab-8bef-804e-8007-fef846aa6192"><g class="fills" id="fills-8a45f9ab-8bef-804e-8007-fef846aa6192"><path d="M50.16014862060547,26.649749755859375C52.08159637451172,30.5074462890625,52.17247772216797,35.01847839355469,50.40996551513672,39.02565002441406C48.95366668701172,42.33612060546875,46.42754364013672,44.8543701171875,43.37950897216797,46.08927917480469C43.85588836669922,48.16218566894531,43.84319305419922,50.34220886230469,43.33336639404297,52.72019958496094C43.04918670654297,54.04554748535156,42.60082244873047,55.27223205566406,42.04552459716797,56.39967346191406C44.51464080810547,58.65696716308594,49.79045867919922,62.63243103027344,56.31536102294922,62.63243103027344C61.41777801513672,62.63243103027344,65.75908660888672,60.18339538574219,68.50231170654297,58.12873840332031C70.86681365966797,56.35795593261719,72.95079803466797,54.18968200683594,74.28557586669922,52.12208557128906C73.76116180419922,51.03227233886719,73.33513641357422,49.85340881347656,73.06243133544922,48.581451416015625C72.55260467529297,46.20347595214844,72.53990936279297,44.023773193359375,73.01641082763672,41.95054626464844C69.96825408935547,40.71562194824219,67.44213104248047,38.1973876953125,65.98595428466797,34.886962890625C64.22332000732422,30.879791259765625,64.31432342529297,26.368698120117188,66.23589324951172,22.510665893554688C68.02886199951172,18.910781860351562,71.91539764404297,15.449692726135254,76.51757049560547,13.172455787658691C73.11803436279297,4.431443214416504,66.32738494873047,8.734972425372689e-7,56.31499481201172,8.734972425372689e-7C45.42919158935547,8.734972425372689e-7,38.36803436279297,5.223847389221191,35.30950164794922,15.529282569885254C35.43566131591797,15.565644264221191,35.56090545654297,15.602356910705566,35.68346405029297,15.639679908752441C42.02404022216797,17.569854736328125,47.84178924560547,21.994583129882812,50.16014862060547,26.649749755859375Z" style="fill: rgb(255, 255, 255); fill-opacity: 1;"/></g></g><g id="shape-8a45f9ab-8bef-804e-8007-fef846aaa244"><g class="fills" id="fills-8a45f9ab-8bef-804e-8007-fef846aaa244"><path d="M68.35350799560547,23.553054809570312C66.74242401123047,26.78802490234375,66.66851043701172,30.575851440429688,68.15074920654297,33.94621276855469C69.33116912841797,36.62977600097656,71.33226776123047,38.67919921875,73.73717498779297,39.70857238769531C74.29991912841797,38.357086181640625,74.99376678466797,37.23435974121094,75.62346649169922,36.221405029296875C76.25225067138672,35.21022033691406,76.79558563232422,34.33702087402344,76.97124481201172,33.573577880859375C77.52660369873047,31.160720825195312,75.53722381591797,29.46307373046875,75.45183563232422,29.392059326171875C74.95439910888672,28.976028442382812,74.88622283935547,28.236679077148438,75.30144500732422,27.740203857421875C75.71715545654297,27.244003295898438,76.45531463623047,27.171173095703125,76.95745086669922,27.581634521484375C77.08861541748047,27.6888427734375,80.15972137451172,30.251449584960938,79.27471160888672,34.097381591796875C79.01152801513672,35.240447998046875,78.34215545654297,36.31684875488281,77.63323211669922,37.456329345703125C76.90538787841797,38.62693786621094,76.08019256591797,39.95378112792969,75.56414031982422,41.56416320800781C74.92284393310547,43.56513977050781,74.86028289794922,45.70030212402344,75.37328338623047,48.09173583984375C76.82219696044922,54.85057067871094,83.50255584716797,58.85188293457031,84.76708221435547,59.55506896972656C88.72264862060547,59.80378723144531,92.42943572998047,59.48487854003906,95.78441619873047,58.59822082519531C99.03075408935547,57.74024963378906,102.04186248779297,56.32563781738281,104.74144744873047,54.39903259277344C107.61815643310547,50.20127868652344,109.32665252685547,39.02239990234375,107.19963836669922,29.3858642578125C106.16844940185547,24.714569091796875,103.81389617919922,18.510543823242188,98.45494842529297,15.483506202697754C91.86815643310547,11.762894630432129,85.54753875732422,12.485703468322754,81.40416717529297,13.747101783752441C74.79015350341797,15.760621070861816,70.00261688232422,20.241714477539062,68.35350799560547,23.553054809570312Z" style="fill: rgb(255, 255, 255); fill-opacity: 1;"/></g></g><g id="shape-8a45f9ab-8bef-804e-8007-fef846aaf61c"><g class="fills" id="fills-8a45f9ab-8bef-804e-8007-fef846aaf61c"><path d="M106.29369354248047,56.18702697753906C103.31670379638672,58.34361267089844,99.98534393310547,59.91886901855469,96.39208221435547,60.86872863769531C92.71508026123047,61.84053039550781,88.66637420654297,62.18318176269531,84.35765838623047,61.88603210449219C84.31993865966797,61.88343811035156,84.28209686279297,61.88224792480469,84.24437713623047,61.88224792480469C83.78026580810547,61.88224792480469,83.34197235107422,62.07896423339844,83.02825164794922,62.43244934082031C82.68083953857422,62.82411193847656,82.53966522216797,63.34178161621094,82.64037322998047,63.85298156738281L82.64037322998047,63.85298156738281L84.93285369873047,75.45375061035156C85.32567596435547,77.44148254394531,87.02922821044922,78.91777038574219,89.07512664794922,79.04429626464844C93.54814910888672,79.31965637207031,97.69084930419922,78.93653869628906,101.38811492919922,77.90425109863281C104.94640350341797,76.91062927246094,108.20104217529297,75.28425598144531,111.06200408935547,73.07081604003906C112.57360076904297,71.90077209472656,113.18883514404297,69.91447448730469,112.59270477294922,68.12818908691406L108.87236785888672,56.98277282714844C108.70476531982422,56.48039245605469,108.31877899169922,56.09992980957031,107.81340789794922,55.93898010253906C107.29509735107422,55.77336120605469,106.73992156982422,55.86320495605469,106.29369354248047,56.18702697753906Z" style="fill: rgb(255, 255, 255); fill-opacity: 1;"/></g></g><g id="shape-8a45f9ab-8bef-804e-8007-fef846ab3a8d"><g class="fills" id="fills-8a45f9ab-8bef-804e-8007-fef846ab3a8d"><path d="M20.61089324951172,62.73686218261719C23.96611785888672,63.62364196777344,27.67296600341797,63.94279479980469,31.62847137451172,63.69380187988281C32.88951873779297,62.99269104003906,39.57292938232422,58.99107360839844,41.02227020263672,52.23063659667969C41.53514862060547,49.83897399902344,41.47252655029297,47.703826904296875,40.83147430419922,45.70318603515625C40.31542205810547,44.092742919921875,39.49040985107422,42.765960693359375,38.76238250732422,41.595306396484375C38.05364227294922,40.45582580566406,37.38402557373047,39.37940979003906,37.12090301513672,38.23612976074219C36.23589324951172,34.38984680175781,39.30669403076172,31.827804565429688,39.43810272216797,31.720657348632812C39.94213104248047,31.309005737304688,40.68675994873047,31.380645751953125,41.10106658935547,31.88177490234375C41.51415252685547,32.381561279296875,41.44322967529297,33.11851501464844,40.94341278076172,33.5313720703125C40.85100555419922,33.60920715332031,38.87047576904297,35.304473876953125,39.42449188232422,37.71232604980469C39.60033416748047,38.4757080078125,40.14354705810547,39.348907470703125,40.77245330810547,40.360382080078125C41.40251922607422,41.37310791015625,42.09600067138672,42.49610900878906,42.65874481201172,43.84761047363281C45.06328582763672,42.81788635253906,47.06438446044922,40.768463134765625,48.24504852294922,38.085235595703125C49.72765350341797,34.714874267578125,49.65373992919922,30.927001953125,48.04253387451172,27.692367553710938C46.39330291748047,24.381027221679688,41.60594940185547,19.89959716796875,34.99144744873047,17.8863525390625C30.84862518310547,16.6253662109375,24.52745819091797,15.902771949768066,17.94060516357422,19.622802734375C12.581414222717285,22.649856567382812,10.227166175842285,28.8538818359375,9.195977210998535,33.52546691894531C7.068596363067627,43.16200256347656,8.777459144592285,54.34086608886719,11.654168128967285,58.53834533691406C14.353753089904785,60.46440124511719,17.36492156982422,61.87901306152344,20.61089324951172,62.73686218261719Z" style="fill: rgb(255, 255, 255); fill-opacity: 1;"/></g></g><g id="shape-8a45f9ab-8bef-804e-8007-fef846ab5647"><g class="fills" id="fills-8a45f9ab-8bef-804e-8007-fef846ab5647"><path d="M87.49169158935547,81.14094543457031C85.03887176513672,80.45567321777344,83.11858367919922,78.46028137207031,82.61400604248047,75.90641784667969L81.64739227294922,71.01435852050781C75.64208221435547,72.70939636230469,67.13469696044922,75.43788146972656,65.37181854248047,76.89710998535156C62.95201873779297,78.89949035644531,62.19524383544922,81.73075866699219,62.18822479248047,81.75929260253906C62.05040740966797,82.28923034667969,61.56987762451172,82.64247131347656,61.04320526123047,82.64247131347656C60.94719696044922,82.64247131347656,60.84954071044922,82.63066101074219,60.75188446044922,82.60606384277344C60.12102508544922,82.44636535644531,59.73857879638672,81.81153869628906,59.89690399169922,81.18382263183594C59.93346405029297,81.03846740722656,60.82964324951172,77.59941101074219,63.85979461669922,75.09208679199219C65.79839324951172,73.48735046386719,72.73674774169922,71.21250915527344,77.55022430419922,69.76387023925781L72.44371795654297,68.77174377441406C69.88738250732422,68.27497863769531,68.03136444091797,66.03501892089844,68.03136444091797,63.44602966308594L68.03136444091797,61.31025695800781C65.04772186279297,63.19697570800781,60.98943328857422,64.98188781738281,56.31499481201172,64.98188781738281C51.66973114013672,64.98188781738281,47.62828826904297,63.22282409667969,44.59886932373047,61.30348205566406L44.59886932373047,63.44602966308594C44.59886932373047,66.03501892089844,42.74358367919922,68.27497863769531,40.18669891357422,68.77174377441406L35.84233856201172,69.61585998535156L35.42656707763672,71.72074890136719C38.44567108154297,72.26072692871094,45.83440399169922,73.75108337402344,48.28643035888672,75.77989196777344C51.20653533935547,78.19694519042969,52.58159637451172,80.82292175292969,52.63854217529297,80.93363952636719C52.93669891357422,81.51057434082031,52.70751190185547,82.21855163574219,52.12706756591797,82.51469421386719C51.95446014404297,82.60282897949219,51.77025604248047,82.64445495605469,51.58849334716797,82.64445495605469C51.16063690185547,82.64445495605469,50.74736785888672,82.41227722167969,50.53752899169922,82.00822448730469C50.52135467529297,81.97743225097656,49.30101776123047,79.67668151855469,46.77434539794922,77.58531188964844C44.93407440185547,76.06208801269531,38.42168426513672,74.64598083496094,34.97100067138672,74.02644348144531L33.78179168701172,80.04515075683594C33.27733612060547,82.59901428222656,31.35704803466797,84.59440612792969,28.90410614013672,85.27967834472656C30.30718231201172,90.09898376464844,34.88597869873047,107.20518493652344,32.54326629638672,117.80360412597656C30.86052703857422,125.41691589355469,27.75389862060547,130.97901916503906,23.62743377685547,134.0498809814453L24.49626922607422,143.28123474121094L88.13372039794922,143.28123474121094L89.67528533935547,126.90867614746094C87.07830047607422,123.70600891113281,85.08379364013672,119.23527526855469,83.85253143310547,113.66459655761719C81.50988006591797,103.06645202636719,86.08873748779297,85.96022033691406,87.49169158935547,81.14094543457031Z" style="fill: rgb(255, 255, 255); fill-opacity: 1;"/></g></g><g id="shape-8a45f9ab-8bef-804e-8007-fef846ab85e0"><g class="fills" id="fills-8a45f9ab-8bef-804e-8007-fef846ab85e0"><path d="M5.333549976348877,77.20921325683594C8.193963050842285,79.42271423339844,11.448601722717285,81.04878234863281,15.007439613342285,82.04261779785156C18.70446014404297,83.07493591308594,22.84661102294922,83.45686340332031,27.32048797607422,83.18269348144531C29.36669158935547,83.05613708496094,31.06993865966797,81.57987976074219,31.46276092529297,79.59214782714844L33.75518035888672,67.99131774902344L33.75518035888672,67.99131774902344C33.85625457763672,67.48020935058594,33.71471405029297,66.96253967285156,33.36736297607422,66.57087707519531C33.02831268310547,66.18891906738281,32.53850555419922,65.98921203613281,32.03789520263672,66.02445983886719C27.72936248779297,66.32072448730469,23.68041229248047,65.97871398925781,20.00383758544922,65.00706481933594C16.41045379638672,64.05763244628906,13.079094886779785,62.48234558105469,10.101922035217285,60.32554626464844C9.802056312561035,60.10816955566406,9.453789710998535,59.99607849121094,9.099663734436035,59.99607849121094C8.926568031311035,59.99607849121094,8.752556800842285,60.02284240722656,8.582146644592285,60.07710266113281C8.076775550842285,60.23805236816406,7.690788745880127,60.61851501464844,7.523247241973877,61.12113952636719L3.802910327911377,72.26658630371094C3.206718921661377,74.05299377441406,3.822014331817627,76.03889465332031,5.333549976348877,77.20921325683594Z" style="fill: rgb(255, 255, 255); fill-opacity: 1;"/></g></g><g id="shape-8a45f9ab-8bef-804e-8007-fef846ab85e1"><g class="fills" id="fills-8a45f9ab-8bef-804e-8007-fef846ab85e1"><path d="M111.08159637451172,75.95957946777344C108.33800506591797,77.83607482910156,105.30205535888672,79.25126647949219,102.02739715576172,80.16526794433594C98.89629364013672,81.03971862792969,95.48052215576172,81.47978210449219,91.84130096435547,81.47978210449219C91.19207000732422,81.47978210449219,90.53368377685547,81.46034240722656,89.87078094482422,81.43251037597656C88.68248748779297,85.49955749511719,83.90325164794922,102.94639587402344,86.16112518310547,113.16044616699219C88.56908416748047,124.05604553222656,93.97008514404297,130.3052215576172,100.97881317138672,130.3052215576172C108.63134002685547,130.3052215576172,114.57866668701172,123.36775207519531,116.13079071044922,112.63169860839844C117.59062957763672,102.53297424316406,112.61156463623047,81.92607116699219,111.08159637451172,75.95957946777344Z" style="fill: rgb(255, 255, 255); fill-opacity: 1;"/></g></g><g id="shape-8a45f9ab-8bef-804e-8007-fef846abcafb"><g class="fills" id="fills-8a45f9ab-8bef-804e-8007-fef846abcafb"><path d="M26.52501678466797,85.57063293457031C25.86223602294922,85.59852600097656,25.20354461669922,85.61784362792969,24.55480194091797,85.61784362792969C20.91509246826172,85.61784362792969,17.49913787841797,85.17805480957031,14.368523597717285,84.30335998535156C11.093560218811035,83.38887023925781,8.057610511779785,81.97358703613281,5.314201831817627,80.09776306152344C3.784233570098877,86.06446838378906,-1.195075511932373,106.67109680175781,0.26500752568244934,116.76945495605469C1.817375659942627,127.50566101074219,7.764580249786377,134.44300842285156,15.416985511779785,134.44300842285156C22.42595672607422,134.44300842285156,27.82683563232422,128.1941680908203,30.23479461669922,117.29856872558594C32.49279022216797,107.08476257324219,27.71343231201172,89.63801574707031,26.52501678466797,85.57063293457031Z" style="fill: rgb(255, 255, 255); fill-opacity: 1;"/></g></g></g></svg>