<svg width="139.675" xmlns="http://www.w3.org/2000/svg" height="139.667" id="screenshot-8a45f9ab-8bef-804e-8007-fefd4d11e9b9" viewBox="0 0 139.675 139.667" xmlns:xlink="http://www.w3.org/1999/xlink" fill="none" version="1.1"><g id="shape-8a45f9ab-8bef-804e-8007-fefd4d11e9b9" xml:space="preserve" rx="0" ry="0" style="fill: rgb(0, 0, 0);"><g id="shape-8a45f9ab-8bef-804e-8007-fefd4d1360a1"><g class="fills" id="fills-8a45f9ab-8bef-804e-8007-fefd4d1360a1"><path d="M23.692358016967773,108.13935089111328C22.741735458374023,107.71561431884766,21.797765731811523,107.27069091796875,20.861242294311523,106.80261993408203L20.097265243530273,116.2061996459961C20.940832138061523,116.96784973144531,21.908605575561523,117.69773864746094,22.983922958374023,118.38644409179688L23.692358016967773,108.13935089111328Z" style="fill: rgb(255, 255, 255); fill-opacity: 1;"/></g></g><g id="shape-8a45f9ab-8bef-804e-8007-fefd4d1360a2"><g class="fills" id="fills-8a45f9ab-8bef-804e-8007-fefd4d1360a2"><path d="M34.339515686035156,49.315799713134766C32.748939514160156,46.677215576171875,31.678442001342773,43.97423553466797,31.159521102905273,41.26527404785156C30.609350204467773,38.39177703857422,30.663732528686523,35.440162658691406,31.314916610717773,32.47053527832031C26.704015731811523,32.71259307861328,12.89029598236084,33.66193389892578,7.37381649017334,36.53486633300781C1.1614751815795898,39.770301818847656,-0.8727656006813049,46.38252258300781,0.32883355021476746,51.24196243286133C1.6749639511108398,56.68710708618164,6.46274471282959,59.27477264404297,13.80966854095459,58.523406982421875C21.067052841186523,57.782936096191406,31.281164169311523,51.34123992919922,34.339515686035156,49.315799713134766Z" style="fill: rgb(255, 255, 255); fill-opacity: 1;"/></g></g><g id="shape-8a45f9ab-8bef-804e-8007-fefd4d13b55c"><g class="fills" id="fills-8a45f9ab-8bef-804e-8007-fefd4d13b55c"><path d="M73.7919692993164,129.3900146484375C73.3691177368164,127.80345916748047,72.9701919555664,126.3050765991211,72.4461441040039,124.90852355957031C72.22293853759766,124.31368255615234,71.77555084228516,123.85844421386719,71.18692779541016,123.62642669677734C70.59305572509766,123.39236450195312,69.94876861572266,123.42127990722656,69.3729019165039,123.70738220214844C67.0990982055664,124.8358383178711,64.37760162353516,125.7225570678711,61.284278869628906,126.34254455566406C55.938148498535156,127.41407012939453,49.533424377441406,127.64324951171875,43.249549865722656,126.988037109375C35.163551330566406,126.1451187133789,27.803503036499023,123.94573974609375,22.524572372436523,120.79498291015625C20.832067489624023,119.78469848632812,19.349340438842773,118.67340087890625,18.118322372436523,117.4923095703125C17.561315536499023,116.95785522460938,16.783117294311523,116.74781799316406,16.034276962280273,116.92950439453125C15.30008602142334,117.10806274414062,14.73990535736084,117.61760711669922,14.49747371673584,118.3277816772461C13.55435848236084,121.08997344970703,12.80869197845459,123.9162826538086,12.28122615814209,126.72766876220703C11.49869441986084,130.89700317382812,11.15720272064209,135.2445831298828,11.26456356048584,139.66712951660156L75.46585845947266,139.66712951660156C75.3527603149414,136.5123748779297,74.91251373291016,133.51327514648438,74.15433502197266,130.737060546875C74.02896881103516,130.279541015625,73.9092788696289,129.83062744140625,73.7919692993164,129.3900146484375Z" style="fill: rgb(255, 255, 255); fill-opacity: 1;"/></g></g><g id="shape-8a45f9ab-8bef-804e-8007-fefd4d13b55d"><g class="fills" id="fills-8a45f9ab-8bef-804e-8007-fefd4d13b55d"><path d="M25.922094345092773,109.0849838256836L25.191076278686523,119.65737915039062C26.467626571655273,120.3246078491211,27.850072860717773,120.93919372558594,29.324193954467773,121.49597930908203L30.076391220092773,110.6148681640625C28.679296493530273,110.15077209472656,27.294286727905273,109.64091491699219,25.922094345092773,109.0849838256836Z" style="fill: rgb(255, 255, 255); fill-opacity: 1;"/></g></g><g id="shape-8a45f9ab-8bef-804e-8007-fefd4d13d829"><g class="fills" id="fills-8a45f9ab-8bef-804e-8007-fefd4d13d829"><path d="M58.555641174316406,15.710235595703125C58.217018127441406,18.39203643798828,58.709083557128906,20.942787170410156,60.056617736816406,23.46979522705078L65.2852554321289,21.878692626953125C64.3807144165039,19.132225036621094,64.1554946899414,16.495925903320312,64.6091079711914,14.009544372558594C62.180152893066406,14.239585876464844,59.971412658691406,14.833854675292969,58.555641174316406,15.710235595703125Z" style="fill: rgb(255, 255, 255); fill-opacity: 1;"/></g></g><g id="shape-8a45f9ab-8bef-804e-8007-fefd4d140ce2"><g class="fills" id="fills-8a45f9ab-8bef-804e-8007-fefd4d140ce2"><path d="M71.4772720336914,42.11247253417969C73.25016021728516,42.501869201660156,75.8527603149414,42.34593963623047,77.8394546508789,40.73823547363281C81.88248443603516,37.465904235839844,81.8525161743164,31.38671875,81.65152740478516,28.924949645996094C81.26309967041016,24.15704345703125,79.31534576416016,18.176010131835938,75.0143814086914,15.687637329101562C72.90006256103516,14.4644775390625,69.9104995727539,13.916267395019531,66.97025299072266,13.903968811035156C66.3829116821289,16.46015167236328,66.6711196899414,19.24695587158203,67.8372573852539,22.20343017578125C67.9543228149414,22.500709533691406,67.9419937133789,22.833175659179688,67.80289459228516,23.121009826660156C67.6640396118164,23.40856170654297,67.41104888916016,23.625160217285156,67.1053237915039,23.71814727783203L59.847694396972656,25.926406860351562C59.737220764160156,25.959884643554688,59.625282287597656,25.97620391845703,59.514198303222656,25.97620391845703C59.121009826660156,25.97620391845703,58.744850158691406,25.77277374267578,58.533607482910156,25.422271728515625C57.079566955566406,23.01056671142578,56.296485900878906,20.503585815429688,56.183692932128906,17.937965393066406C55.420326232910156,18.93395233154297,54.836097717285156,20.024635314941406,54.233924865722656,21.152809143066406C53.464210510253906,22.594833374023438,52.667884826660156,24.08551788330078,51.452919006347656,25.43199920654297C49.276954650878906,27.842559814453125,46.712318420410156,29.371009826660156,45.574623107910156,29.98101043701172C45.391395568847656,31.9466552734375,45.519569396972656,33.955780029296875,45.963294982910156,35.96348571777344C46.552345275878906,38.62696075439453,47.718482971191406,41.37886047363281,49.418067932128906,44.14936065673828C50.721595764160156,44.33075714111328,54.437721252441406,44.63518524169922,56.569007873535156,42.63377380371094C57.717018127441406,41.55567169189453,58.525306701660156,39.38661193847656,59.307350158691406,37.28936004638672C60.458778381347656,34.19984436035156,61.650062561035156,31.00531768798828,64.3398208618164,30.98700714111328C64.3500747680664,30.98700714111328,64.3604507446289,30.98700714111328,64.3704605102539,30.98700714111328C67.52555084228516,30.98700714111328,67.7319107055664,34.273658752441406,67.8830337524414,36.67591857910156C67.9662857055664,38.000640869140625,68.0524673461914,39.37030792236328,68.47891998291016,40.23638916015625C68.90030670166016,41.090736389160156,70.02115631103516,41.79228973388672,71.4772720336914,42.11247253417969Z" style="fill: rgb(255, 255, 255); fill-opacity: 1;"/></g></g><g id="shape-8a45f9ab-8bef-804e-8007-fefd4d1459e2"><g class="fills" id="fills-8a45f9ab-8bef-804e-8007-fefd4d1459e2"><path d="M44.510108947753906,26.334129333496094C44.865882873535156,26.659454345703125,45.141273498535156,27.05115509033203,45.336463928222656,27.47803497314453C46.504859924316406,26.771041870117188,48.251441955566406,25.561317443847656,49.752662658691406,23.898391723632812C50.780006408691406,22.760215759277344,51.476112365722656,21.455795288085938,52.213722229003906,20.074989318847656C53.321937561035156,17.999481201171875,54.467750549316406,15.853012084960938,56.814857482910156,14.123420715332031C60.704994201660156,11.256797790527344,70.5936050415039,10.48626708984375,76.16129302978516,13.706832885742188C78.45291900634766,15.032707214355469,80.07096099853516,17.012939453125,81.21732330322266,19.1253662109375C81.30289459228516,18.79974365234375,81.38358306884766,18.47272491455078,81.4592056274414,18.144821166992188C82.9220962524414,11.786109924316406,82.42093658447266,5.374466419219971,80.05460357666016,4.431021523032541e-7L46.698585510253906,0.04035231098532677C44.968360900878906,2.8626179695129395,43.700660705566406,5.9921956062316895,42.927833557128906,9.353240966796875C41.636024475097656,14.967193603515625,41.898536682128906,20.770263671875,43.653114318847656,25.760177612304688C43.961097717285156,25.90924835205078,44.251991271972656,26.097793579101562,44.510108947753906,26.334129333496094Z" style="fill: rgb(255, 255, 255); fill-opacity: 1;"/></g></g><g id="shape-8a45f9ab-8bef-804e-8007-fefd4d1459e3"><g class="fills" id="fills-8a45f9ab-8bef-804e-8007-fefd4d1459e3"><path d="M32.323036193847656,111.3198471069336L31.565343856811523,122.27737426757812C32.902381896972656,122.70510864257812,34.300270080566406,123.08736419677734,35.746376037597656,123.42326354980469L36.507667541503906,112.41026306152344C35.102333068847656,112.09180450439453,33.707252502441406,111.72758483886719,32.323036193847656,111.3198471069336Z" style="fill: rgb(255, 255, 255); fill-opacity: 1;"/></g></g><g id="shape-8a45f9ab-8bef-804e-8007-fefd4d14893d"><g class="fills" id="fills-8a45f9ab-8bef-804e-8007-fefd4d14893d"><path d="M66.42496490478516,41.24639129638672C65.79642486572266,39.96971130371094,65.6956558227539,38.36772918701172,65.59806060791016,36.818702697753906C65.4191665649414,33.97637176513672,65.17642974853516,33.27510070800781,64.3649673461914,33.27510070800781C64.3615493774414,33.27510070800781,64.35868072509766,33.27510070800781,64.3555679321289,33.27510070800781C63.244117736816406,33.28253173828125,62.292701721191406,35.835304260253906,61.452919006347656,38.087623596191406C60.578712463378906,40.43180847167969,59.675392150878906,42.85609436035156,58.136878967285156,44.300987243652344C57.962318420410156,44.46495056152344,57.779396057128906,44.61400604248047,57.593360900878906,44.75621032714844C58.715126037597656,45.33959197998047,60.428443908691406,45.98594665527344,62.527076721191406,45.98594665527344C64.9551773071289,45.98594665527344,67.10050201416016,44.37738800048828,68.29691314697266,43.260948181152344C67.4588394165039,42.718467712402344,66.81253814697266,42.033782958984375,66.42496490478516,41.24639129638672Z" style="fill: rgb(255, 255, 255); fill-opacity: 1;"/></g></g><g id="shape-8a45f9ab-8bef-804e-8007-fefd4d14cb00"><g class="fills" id="fills-8a45f9ab-8bef-804e-8007-fefd4d14cb00"><path d="M36.853492736816406,49.01938247680664C37.967201232910156,50.71922302246094,40.258155822753906,51.29861831665039,42.068885803222656,50.33810043334961L47.253334045410156,47.58792495727539C47.573890686035156,47.417686462402344,47.801490783691406,47.131866455078125,47.894203186035156,46.7830696105957C47.983802795410156,46.44488525390625,47.931190490722656,46.0975341796875,47.745643615722656,45.80482482910156C45.756568908691406,42.663818359375,44.404518127441406,39.518798828125,43.727516174316406,36.45703887939453C43.182044982910156,33.99012756347656,43.059486389160156,31.51519012451172,43.363746643066406,29.10089874267578C43.414955139160156,28.6951904296875,43.269325256347656,28.30206298828125,42.964149475097656,28.023094177246094C42.721412658691406,27.801071166992188,42.415992736816406,27.6834716796875,42.097755432128906,27.6834716796875C42.004737854003906,27.6834716796875,41.910560607910156,27.6934814453125,41.816444396972656,27.714088439941406L36.890663146972656,28.785606384277344C35.452613830566406,29.09832763671875,34.307411193847656,30.166702270507812,33.901893615722656,31.573829650878906C32.998573303222656,34.709136962890625,32.832496643066406,37.82526397705078,33.408668518066406,40.835243225097656C33.933937072753906,43.57740783691406,35.092872619628906,46.33073425292969,36.853492736816406,49.01938247680664Z" style="fill: rgb(255, 255, 255); fill-opacity: 1;"/></g></g><g id="shape-8a45f9ab-8bef-804e-8007-fefd4d153411"><g class="fills" id="fills-8a45f9ab-8bef-804e-8007-fefd4d153411"><path d="M132.94534301757812,29.124359130859375C130.30178833007812,28.524368286132812,127.86588287353516,27.432830810546875,125.70572662353516,25.88006591796875C125.2955093383789,25.585067749023438,125.1271743774414,25.056602478027344,125.29154205322266,24.579071044921875L127.88590240478516,17.02838134765625C127.9917984008789,16.720230102539062,128.22390747070312,16.471878051757812,128.52426147460938,16.345420837402344C128.82443237304688,16.218955993652344,129.16415405273438,16.226394653320312,129.45901489257812,16.36573028564453C131.39456176757812,17.282470703125,133.32369995117188,17.87702178955078,135.19332885742188,18.13280487060547C136.65939331054688,18.3333740234375,138.12606811523438,18.32708740234375,139.56655883789062,18.12165069580078C139.38058471679688,15.276756286621094,138.95437622070312,12.773796081542969,138.28939819335938,11.207862854003906C136.48825073242188,6.964432239532471,132.44528198242188,1.9058384895324707,123.4144058227539,1.9058384895324707C114.93802642822266,1.9058384895324707,109.31400299072266,7.945244312286377,109.31400299072266,11.940040588378906C109.31400299072266,14.887069702148438,111.8295669555664,17.088760375976562,113.3011245727539,18.123939514160156C113.7602310180664,17.149986267089844,114.2055435180664,16.380325317382812,114.59085845947266,15.90966796875C115.9991226196289,14.188941955566406,117.8647232055664,13.360626220703125,119.3639907836914,12.695114135742188C120.12442779541016,12.357498168945312,120.84293365478516,12.038749694824219,121.3306655883789,11.676536560058594C122.63932037353516,10.704864501953125,123.13455963134766,9.41876220703125,123.1393814086914,9.405876159667969C123.3122329711914,8.946670532226562,123.7502212524414,8.661117553710938,124.21463775634766,8.661117553710938C124.34561920166016,8.661117553710938,124.4786148071289,8.6837158203125,124.60831451416016,8.731781005859375C125.19876861572266,8.94952392578125,125.50418853759766,9.598724365234375,125.2906265258789,10.190422058105469C125.2623062133789,10.268257141113281,124.57938385009766,12.11572265625,122.69608306884766,13.513984680175781C122.0044937133789,14.027565002441406,121.17362213134766,14.396369934082031,120.2936782836914,14.787208557128906C118.8840103149414,15.4129638671875,117.42618560791016,16.060165405273438,116.36319732666016,17.35913848876953C114.6663589477539,19.432357788085938,111.1901626586914,29.787879943847656,112.5608901977539,34.016143798828125C113.9843521118164,38.405792236328125,119.44266510009766,40.775146484375,123.9122085571289,41.1187744140625C127.17545318603516,41.370269775390625,133.20724487304688,41.035797119140625,136.97634887695312,35.982086181640625C137.92001342773438,34.71714782714844,138.61380004882812,32.41216278076172,139.06167602539062,29.6719970703125C138.78121948242188,29.68029022216797,138.50070190429688,29.688888549804688,138.22390747070312,29.688888549804688C136.37118530273438,29.689170837402344,134.60317993164062,29.500328063964844,132.94534301757812,29.124359130859375Z" style="fill: rgb(255, 255, 255); fill-opacity: 1;"/></g></g><g id="shape-8a45f9ab-8bef-804e-8007-fefd4d153412"><g class="fills" id="fills-8a45f9ab-8bef-804e-8007-fefd4d153412"><path d="M125.5302505493164,43.47125244140625C124.9426040649414,43.47125244140625,124.3444595336914,43.447792053222656,123.7367935180664,43.401145935058594C120.60477447509766,43.160240173339844,117.1912612915039,42.094444274902344,114.5372085571289,40.17744445800781C114.47428131103516,40.341392517089844,114.4185562133789,40.50848388671875,114.37845611572266,40.683013916015625L113.20096588134766,45.80854797363281C112.8580093383789,47.3006706237793,113.4737319946289,48.8557243347168,114.7327651977539,49.67803192138672C117.0718765258789,51.20618438720703,119.59818267822266,52.19016647338867,122.2420425415039,52.60274887084961C124.7504653930664,52.99386978149414,127.44486236572266,52.88429260253906,130.25015258789062,52.276859283447266C131.90402221679688,51.91863250732422,133.11392211914062,50.50634765625,133.19143676757812,48.8431396484375L133.45193481445312,43.30530548095703C133.47512817382812,42.80888366699219,133.39785766601562,42.3267822265625,133.22872924804688,41.87671661376953C130.97079467773438,42.92591857910156,128.37417602539062,43.47125244140625,125.5302505493164,43.47125244140625Z" style="fill: rgb(255, 255, 255); fill-opacity: 1;"/></g></g><g id="shape-8a45f9ab-8bef-804e-8007-fefd4d1576e9"><g class="fills" id="fills-8a45f9ab-8bef-804e-8007-fefd4d1576e9"><path d="M139.66342163085938,20.419479370117188C138.08596801757812,20.623764038085938,136.48342895507812,20.61975860595703,134.88253784179688,20.400588989257812C133.16140747070312,20.165115356445312,131.40481567382812,19.678993225097656,129.64590454101562,18.95197296142578L127.74015045166016,24.497817993164062C129.47244262695312,25.619979858398438,131.38992309570312,26.423980712890625,133.45217895507812,26.892066955566406C135.27859497070312,27.306365966796875,137.26614379882812,27.467742919921875,139.37026977539062,27.374183654785156C139.61215209960938,25.126144409179688,139.70956420898438,22.717872619628906,139.66342163085938,20.419479370117188Z" style="fill: rgb(255, 255, 255); fill-opacity: 1;"/></g></g><g id="shape-8a45f9ab-8bef-804e-8007-fefd4d15b7c7"><g class="fills" id="fills-8a45f9ab-8bef-804e-8007-fefd4d15b7c7"><path d="M125.2654800415039,55.12117385864258C124.11392974853516,55.12117385864258,122.9867935180664,55.035614013671875,121.88858795166016,54.864227294921875C119.4750747680664,54.487693786621094,117.1552505493164,53.682273864746094,114.96646881103516,52.478572845458984C114.0882339477539,56.93916702270508,112.0047378540039,61.38002014160156,110.2902603149414,65.02919006347656C109.09757232666016,67.56851196289062,108.06705474853516,69.76190185546875,107.68729400634766,71.3790512084961C106.73612213134766,75.42791748046875,108.5287857055664,79.2870864868164,108.5470962524414,79.32543182373047C108.81705474853516,79.89595031738281,108.5745620727539,80.5783462524414,108.00443267822266,80.84929656982422C107.84561920166016,80.9248275756836,107.6778335571289,80.96089172363281,107.5126724243164,80.96089172363281C107.08585357666016,80.96089172363281,106.67667388916016,80.7214126586914,106.48050689697266,80.31083679199219C106.3915786743164,80.12512969970703,104.31827545166016,75.70745849609375,105.45816802978516,70.85601043701172C105.8927993774414,69.00567626953125,106.97025299072266,66.712158203125,108.2179946899414,64.05638885498047C108.69132232666016,63.048954010009766,109.17960357666016,62.00834655761719,109.6565933227539,60.94484329223633C108.05228424072266,58.05817794799805,99.6845474243164,43.301300048828125,94.3824234008789,39.72766876220703C89.98392486572266,36.76318359375,85.2408218383789,36.13085174560547,83.3334732055664,35.994956970214844C82.5751724243164,38.71422576904297,81.2001724243164,40.96369171142578,79.28043365478516,42.51732635498047C77.09037017822266,44.289825439453125,73.91068267822266,44.991111755371094,70.98575592041016,44.34819793701172C70.8411636352539,44.316444396972656,70.6993179321289,44.28125,70.5593032836914,44.24376678466797C69.3748550415039,45.501251220703125,66.33133697509766,48.275474548339844,62.527626037597656,48.275474548339844C58.939491271972656,48.275474548339844,56.307655334472656,46.75818634033203,55.211647033691406,45.9959716796875C53.868324279785156,46.44117736816406,52.481056213378906,46.571929931640625,51.316627502441406,46.571929931640625C50.922218322753906,46.571929931640625,50.553565979003906,46.557044982910156,50.220680236816406,46.534149169921875C50.215187072753906,46.81426239013672,50.180580139160156,47.095237731933594,50.107582092285156,47.37019348144531C49.853187561035156,48.32841110229492,49.204261779785156,49.144996643066406,48.326698303222656,49.610225677490234L43.142250061035156,52.36040115356445C42.190528869628906,52.86540222167969,41.169837951660156,53.10688400268555,40.165748596191406,53.10688400268555C38.489845275878906,53.10688400268555,36.859169006347656,52.43336486816406,35.665626525878906,51.18760681152344C34.218421936035156,52.15383529663086,31.170934677124023,54.11259460449219,27.530370712280273,56.018714904785156C25.488134384155273,63.15081787109375,23.902746200561523,70.95645141601562,22.819372177124023,79.2313003540039C21.798681259155273,87.02605438232422,21.196447372436523,95.46255493164062,21.020666122436523,104.31108093261719C28.268285751342773,108.06066131591797,35.965248107910156,110.43431854248047,43.913002014160156,111.3604965209961C51.606056213378906,112.2566146850586,59.758399963378906,111.82342529296875,68.1567153930664,110.0815200805664C68.99845123291016,102.63529205322266,70.7441177368164,94.14383697509766,72.9865493774414,86.63378143310547C75.41605377197266,78.49711608886719,78.44486236572266,70.79020690917969,81.7825698852539,64.24007415771484C76.93424224853516,63.63064956665039,71.8539810180664,67.92127990722656,71.79874420166016,67.9687728881836C71.3185806274414,68.38021087646484,70.59586334228516,68.32500457763672,70.18460845947266,67.84603118896484C69.77298736572266,67.36708068847656,69.82682037353516,66.6454849243164,70.30570220947266,66.23345947265625C70.5925064086914,65.98655700683594,77.4073257446289,60.21151351928711,83.84427642822266,62.36799240112305C88.21390533447266,63.83149337768555,91.0284194946289,68.97248840332031,93.7499771118164,73.94410705566406C95.0175552368164,76.2596664428711,96.32828521728516,78.65361785888672,97.7323989868164,80.53057098388672C102.47281646728516,86.86581420898438,112.73514556884766,95.92549896240234,120.0976333618164,93.26288604736328C123.4014663696289,92.06832885742188,126.1462173461914,86.6947250366211,127.82584381103516,78.13174438476562C129.18032836914062,71.228271484375,129.76095581054688,62.592315673828125,129.41494750976562,54.76695251464844C128.00387573242188,55.002437591552734,126.61759185791016,55.12117385864258,125.2654800415039,55.12117385864258Z" style="fill: rgb(255, 255, 255); fill-opacity: 1;"/></g></g><g id="shape-8a45f9ab-8bef-804e-8007-fefd4d15b7c8"><g class="fills" id="fills-8a45f9ab-8bef-804e-8007-fefd4d15b7c8"><path d="M51.796669006347656,114.10010528564453L51.038978576660156,125.0593032836914C52.491615295410156,125.04212188720703,53.921302795410156,124.9751968383789,55.312965393066406,124.85929870605469L56.064613342285156,113.98477172851562C54.631202697753906,114.06346130371094,53.208290100097656,114.10152435302734,51.796669006347656,114.10010528564453Z" style="fill: rgb(255, 255, 255); fill-opacity: 1;"/></g></g><g id="shape-8a45f9ab-8bef-804e-8007-fefd4d15b7c9"><g class="fills" id="fills-8a45f9ab-8bef-804e-8007-fefd4d15b7c9"><path d="M45.269752502441406,113.80110168457031L44.580238342285156,124.8155517578125C45.971595764160156,124.9371337890625,47.363868713378906,125.01212310791016,48.744911193847656,125.0450210571289L49.504005432128906,114.0651626586914C48.079383850097656,114.01940155029297,46.667945861816406,113.93040466308594,45.269752502441406,113.80110168457031Z" style="fill: rgb(255, 255, 255); fill-opacity: 1;"/></g></g><g id="shape-8a45f9ab-8bef-804e-8007-fefd4d15b7ca"><g class="fills" id="fills-8a45f9ab-8bef-804e-8007-fefd4d15b7ca"><path d="M38.769996643066406,112.88092041015625L38.008094787597656,123.90423583984375C39.404029846191406,124.17176055908203,40.838111877441406,124.39579772949219,42.300697326660156,124.57461547851562L42.990821838378906,113.54959869384766C41.576026916503906,113.3707504272461,40.168556213378906,113.14788055419922,38.769996643066406,112.88092041015625Z" style="fill: rgb(255, 255, 255); fill-opacity: 1;"/></g></g><g id="shape-8a45f9ab-8bef-804e-8007-fefd4d15d7b3"><g class="fills" id="fills-8a45f9ab-8bef-804e-8007-fefd4d15d7b3"><path d="M62.663917541503906,113.34930419921875C61.224220275878906,113.54644012451172,59.792762756347656,113.70611572265625,58.370765686035156,113.82569885253906L57.624855041503906,124.61756896972656C58.729713439941406,124.4767837524414,59.803627014160156,124.30453491210938,60.834327697753906,124.09796142578125C61.208412170410156,124.0229721069336,61.575965881347656,123.94371795654297,61.937477111816406,123.86077117919922L62.663917541503906,113.34930419921875Z" style="fill: rgb(255, 255, 255); fill-opacity: 1;"/></g></g><g id="shape-8a45f9ab-8bef-804e-8007-fefd4d15d7b4"><g class="fills" id="fills-8a45f9ab-8bef-804e-8007-fefd4d15d7b4"><path d="M64.98319244384766,113.00224304199219L64.27567291259766,123.23987579345703C65.52591705322266,122.86219024658203,66.68375396728516,122.43073272705078,67.73966217041016,121.94661712646484L68.0156021118164,112.449462890625C67.00089263916016,112.65287780761719,65.9902114868164,112.83629608154297,64.98319244384766,113.00224304199219Z" style="fill: rgb(255, 255, 255); fill-opacity: 1;"/></g></g></g></svg>